<svg width="424" height="469" viewBox="0 0 424 469" fill="none" xmlns="http://www.w3.org/2000/svg">
<path d="M108.01 236.39C111.84 233.36 113.71 228.85 116.54 225.06C118.33 222.66 115.94 221.87 114.42 221.11C108.02 217.89 101.95 214.33 96.5403 209.48C87.2403 201.14 82.3603 190.8 81.4403 178.59C79.8003 156.69 83.3903 135.52 94.6403 116.66C110.5 90.05 133.17 72.26 164.92 68.12C166.05 67.97 167.15 67.58 168.27 67.3C169.01 67.8 169.74 67.53 170.46 67.24C174.81 67.24 179.16 67.24 183.51 67.23C184.97 67.86 185.38 66.85 185.76 65.79C186.79 67.74 188.83 67.69 190.55 67.97C232.64 74.8 266.25 109.97 274.89 151.25C277.19 162.22 277.95 173.42 275 184.41C271.21 198.53 262.16 208.68 249.65 215.79C246.55 217.55 245.75 219.44 247.9 222.02C249.82 224.32 249.02 228.47 252.94 229.33C253.29 231.7 253.64 234.07 253.99 236.43C250.42 239.8 245.94 241.61 241.52 243.39C225.55 249.82 208.8 252.39 191.71 253.69C173.51 255.07 155.66 253.6 137.89 249.62C127.13 247.21 117.52 242.34 108.09 236.93C108.16 236.73 108.13 236.55 107.99 236.4L108.01 236.39ZM239.22 134.22C228.36 134.24 219.42 146.07 222.01 156.27C222.36 157.66 222.92 158.96 224.47 158.94C226.15 158.91 226.47 157.57 226.43 156.08C226.38 154.42 226.34 152.74 226.49 151.09C227.09 144.44 231.04 139.64 236.73 138.53C242.35 137.44 247.86 140.56 250.9 146.45C252.3 149.16 252.75 152.11 253.34 155.03C253.6 156.31 253.96 157.33 255.44 157.3C257.27 157.25 257.53 155.91 257.42 154.49C257.32 153.18 257.26 151.8 256.81 150.59C255.72 147.67 255.65 145.54 259.63 145.44C260.6 145.42 261.78 145.29 261.29 143.77C261 142.88 260.25 142.46 259.34 142.61C258.36 142.77 257.41 143.09 256.44 143.32C254.96 143.68 253.96 143.23 253.18 141.81C252.1 139.82 254.05 139.94 254.77 139.57C255.97 138.95 256.97 138.17 256.26 136.97C255.56 135.8 254.25 136.34 253.16 136.94C252.14 137.5 251.36 138.73 249.83 137.34C246.71 134.51 242.64 134.51 239.24 134.23L239.22 134.22ZM95.1003 157.31C95.2903 158.76 94.5203 160.96 96.9003 161.21C99.6403 161.51 99.4603 159.29 99.4703 157.43C99.4703 157.1 99.4703 156.76 99.4903 156.43C100.06 149.31 104.81 143.5 110.9 142.46C117.85 141.27 124.48 144.91 127.36 151.72C128.19 153.67 128.43 155.87 129.04 157.92C129.44 159.26 130.21 160.56 131.82 160.18C133.39 159.81 133.46 158.38 133.38 156.95C132.62 142.95 117.61 133.92 105.06 140.08C103.01 141.08 101.49 141.39 99.6603 140.03C98.5303 139.18 97.0003 137.42 95.8803 138.87C94.3003 140.92 97.3703 141.21 98.0403 142.48C98.4703 143.31 100.77 143.04 99.4903 144.8C98.6703 145.92 97.9903 147.53 96.0503 146.39C95.4903 146.06 94.8303 145.88 94.2003 145.68C92.5903 145.18 90.9203 145.3 90.6503 147.17C90.3503 149.28 91.9703 148.52 93.2903 148.6C95.2603 148.72 97.3003 149.27 95.8503 152.31C95.1703 153.74 95.3203 155.57 95.0903 157.31H95.1003ZM190.26 158.56C190.24 158.73 190.21 159.73 190.03 160.7C189.21 165.06 187.51 168.85 182.5 169.43C178.14 169.93 175.49 167.35 173.91 161.57C173.43 159.82 173.24 158 172.85 156.22C172.66 155.37 172.09 154.59 171.18 154.74C170.7 154.82 170.15 155.58 169.97 156.14C167.85 162.98 174.68 172.32 181.83 172.43C188.93 172.53 193.5 166.57 193.12 157.37C193.04 155.44 193.57 151.94 191.05 152.14C188.45 152.35 190.6 155.46 190.25 157.24C190.22 157.4 190.25 157.57 190.25 158.56H190.26Z" fill="#FFBB3C"/>
<path d="M265.51 305.3C276.39 307.94 288.1 323.13 288.44 335.15C288.55 338.91 288.46 342.68 288.46 347.16C293.99 343.72 298.82 340.57 304.59 339.28C317.49 336.39 328.49 340.75 338.59 348.13C349 355.73 355.8 365.9 358.99 378.47C361.66 389.01 357.49 398.82 347.56 405.25C334.03 414.01 318.97 418.07 303.2 420.36C282.73 423.32 262.06 422.17 241.58 423.64C203.2 426.39 164.82 426.68 126.42 426.15C105.56 425.87 84.7199 424.34 63.9899 421.5C52.1899 419.89 40.2199 419.48 28.8199 415.54C14.7299 410.68 5.80992 400.5 1.07992 386.9C-1.34008 379.94 0.539922 372.54 4.33992 366.29C12.0299 353.63 23.1999 345.1 37.2399 340.23C47.0499 336.82 56.7899 336.79 66.2799 340.83C70.2299 342.51 70.5799 341.4 70.5999 337.83C70.6699 321.71 74.8099 306.99 86.1799 294.96C87.7599 293.28 89.5899 291.84 91.2999 290.29C91.3499 293.06 91.2699 295.83 91.4699 298.59C91.7099 302.06 90.7399 305.9 94.1399 308.54C93.0299 309 91.9899 309.42 92.3799 311.03C95.4699 323.49 101.13 334.7 110.24 343.68C123.33 356.58 139.61 363.75 157.37 367.78C162.12 371.37 167.18 374.47 172.65 376.79C179.02 379.5 185.46 382.18 192.65 381.38C195.78 381.03 198.27 379.76 197.63 376.05C197.01 372.44 194.28 371.54 191.25 372.66C182.98 375.72 175.33 373.97 167.85 370.18C181.83 369.49 195.84 370.43 209.65 366.23C219.75 363.16 228.92 358.67 237.55 352.96C249.62 344.99 256.18 332.57 262.12 319.99C263.52 317.02 264.95 313.17 263.77 309.38C264.62 308.14 264.11 306.32 265.5 305.3H265.51ZM50.4899 356.72C50.5499 353.72 48.6099 352.09 46.3499 350.94C41.0599 348.25 31.8699 351.95 29.9499 357.52C29.1799 359.76 29.0099 362.07 30.8099 364.08C34.4199 368.11 38.8199 367.56 43.1199 365.85C47.1599 364.24 49.9999 361.32 50.4999 356.72H50.4899Z" fill="#CED4DD"/>
<path d="M262.45 258.23C261.28 263.1 263.22 267.7 263.93 272.37C264.53 276.3 265.1 280.2 265.31 284.16C247.79 296.96 227.31 300.89 206.47 303.24C187.58 305.37 168.63 305.1 149.75 302.39C130.25 299.58 111.46 294.76 94.6902 283.87C93.7802 283.28 93.0602 282.08 91.7102 283.01C90.2802 279.23 93.9302 276.32 93.4802 272.65C93.3502 271.59 94.1002 270.42 93.0802 269.44C95.2902 266.45 98.4002 264.17 99.9302 260.63C101.06 258.02 102.56 258.56 104.46 259.92C110.28 264.1 116.71 267.12 123.5 269.4C145.76 276.87 168.64 278.49 191.91 276.65C215.84 274.76 239.26 271.06 260.28 258.35C261.03 258.62 261.79 258.88 262.53 258.32L262.45 258.24V258.23Z" fill="#FFBB3C"/>
<path d="M91.7196 283C93.0696 282.07 93.7896 283.27 94.6996 283.86C111.46 294.75 130.25 299.57 149.76 302.38C168.64 305.1 187.59 305.36 206.48 303.23C227.32 300.89 247.8 296.95 265.32 284.15C266.26 291.19 266.32 298.24 265.51 305.29C264.13 306.31 264.64 308.12 263.79 309.35C259.93 313.66 254.78 316.01 249.63 318.2C226.61 327.96 202.37 330.85 177.61 330.59C147.93 330.28 119.64 324.7 94.1496 308.53C90.7396 305.89 91.7196 302.05 91.4796 298.58C91.2896 295.82 91.3596 293.05 91.3096 290.28C91.4496 287.85 91.5896 285.42 91.7296 283H91.7196Z" fill="#151312"/>
<path d="M260.28 258.34C239.26 271.05 215.84 274.75 191.91 276.64C168.64 278.48 145.77 276.85 123.5 269.39C116.72 267.12 110.29 264.09 104.46 259.91C102.56 258.55 101.06 258.01 99.9298 260.62C98.3998 264.15 95.2798 266.44 93.0798 269.43C87.4198 275.47 81.6298 281.36 74.5598 285.83C71.4698 287.78 68.2198 289.46 64.6298 290.02C60.9998 290.59 58.0098 289.27 57.1898 285.27C56.4298 281.53 58.9198 278.59 62.9698 278.36C81.1898 277.33 92.0598 266.06 100.48 251.44C102.1 248.63 103.24 245.53 104.6 242.57C105.77 240.69 106.93 238.81 108.1 236.93C117.53 242.35 127.14 247.21 137.9 249.62C155.67 253.6 173.52 255.07 191.72 253.69C208.81 252.39 225.56 249.82 241.53 243.39C245.96 241.61 250.43 239.8 254 236.43C255 237.13 255.36 238.19 255.64 239.29C264.23 256.24 276.56 268.68 296 272.27C300.05 273.02 301.83 275.06 301.55 278.95C301.25 283.1 298.17 284.1 294.84 283.79C288.27 283.17 283.41 279.02 278.56 275.03C272.53 270.07 267.7 263.94 262.43 258.24L262.51 258.32C262.2 257.29 261.85 256.29 260.7 255.66C260.55 256.6 260.4 257.48 260.26 258.35L260.28 258.34Z" fill="#151312"/>
<path d="M108.12 236.92C106.95 238.8 105.79 240.68 104.62 242.56C95.6798 243.06 86.7898 243.48 77.7998 242.51C62.3998 240.85 48.2898 236.28 36.2298 226.31C23.0398 215.4 18.9098 191.64 28.6098 179.28C38.6698 166.45 51.8098 166.32 63.8098 176.44C79.8198 189.94 89.5598 208.4 100.69 225.71C103.02 229.34 105.56 232.84 108.01 236.39C108.15 236.55 108.19 236.72 108.11 236.92H108.12Z" fill="#EF9CA4"/>
<path d="M37.0866 172.18C43.1738 171.309 49.865 173.301 56.6152 178.112C74.3236 190.731 86.1197 208.8 99.2335 226.126L100.507 227.8C103.281 231.434 106.275 234.937 109.135 238.426C108.673 239.323 108.213 240.22 107.753 241.116C107.305 241.988 106.855 242.86 106.406 243.732C97.3063 244.98 88.3309 246.106 79.1782 245.949L78.2713 245.93C61.6533 245.492 46.2682 241.836 32.6219 232.311C25.3156 227.208 20.0217 218.518 17.7174 209.324C15.41 200.117 16.155 190.642 20.5987 183.933L20.5996 183.932C25.3241 176.792 31.0222 173.048 37.0866 172.18Z" stroke="black" stroke-width="2.5"/>
<path d="M384.73 457.4C374.7 457.47 365.34 455.3 356.96 449.54C342.55 439.63 342.74 421.96 357 411.88C372.98 400.58 396.91 401.09 412.85 411.56C427.04 420.88 427.18 439.21 413.33 448.99C404.7 455.09 395.06 457.28 384.74 457.4H384.73Z" fill="#CED4DD"/>
<path d="M255.65 239.28C255.37 238.17 255.01 237.11 254.01 236.42C253.66 234.05 253.31 231.68 252.95 229.32C262.63 219.85 269.34 208.17 277 197.2C280.14 192.7 283.76 188.66 287.85 184.97C298.38 175.46 318.49 176.24 327.6 187.03C332.32 192.62 331.9 199.29 329.64 205.84C324.78 219.99 313.46 227.08 300.52 232.51C286.1 238.57 271.12 240.48 255.64 239.29L255.65 239.28Z" fill="#EF9CA4"/>
<path d="M302.12 183.495C308.759 178.968 317.771 177.658 326.264 179.25C334.758 180.842 342.528 185.296 346.772 192.038C351.065 198.858 349.685 206.14 346.039 213.338L346.037 213.338C338.255 228.754 324.228 235.148 308.22 239.421L308.219 239.421C290.774 244.086 273.335 243.985 255.782 240.276C255.612 239.245 255.281 238.119 254.446 237.156C254.425 234.679 254.402 232.2 254.371 229.727C267.178 220.083 277.01 207.411 287.573 195.975L287.573 195.974C291.933 191.25 296.778 187.134 302.119 183.496L302.12 183.495Z" stroke="black" stroke-width="2.5"/>
<path d="M315.97 468.32C310.27 468.73 304.95 466.96 300.35 462.84C296.12 459.06 295.19 452.63 298.32 447.99C305.93 436.7 326.34 437.36 332.79 446.54C336.61 451.97 336.63 457.51 332.07 462.23C327.86 466.59 323.47 468.29 315.97 468.31V468.32Z" fill="#CED4DD"/>
<path d="M185.77 65.78C185.39 66.84 184.98 67.85 183.52 67.22C183.44 63.29 183.36 59.35 183.27 55.42C183.9 40.79 186.1 26.46 191.46 12.74C192.86 9.16 194.63 5.82 197.25 2.99C199.38 0.690002 201.85 -1.27 204.99 1.08C207.9 3.26 206.73 6.04 205.4 8.62C198.63 21.82 192.64 35.34 189.08 49.8C187.78 55.08 186.85 60.46 185.76 65.79L185.77 65.78Z" fill="#151312"/>
<path d="M170.47 67.23C169.75 67.52 169.03 67.79 168.28 67.29C168.22 66.49 168.16 65.69 168.11 64.9L168.14 64.86C165.05 44.84 157.76 26.28 148.52 8.4C147.14 5.74 146.17 2.99 149.17 0.920001C152.09 -1.09 154.54 0.490001 156.54 2.75C163.24 10.34 165.31 19.87 167.47 29.31C169.35 37.55 170.39 45.92 170.72 54.38C170.72 54.73 170.72 55.08 170.73 55.42C170.76 56.06 170.78 56.7 170.81 57.34C170.7 60.63 170.59 63.93 170.47 67.22V67.23Z" fill="#151312"/>
<path d="M170.73 55.43C170.73 55.08 170.73 54.73 170.72 54.39C170.85 54.64 171 54.88 171.07 55.14C171.09 55.2 170.85 55.33 170.73 55.43Z" fill="#CED4DD"/>
<path d="M239.22 134.22C242.63 134.5 246.7 134.5 249.81 137.33C251.34 138.72 252.12 137.5 253.14 136.93C254.23 136.33 255.54 135.79 256.24 136.96C256.96 138.16 255.95 138.94 254.75 139.56C254.03 139.93 252.08 139.81 253.16 141.8C253.94 143.22 254.93 143.67 256.42 143.31C257.39 143.08 258.34 142.76 259.32 142.6C260.23 142.45 260.99 142.87 261.27 143.76C261.76 145.28 260.58 145.41 259.61 145.43C255.63 145.52 255.7 147.66 256.79 150.58C257.24 151.79 257.3 153.17 257.4 154.48C257.51 155.9 257.24 157.25 255.42 157.29C253.95 157.33 253.58 156.31 253.32 155.02C252.73 152.1 252.28 149.15 250.88 146.44C247.83 140.55 242.32 137.43 236.71 138.52C231.03 139.62 227.07 144.42 226.47 151.08C226.32 152.73 226.36 154.41 226.41 156.07C226.46 157.56 226.13 158.9 224.45 158.93C222.91 158.96 222.35 157.66 221.99 156.26C219.4 146.07 228.34 134.23 239.2 134.21L239.22 134.22Z" fill="#151312"/>
<path d="M95.1003 157.31C95.3403 155.57 95.1803 153.74 95.8603 152.31C97.3103 149.27 95.2703 148.72 93.3003 148.6C91.9803 148.52 90.3603 149.28 90.6603 147.17C90.9303 145.3 92.6003 145.18 94.2103 145.68C94.8403 145.88 95.5003 146.06 96.0603 146.39C98.0003 147.53 98.6803 145.92 99.5003 144.8C100.78 143.04 98.4903 143.31 98.0503 142.48C97.3803 141.2 94.3103 140.91 95.8903 138.87C97.0103 137.42 98.5403 139.19 99.6703 140.03C101.5 141.4 103.02 141.09 105.07 140.08C117.62 133.92 132.62 142.96 133.39 156.95C133.47 158.39 133.39 159.81 131.83 160.18C130.22 160.56 129.44 159.26 129.05 157.92C128.44 155.86 128.2 153.67 127.37 151.72C124.5 144.91 117.86 141.27 110.91 142.46C104.82 143.51 100.07 149.31 99.5003 156.43C99.4703 156.76 99.4803 157.1 99.4803 157.43C99.4803 159.29 99.6403 161.51 96.9103 161.21C94.5303 160.95 95.3003 158.76 95.1103 157.31H95.1003Z" fill="#151312"/>
<path d="M190.26 158.56C190.26 157.57 190.23 157.4 190.26 157.24C190.61 155.46 188.45 152.35 191.06 152.14C193.58 151.94 193.05 155.43 193.13 157.37C193.51 166.57 188.94 172.54 181.84 172.43C174.69 172.32 167.86 162.98 169.98 156.14C170.15 155.58 170.71 154.82 171.19 154.74C172.09 154.59 172.67 155.37 172.86 156.22C173.25 158 173.44 159.82 173.92 161.57C175.5 167.35 178.15 169.93 182.51 169.43C187.52 168.85 189.22 165.06 190.04 160.7C190.22 159.73 190.26 158.73 190.27 158.56H190.26Z" fill="#151312"/>
<path d="M94.1396 308.53C119.63 324.7 147.92 330.28 177.6 330.59C202.36 330.85 226.6 327.96 249.62 318.2C254.78 316.01 259.92 313.66 263.78 309.35C264.95 313.15 263.53 317 262.13 319.97C256.19 332.54 249.63 344.96 237.56 352.94C228.93 358.64 219.76 363.14 209.66 366.21C195.85 370.41 181.84 369.48 167.87 370.17C164.52 368.77 161.33 366.62 157.38 367.76C139.62 363.73 123.34 356.56 110.25 343.66C101.14 334.68 95.4696 323.47 92.3896 311.01C91.9896 309.41 93.0396 308.98 94.1496 308.52L94.1396 308.53ZM205.1 364.93C192 363.52 179.84 359.64 169.08 351.91C166.39 349.98 164 347.64 161.31 345.73C158.27 343.57 154.95 343.39 152.31 346.25C149.78 349 151.22 351.75 153.25 354.19C154.76 356.01 156.73 357.24 158.81 358.31C166.57 362.29 174.93 364.24 183.51 365.28C190.7 366.15 197.93 367.38 205.11 364.93H205.1Z" fill="#FFBB3C"/>
<path d="M50.49 356.72C50 361.32 47.15 364.25 43.11 365.85C38.81 367.56 34.41 368.11 30.8 364.08C29.01 362.08 29.17 359.76 29.94 357.52C31.86 351.94 41.05 348.24 46.34 350.94C48.6 352.09 50.54 353.72 50.48 356.72H50.49Z" fill="white"/>
<path d="M157.38 367.76C161.33 366.62 164.52 368.77 167.87 370.17C175.34 373.96 182.98 375.7 191.26 372.64C194.29 371.52 197.01 372.42 197.64 376.03C198.28 379.73 195.8 381.01 192.66 381.36C185.47 382.16 179.03 379.48 172.66 376.77C167.19 374.44 162.13 371.34 157.38 367.76Z" fill="#151312"/>
<path d="M260.28 258.34C260.42 257.47 260.56 256.59 260.72 255.65C261.87 256.27 262.22 257.28 262.53 258.31C261.79 258.87 261.03 258.61 260.28 258.34Z" fill="white"/>
<path d="M205.1 364.93C197.92 367.38 190.69 366.15 183.5 365.28C174.92 364.24 166.57 362.29 158.8 358.31C156.72 357.24 154.75 356.01 153.24 354.19C151.21 351.75 149.78 348.99 152.3 346.25C154.93 343.39 158.26 343.57 161.3 345.73C164 347.64 166.39 349.99 169.07 351.91C179.84 359.63 191.99 363.51 205.09 364.93H205.1Z" fill="#151312"/>
</svg>
