<svg width="241" height="393" viewBox="0 0 241 393" fill="none" xmlns="http://www.w3.org/2000/svg">
<g clip-path="url(#clip0_304_374)">
<path d="M128.24 123.04C139.14 124.35 150.04 125.66 160.21 130.21C160.82 130.45 161.43 130.69 162.03 130.93C170.01 135.38 177.24 140.75 183.4 147.58C201.07 167.17 208.3 189.94 205.77 216.24C204.34 231.16 198.31 242.92 185.76 251.07C182.88 252.94 179.48 254.07 176.2 255.22C173.09 256.32 172.22 258.53 172.55 261.42C172.9 264.54 173.49 267.62 173.98 270.73C169.27 272.31 164.52 273.65 159.54 274.16C134.01 276.77 109.62 272.2 86.1598 262.29C76.7998 258.34 68.0198 253.27 61.5298 245.07C63.1498 242.28 65.6098 240.33 68.0898 238.35C71.9698 235.25 71.8698 233.84 68.0798 230.58C59.2298 222.98 53.0598 213.81 51.5698 201.96C50.6498 194.65 52.5598 187.71 54.9098 181C66.7398 147.13 90.5798 128.03 126.22 123.69C126.89 123.47 127.56 123.24 128.23 123.02L128.24 123.04ZM90.0298 178.19C92.3998 173.57 91.3098 168.69 87.3498 166.2C83.5998 163.84 79.2398 165.08 76.1998 169.21C74.5298 171.47 74.0198 173.95 74.0698 176.67C74.1498 181.53 76.9098 185.17 80.9298 185.61C85.2598 186.09 88.9798 183.05 90.0998 178.1L90.0298 178.19ZM192.37 199.16C192.35 193.92 189.09 190.02 184.66 189.91C179.35 189.78 174.8 195.2 174.91 201.51C175 206.75 178.35 210.53 182.84 210.44C188.11 210.34 192.4 205.26 192.37 199.15V199.16ZM141.78 193.78C138.98 199.04 139.87 206.93 132.18 206.04C124 205.1 127.49 197.48 126.43 192.23C123.38 196.6 123.62 202.72 126.85 206.12C129.54 208.95 132.83 209.61 136.4 207.87C140.35 205.94 142.92 199.81 141.79 193.78H141.78Z" fill="#FFBB3C"/>
<path d="M61.5494 245.09C68.0394 253.29 76.8194 258.35 86.1794 262.31C109.639 272.22 134.029 276.79 159.559 274.18C164.539 273.67 169.289 272.33 173.999 270.75C174.279 271.87 174.569 272.99 174.859 274.11C175.069 276.77 175.269 279.44 175.479 282.1C178.989 292.72 184.839 301.22 195.939 305.14C200.209 306.65 201.609 309.61 199.699 312.55C197.849 315.4 195.029 315.24 192.759 313.81C188.939 311.41 184.879 309.24 182.809 304.65C181.259 301.22 178.849 298.18 176.829 294.97C175.659 290.1 173.279 288.22 168.069 290.36C164.929 291.65 161.289 291.84 157.839 292.2C137.289 294.33 117.159 291.76 97.4094 286.1C79.6494 281.01 63.2094 273.48 50.6694 259.23C51.9894 254.69 48.0194 253.05 45.8094 250.5C44.4394 248.93 42.7494 247.63 41.1994 246.2C39.4994 243.17 37.3794 240.5 34.5194 237.86C34.1594 240.64 33.8694 242.9 33.5794 245.15C32.3794 252.32 30.6394 259.36 27.7994 266.06C25.3594 271.8 22.5694 273.49 18.1494 272.46C30.2094 264.93 29.2994 252.07 31.3094 240.41C33.0194 237.29 32.6894 234.21 31.4194 231.01C29.6994 226.68 27.5694 222.21 33.4594 219.08C33.9794 218.81 34.2494 217.68 34.2794 216.93C34.5694 208.86 36.0094 200.84 35.2394 192.73C37.4094 154.89 36.2894 117.05 35.5894 79.1999C35.4894 73.5499 35.4294 67.9099 35.3594 62.2599C36.4694 61.8499 37.3394 62.3199 38.1594 62.9999C38.2094 105.05 39.5994 147.11 38.2694 189.16C38.2094 191.15 38.3694 193.14 38.4194 195.13C35.4694 208.15 37.1794 220.99 40.0494 233.74C41.3194 239.38 44.7094 243.95 48.7394 247.95C53.2194 252.4 54.0294 252.24 58.2294 247.24C59.4094 246.63 59.9394 245.02 61.5494 245.07V245.09Z" fill="#1B1918"/>
<path d="M107.49 362.34C98.6499 362.99 90.5299 359.98 82.2999 357.46C81.1899 357.41 80.3099 355.7 78.9999 356.99C73.7299 353.02 67.4599 350.75 62.1899 346.73C50.8099 338.03 41.4899 327.88 37.3899 313.74C36.2699 309.88 36.3799 305.88 35.7199 301.97C35.4399 300.35 36.4099 299.53 37.3699 298.62C46.2199 306.49 54.8699 314.26 66.1799 319.09C92.3199 330.23 119.07 336.61 147.64 334.29C153.64 333.8 159.27 331.72 165.21 331.2C166.49 332.64 166.4 333.73 165.17 335.47C153.39 352.14 137.84 361.89 117.06 362.47C115.09 362.52 113.13 363.01 111.17 363.29C110.1 362.35 108.76 362.51 107.5 362.34H107.49Z" fill="#FFBB3C"/>
<path d="M38.1495 63.01C37.3295 62.33 36.4595 61.86 35.3495 62.27C22.2895 56.19 12.0195 46.93 4.88952 34.48C1.35952 28.32 0.129519 21.35 1.38952 14.24C3.44952 2.57998 16.6695 -2.53001 27.1695 4.04999C30.2095 5.95999 32.4595 9.94998 36.1795 9.68998C39.6495 9.44998 41.5195 5.47999 44.2995 3.40999C53.9095 -3.75001 66.0695 0.859984 68.6495 12.57C70.1895 19.57 68.6195 26.3 66.0795 32.58C60.6095 46.09 51.7795 56.83 38.1495 63.01Z" fill="#F26722"/>
<path d="M50.6698 259.22C63.1998 273.47 79.6398 281 97.4098 286.09C117.16 291.75 137.28 294.31 157.84 292.19C161.29 291.83 164.93 291.64 168.07 290.35C173.28 288.21 175.67 290.09 176.83 294.96C174.12 299.55 175.65 304.91 174.19 309.73C171.5 310.58 168.84 311.51 166.12 312.25C150.69 316.42 135.13 315.57 119.61 313.1C95.5698 309.28 72.6398 302.27 52.4698 288.06C48.0298 284.94 43.9898 281.26 39.7598 277.84C41.9798 273.18 43.5298 268.22 46.2598 263.77C47.4198 261.87 48.6598 260.22 50.6698 259.22Z" fill="#FFBB3C"/>
<path d="M39.7594 277.83C43.9894 281.25 48.0394 284.92 52.4694 288.05C72.6394 302.26 95.5594 309.27 119.609 313.09C135.129 315.56 150.689 316.41 166.119 312.24C168.839 311.51 171.499 310.57 174.189 309.72C172.949 315.15 172.779 320.84 170.089 325.91C169.079 327.82 167.999 329.63 166.179 330.88L165.749 330.81L165.499 331.17L165.209 331.19C159.269 331.71 153.639 333.79 147.639 334.28C119.069 336.6 92.3094 330.22 66.1794 319.08C54.8594 314.25 46.2194 306.48 37.3694 298.61C34.8094 295.46 36.2294 292 36.8494 288.74C37.5494 285.05 38.7694 281.47 39.7694 277.83H39.7594Z" fill="#1B1918"/>
<path d="M175.47 282.08C175.26 279.42 175.06 276.75 174.85 274.09C178.05 269.5 183.61 267.78 187.3 263.67C192.4 257.99 198.22 253.02 204.36 248.44C214.04 241.21 225.71 241.27 235.23 248.69C242.25 254.17 242.19 264.92 235.41 272.61C228.33 280.63 218.86 283.76 208.92 284.81C197.73 285.99 186.34 286.4 175.48 282.08H175.47Z" fill="#EF9CA4"/>
<path d="M175.47 282.08C175.26 279.42 175.06 276.75 174.85 274.09C178.05 269.5 183.61 267.78 187.3 263.67C192.4 257.99 198.22 253.02 204.36 248.44C214.04 241.21 225.71 241.27 235.23 248.69C242.25 254.17 242.19 264.92 235.41 272.61C228.33 280.63 218.86 283.76 208.92 284.81C197.73 285.99 186.34 286.4 175.48 282.08H175.47Z" fill="#EF9CA4"/>
<path d="M35.2295 192.74C35.9995 200.85 34.5595 208.87 34.2695 216.94C34.2395 217.69 33.9695 218.81 33.4495 219.09C27.5495 222.22 29.6895 226.69 31.4095 231.02C32.6795 234.21 33.0095 237.3 31.2995 240.42C30.1795 242.33 28.5695 241.97 27.0495 241.19C13.3195 234.16 -1.83048 221.33 0.179523 201.37C1.42952 188.92 13.1495 178.38 23.9595 180.9C30.2995 182.38 34.6195 185.8 35.2295 192.74Z" fill="#EF9CA4"/>
<path d="M58.2191 247.25C54.0191 252.25 53.2091 252.41 48.7291 247.96C44.7091 243.96 41.3091 239.39 40.0391 233.75C37.1691 221 35.4591 208.15 38.4091 195.14C41.9091 196.68 42.2491 200.24 43.4091 203.19C48.4991 216.15 50.7591 229.96 55.2691 243.1C55.8491 244.79 55.9591 246.78 58.2191 247.25Z" fill="#EF9CA4"/>
<path d="M162.03 130.93C161.42 130.69 160.81 130.45 160.21 130.21C166.33 117.22 173.99 105.28 184.26 95.1199C187.36 92.0599 190.72 89.3399 194.74 87.6799C196.92 86.7799 199.4 86.4699 200.87 89.0999C202.41 91.8499 200.62 93.2499 198.57 94.7099C184.47 104.84 171.3 115.92 162.03 130.93Z" fill="#1B1918"/>
<path d="M128.24 123.04C127.57 123.27 126.9 123.49 126.23 123.71C125.24 107.18 119.48 92.08 112.58 77.29C111.3 74.54 107.76 71.06 111.87 68.61C116.25 66 118.49 70.4099 120.12 73.4599C126.16 84.6999 127.38 97.1399 128.29 109.57C128.62 114.04 128.28 118.55 128.24 123.04Z" fill="#1B1918"/>
<path d="M107.49 362.34C108.75 362.51 110.1 362.35 111.16 363.29C106.98 371.98 102.06 380.16 95.1095 386.99C92.9495 389.11 90.5695 390.97 87.6795 391.8C85.0995 392.54 82.4695 392.04 81.5595 389.11C80.6795 386.24 81.6195 383.61 84.7995 382.89C96.2895 380.3 102.57 372.11 107.48 362.34H107.49Z" fill="#1B1918"/>
<path d="M79 356.98C80.3 355.7 81.18 357.4 82.3 357.45C81.9 363.62 84.03 368.86 88.21 373.3C90.27 375.5 90.79 377.86 88.1 379.59C85.69 381.14 83.7 379.68 82.38 377.39C78.7 371.01 79.18 363.94 79.01 356.98H79Z" fill="#1B1918"/>
<path d="M33.5791 245.15C33.8691 242.9 34.1591 240.64 34.5191 237.86C37.3791 240.49 39.4991 243.17 41.1991 246.2C38.4091 247.71 36.1191 245.53 33.5791 245.16V245.15Z" fill="#EF9CA4"/>
<path d="M165.5 331.17L165.75 330.81C165.75 330.81 166.19 330.88 166.18 330.88C166.15 331.44 165.87 331.42 165.5 331.17Z" fill="#FFBB3C"/>
<path d="M90.0899 178.1C88.9699 183.05 85.2499 186.09 80.9199 185.61C76.8999 185.16 74.1399 181.53 74.0599 176.67C74.0099 173.95 74.5199 171.47 76.1899 169.21C79.2399 165.08 83.5899 163.85 87.3399 166.2C91.2999 168.69 92.3899 173.57 90.0199 178.19C89.8399 176.52 90.4299 174.45 87.9199 173.94C86.6099 173.67 85.6799 174.24 85.2599 175.48C84.8499 176.67 85.2199 177.65 86.1599 178.54C87.6899 179.98 88.7799 178.22 90.0799 178.12L90.0899 178.1Z" fill="#1B1918"/>
<path d="M192.369 199.16C192.399 205.27 188.109 210.35 182.839 210.45C178.349 210.54 174.999 206.76 174.909 201.52C174.799 195.2 179.349 189.79 184.659 189.92C189.099 190.03 192.349 193.92 192.369 199.17V199.16ZM190.059 202.17C189.969 200.8 189.389 199.64 187.909 199.33C186.139 198.95 184.899 199.93 184.689 201.57C184.509 202.95 185.429 204.06 186.979 204.25C188.509 204.43 189.429 203.57 190.059 202.18V202.17Z" fill="#1B1918"/>
<path d="M141.779 193.78C142.919 199.81 140.339 205.94 136.389 207.87C132.819 209.62 129.529 208.95 126.839 206.12C123.609 202.72 123.369 196.6 126.419 192.23C127.489 197.48 123.989 205.1 132.169 206.04C139.869 206.93 138.969 199.03 141.769 193.78H141.779Z" fill="#1B1918"/>
<path d="M90.0896 178.1C88.7796 178.2 87.6996 179.97 86.1696 178.52C85.2296 177.63 84.8496 176.66 85.2696 175.46C85.6996 174.22 86.6196 173.66 87.9296 173.92C90.4296 174.43 89.8396 176.5 90.0296 178.17L90.0896 178.08V178.1Z" fill="white"/>
<path d="M190.059 202.17C189.429 203.56 188.519 204.42 186.979 204.24C185.429 204.06 184.519 202.94 184.689 201.56C184.899 199.93 186.139 198.94 187.909 199.32C189.379 199.64 189.959 200.79 190.059 202.16V202.17Z" fill="white"/>
<g clip-path="url(#clip1_304_374)">
<path d="M174.21 226.7C172.44 226.11 170.19 225.08 168.8 222.75C167.31 220.26 168.05 218.09 170.01 216.39C173.57 213.31 180.7 213.16 184.15 216.06C186.11 217.71 187.91 219.64 186.53 222.56C184.87 226.07 179.45 228.04 174.21 226.7Z" fill="#FF606C"/>
<path d="M76.5998 203.39C73.3398 202.42 70.0498 201.46 68.5498 197.86C66.8898 193.9 69.1598 190.02 73.4098 190C76.2098 189.99 79.0398 190.56 81.4698 192.16C84.5598 194.19 86.7598 196.68 84.9098 200.68C83.1498 204.48 80.0698 204.56 76.5998 203.39Z" fill="#FF606C"/>
</g>
</g>
<defs>
<clipPath id="clip0_304_374">
<rect width="240.49" height="392.1" fill="white"/>
</clipPath>
<clipPath id="clip1_304_374">
<rect width="119.02" height="37.13" fill="white" transform="translate(68 190)"/>
</clipPath>
</defs>
</svg>
