<svg width="265" height="468" viewBox="0 0 265 468" fill="none" xmlns="http://www.w3.org/2000/svg">
<g clip-path="url(#clip0_280_18)">
<path d="M138.8 65.65C134.17 82.75 132.63 99.93 137.71 117.6C135.93 117.6 134.3 117.6 132.67 117.6C132.32 117.48 131.96 117.35 131.6 117.23C132.07 111.77 133.21 106.37 132.8 100.84C131.32 80.82 125.54 62.11 114.81 45.17C101.15 23.61 84.0104 7.17001 55.9404 8.55001C60.3004 2.65001 67.2204 1.98001 73.4804 0.820007C94.3404 -3.02999 109.24 6.98001 120.97 22.9C130.36 35.64 135.41 50.33 138.78 65.65H138.8Z" fill="#EF9CA4"/>
<path d="M197.19 133.36C193.73 131.83 190.31 130.22 186.8 128.82C185.4 128.26 184.68 127.87 185.99 126.54C208.87 117.5 227.04 102.65 240.37 82.02C250.29 66.68 254.09 50.32 247.28 32.57C260.64 38.3 265.28 61.21 262.9 73.91C259.98 89.48 248.75 102.3 236.74 111.93C227.13 119.63 216.29 125.92 204.88 130.53C203.6 131.05 198.39 133.89 197.18 133.36H197.19Z" fill="#EF9CA4"/>
<path d="M142.98 120.76C141.85 118.85 141.91 111.48 142.07 109.26C142.68 101.06 144.25 92.91 147.03 85.16C150.24 76.21 153.85 66.78 159.02 58.81C164.19 50.84 170.85 43.61 177.94 37.13C187.15 28.71 197.56 22.44 209.97 20.01C219.01 18.24 227.74 19.93 236.37 22.61C237.37 23.59 238.37 24.57 239.37 25.56C239.84 26.31 239.85 27.38 240.88 27.71C253.13 48.86 247.11 67.99 233.9 85.93C221.54 102.71 205.39 114.98 186.33 123.42C185.76 123.67 185.24 124.06 184.7 124.39C181.58 124.77 178.93 128.94 175.88 128.01C172.62 127.02 169.54 124.17 166.02 124.36C165.05 124.41 164.06 124.62 163.11 124.39" fill="#EF9CA4"/>
<path d="M42.5802 17.61C42.7502 17.44 42.9202 17.27 43.1002 17.11C47.7802 12.81 56.2602 11.9 62.3402 11.81C77.4202 11.59 90.2702 20.14 100 31.02C120.49 53.92 131.08 80.74 129.05 111.91C128.94 113.58 128.86 115.23 128.04 116.74C113.9 117.3 99.8402 118.54 86.0202 121.74C85.2402 121.45 84.3902 121.28 83.7002 120.85C68.7402 111.5 55.4002 99.06 46.0602 84.02C39.9402 74.16 35.2302 63.04 33.8302 51.44C33.0502 45.03 33.6002 38.54 35.4502 32.35C36.9502 27.33 38.7202 21.5 42.5902 17.6L42.5802 17.61Z" fill="#EF9CA4"/>
<path d="M86.8503 328.8C42.7303 320.47 10.9003 292.12 2.5603 246.45C-0.519702 229.57 -1.3097 212.74 2.9303 196.04C9.9803 168.31 27.1003 148.45 52.0003 135.02C57.8203 131.88 63.8803 129.2 69.8303 126.3C71.5103 126.43 73.3203 126.81 73.7303 124.38C75.4403 124.62 77.0003 124.03 78.5903 123.52C94.5303 118.44 110.89 116.22 127.6 116.41C128.8 116.57 130.01 116.72 131.21 116.88C131.53 116.23 131.85 116.53 132.18 116.87C156.78 150.96 165.23 189.84 165.89 230.99C166.05 240.57 165.68 250.12 165.04 259.72C163.62 280.82 158.62 300.79 149.16 319.69C146.54 324.92 144.16 330.16 137.12 330.24C137.01 330.24 136.9 330.82 136.79 331.13C124.16 332.75 111.51 332.25 98.8603 331.39C95.1603 329.08 90.7903 329.93 86.8403 328.81L86.8503 328.8ZM111.63 211.54C110.14 216.38 112.48 221.9 117.24 224.8C121.47 227.38 126.33 226.76 129.92 223.19C135.31 217.83 135.61 207.74 130.6 201.8C127.49 198.11 123.44 196.58 119.04 198.29C114.78 199.95 111.61 203.11 111.73 208.31C111.7 209.39 111.66 210.47 111.63 211.54ZM13.9903 209.59C12.4303 213.96 14.3003 217.55 16.9103 220.71C20.7303 225.33 25.7703 225.92 30.6403 222.7C38.8603 217.27 38.9203 202.7 30.6703 197.42C27.3403 195.29 23.7903 195.25 20.3003 197.22C17.0003 199.08 14.8003 202.38 14.9703 205.16C14.6403 206.64 14.3203 208.11 13.9903 209.59ZM71.1803 243.71C75.8603 243.59 81.4803 236.26 80.7103 231.41C80.5103 230.17 79.9303 229.64 78.7903 229.66C77.3703 229.69 76.9303 230.53 76.7003 231.9C76.0803 235.58 75.1003 239.74 70.5503 239.6C66.2603 239.47 66.3703 235.11 65.7803 231.96C65.5303 230.64 65.4303 229.71 63.8203 229.86C62.6803 229.97 62.0903 230.54 61.8003 231.66C60.5303 236.42 66.2803 243.83 71.1903 243.7L71.1803 243.71Z" fill="#FFBB3C"/>
<path d="M136.8 331.12C136.91 330.81 137.01 330.24 137.13 330.23C144.18 330.15 146.56 324.91 149.17 319.68C158.63 300.78 163.63 280.81 165.05 259.71C165.69 250.12 166.06 240.57 165.9 230.98C165.23 189.83 156.79 150.95 132.19 116.86H137.27C136.07 111.94 134.94 107.28 134.49 102.47C132.33 79.14 138.84 57.99 150.48 38.17C158.78 24.04 169.51 12.29 184.81 5.44998C206.83 -4.38002 228.07 5.84998 240.8 22.64C245.13 28.35 248.57 34.32 249.87 41.52C252.41 55.58 248.34 68.15 241.22 79.85C228.75 100.33 210.82 114.71 189.3 124.84C187.98 125.46 186.63 126.01 184.47 126.96C192.65 130.31 199.7 134.25 206.73 138.22C209.12 139.57 211.14 141.13 212.01 143.83C221.23 167.27 226.14 191.67 227.45 216.76C228.77 242.08 226.51 267.12 219.82 291.67C211.91 297.7 203.97 303.7 194.97 308.09C196.41 303.46 197.94 298.86 199.47 294.27C203.78 281.36 205.69 267.91 206.81 254.32C208.19 237.5 207.47 220.78 205.77 204.04C203.22 178.95 196.98 154.95 185.14 132.52C183.41 129.25 181.34 126.85 177.66 126.06C178.21 125.08 179.22 125.01 180.16 124.66C204.87 115.44 224.81 100.09 238.5 77.45C248.48 60.95 251.45 43.58 239.65 26.56C224.31 4.42999 198.97 -3.28002 175.26 14.65C163.35 23.66 154.78 35.21 148.41 48.53C138.56 69.11 135.06 90.55 139.62 113.15C140.34 116.73 142.2 117.4 145.27 117.81C149.55 118.39 154.36 117.71 157.53 121.81C160.86 128.27 164.56 134.57 167.46 141.21C177.62 164.45 183.05 188.82 184.92 214.12C186.47 235.13 185.47 255.91 181.78 276.6C179.21 291.01 175.05 304.96 169.45 318.48C166.51 325.24 159.43 324.35 154.1 326.66C152.8 327.22 151.18 327.15 149.79 328.19C153.28 333.81 156.21 339.62 155.79 346.59C155.54 350.75 153.64 353.61 149.77 354.62C145.68 355.69 143.36 352.98 141.68 349.65C138.72 343.81 138.66 337.21 136.79 331.09L136.8 331.12Z" fill="#181615"/>
<path d="M125.73 381.54C129.19 384.57 130.85 388.83 133.14 392.64C134.43 394.8 134.66 397.96 132.5 398.91C128.24 400.77 127.71 404.26 126.92 407.89C125.81 409.11 126.2 410.67 126.03 412.09C124.84 422 122.83 431.73 119.22 441.06C117.97 444.28 116.57 448.54 112.68 448.39C108.41 448.23 106.26 444.18 104.73 440.37C104.43 439.62 104.37 438.76 104.26 437.94C103.29 431.05 101.78 424.33 99.3004 417.76C96.0404 409.11 96.2904 408.98 87.6404 412.8C85.9004 413.57 82.9104 413.94 83.3004 416.21C83.8604 419.48 81.5604 421.69 81.3304 424.65C81.0804 427.82 78.6404 430.59 75.4404 431.43C72.3004 432.25 70.9404 429.22 69.4404 427.12C68.0204 425.13 66.0304 423.62 65.2004 421.07C64.6604 419.43 62.8804 418.24 60.7204 418.85C52.4904 421.15 45.1304 419.51 38.6704 413.94C37.8704 413.25 37.0704 412.84 36.0704 412.68C35.5304 410.28 34.6104 408.05 33.5404 405.83C28.9504 396.34 32.0004 385.5 40.7404 379.67C42.0804 379.02 43.4204 378.37 44.7604 377.72C53.7004 374.32 62.9904 372.47 72.4904 372.02C89.3604 371.21 106.08 371.79 121.65 379.59C123.01 380.25 124.36 380.9 125.72 381.56L125.73 381.54Z" fill="#FFBB3C"/>
<path d="M169.45 318.5C175.06 304.98 179.22 291.04 181.78 276.62C185.47 255.93 186.47 235.15 184.92 214.14C183.05 188.84 177.62 164.47 167.46 141.23C164.56 134.59 160.86 128.29 157.53 121.83C159.08 119.87 161.15 120.49 162.95 121.05C167.9 122.6 172.77 124.38 177.67 126.07C181.34 126.86 183.42 129.25 185.15 132.53C196.99 154.95 203.24 178.95 205.78 204.05C207.48 220.79 208.2 237.51 206.82 254.33C205.7 267.92 203.78 281.37 199.48 294.28C197.95 298.87 196.42 303.47 194.98 308.1C193.94 311.14 191.02 311.9 188.6 313.09C183.88 315.39 179.05 317.48 174.19 319.5C172.54 320.19 170.41 321.71 169.46 318.5H169.45Z" fill="#FFBB3C"/>
<path d="M36.0903 412.67C37.0803 412.83 37.8803 413.24 38.6903 413.93C45.1403 419.5 52.5103 421.14 60.7403 418.84C62.9003 418.23 64.6803 419.42 65.2203 421.06C66.0503 423.61 68.0403 425.11 69.4603 427.11C70.9503 429.21 72.3203 432.24 75.4603 431.42C78.6603 430.59 81.1003 427.81 81.3503 424.64C81.5803 421.67 83.8803 419.46 83.3203 416.2C82.9303 413.94 85.9203 413.56 87.6603 412.79C96.3103 408.97 96.0603 409.1 99.3203 417.75C101.79 424.32 103.3 431.04 104.28 437.93C104.4 438.75 104.45 439.61 104.75 440.36C106.28 444.17 108.43 448.22 112.7 448.38C116.59 448.53 117.99 444.27 119.24 441.05C122.84 431.72 124.86 421.99 126.05 412.08C126.22 410.66 125.83 409.1 126.94 407.88C126.92 410.23 126.91 412.57 126.89 414.91C126.32 416.66 126.13 418.42 126.81 420.19C125.99 426.77 127.4 433.43 125.73 440.01C121.68 455.98 107.4 467.61 91.0203 467.58C82.5603 467.57 74.0303 468.54 65.6403 466.86C48.3203 463.4 36.0503 448.28 36.0703 430.63C36.0703 424.64 36.0903 418.65 36.1103 412.66L36.0903 412.67Z" fill="#925F47"/>
<path d="M219.821 291.68C226.511 267.13 228.771 242.09 227.451 216.77C226.141 191.69 221.221 167.28 212.011 143.84C212.051 143.93 217.321 145.08 217.901 145.37C223.061 147.86 226.521 153.08 231.351 156.2C232.681 157.06 234.121 157.89 234.971 159.23C236.911 162.31 237.271 168.64 238.151 172.21C239.491 177.69 240.621 183.22 241.551 188.79C243.361 199.71 244.391 210.75 244.751 221.81C245.281 238.26 244.541 254.65 242.771 271C236.581 278.19 230.001 284.97 222.391 290.69C221.621 291.27 221.001 292.15 219.831 291.67L219.821 291.68Z" fill="#FFBB3C"/>
<path d="M242.76 271.01C244.53 254.66 245.27 238.27 244.74 221.82C244.12 202.54 241.48 183.57 236.24 164.98C235.93 163.89 235.93 162.72 235.79 161.58C265.58 188.64 273.88 224.11 250.98 259.96C248.51 263.83 246.02 267.71 242.76 271.01Z" fill="#181615"/>
<path d="M73.7404 124.37C73.3204 126.81 71.5204 126.43 69.8404 126.29C61.0704 122.65 53.4404 117.13 46.1404 111.23C34.2604 101.63 24.4304 90.29 18.1404 76.19C7.32036 51.93 14.4904 29.29 37.3204 15.5C57.6704 3.21 78.7804 5.5 97.2104 22.93C115.73 40.43 126.48 62.23 130.96 87.3C132.73 97.22 133.37 107 131.22 116.88C130.02 116.72 128.81 116.57 127.61 116.41C129.94 106.68 129.45 96.87 127.56 87.22C122.65 62.16 111.89 40.15 92.2304 23.27C77.6004 10.7 60.3904 6.71 43.2604 15.65C19.4004 28.11 9.00036 47.62 21.2604 75.22C31.7104 98.73 50.6304 113.97 73.7404 124.38V124.37Z" fill="#181615"/>
<path d="M44.77 377.7C43.43 378.35 42.09 379 40.75 379.65C41.26 361.05 56.66 344.19 76.58 341.05C80.05 340.5 81.86 339.39 83.07 336.31C84.09 333.71 85.57 331.3 86.84 328.8C90.79 329.92 95.17 329.07 98.86 331.38C97.47 338.65 98.47 343.44 106.5 347.67C119.33 354.43 123.7 367.72 125.72 381.54C124.37 380.88 123.01 380.23 121.66 379.57C119.92 367.18 114.28 357.17 103.67 350.22C99.5433 347.513 95.8867 348.01 92.7 351.71C91.95 352.57 91.03 353.29 90.13 354.02C87.71 355.99 85.14 356.32 82.32 354.82C79.46 353.3 78.12 350.89 78.79 347.86C79.57 344.36 78 344.5 75.5 345.04C58.66 348.72 47.68 360.36 44.75 377.7H44.77Z" fill="#181615"/>
<path d="M126.8 420.19C126.11 418.42 126.3 416.66 126.88 414.91C127.66 416.68 127.8 418.45 126.8 420.19Z" fill="#FFBB3C"/>
<path d="M14.9705 205.16C14.8105 202.38 17.0005 199.08 20.3005 197.22C23.7905 195.25 27.3405 195.29 30.6705 197.42C38.9205 202.7 38.8605 217.27 30.6405 222.7C25.7705 225.92 20.7305 225.33 16.9105 220.71C14.3005 217.55 12.4205 213.96 13.9805 209.59C15.6205 211.24 17.2405 212.93 19.7505 210.93C21.2605 209.72 21.3705 208.1 20.7305 206.58C19.5105 203.69 17.1905 204.43 14.9605 205.17L14.9705 205.16Z" fill="#181615"/>
<path d="M111.73 208.3C111.61 203.1 114.78 199.94 119.04 198.28C123.44 196.56 127.49 198.1 130.6 201.79C135.61 207.73 135.31 217.82 129.92 223.18C126.33 226.75 121.47 227.37 117.24 224.79C112.48 221.89 110.14 216.37 111.63 211.53C112.78 214.54 114.84 214.55 117.06 212.92C118.48 211.88 119.23 210.43 117.91 208.65C115.97 206.02 113.92 206.14 111.73 208.29V208.3Z" fill="#181615"/>
<path d="M71.18 243.71C66.27 243.84 60.52 236.42 61.79 231.67C62.09 230.55 62.68 229.98 63.81 229.87C65.42 229.72 65.52 230.65 65.77 231.97C66.37 235.12 66.25 239.48 70.54 239.61C75.09 239.75 76.06 235.59 76.69 231.91C76.92 230.55 77.36 229.7 78.78 229.67C79.92 229.65 80.5 230.18 80.7 231.42C81.47 236.26 75.85 243.59 71.17 243.72L71.18 243.71Z" fill="#181615"/>
<path d="M14.9702 205.16C17.2002 204.42 19.5202 203.68 20.7402 206.57C21.3802 208.09 21.2602 209.72 19.7602 210.92C17.2502 212.93 15.6402 211.23 13.9902 209.58C14.3202 208.1 14.6402 206.63 14.9702 205.15V205.16Z" fill="white"/>
<path d="M111.73 208.3C113.92 206.15 115.96 206.02 117.91 208.66C119.23 210.44 118.48 211.9 117.06 212.93C114.84 214.55 112.79 214.55 111.63 211.54C111.66 210.46 111.7 209.38 111.73 208.3Z" fill="white"/>
<path d="M130.43 248.31C128.36 248.12 125.65 247.6 123.54 245.43C121.28 243.11 121.52 240.57 123.2 238.23C126.26 233.97 133.94 231.96 138.43 234.2C140.99 235.48 143.43 237.11 142.69 240.62C141.81 244.85 136.45 248.39 130.42 248.3L130.43 248.31Z" fill="#FF606C"/>
<path d="M18.6498 248.4C14.8698 248.2 11.0498 248.01 8.48979 244.51C5.6698 240.65 7.1198 235.85 11.7198 234.72C14.7498 233.98 17.9598 233.87 21.0098 234.97C24.8798 236.37 27.9098 238.5 26.9498 243.3C26.0298 247.87 22.7098 248.76 18.6498 248.4Z" fill="#FF606C"/>
</g>
<defs>
<clipPath id="clip0_280_18">
<rect width="264.11" height="467.85" fill="white"/>
</clipPath>
</defs>
</svg>
