<svg width="642" height="335" viewBox="0 0 642 335" fill="none" xmlns="http://www.w3.org/2000/svg">
<path d="M305.267 154.247C301.266 149.957 300.664 144.688 300.285 139.484C299.374 127.013 302.475 115.506 309.581 105.226C311.164 102.929 313.597 101.23 315.569 99.1909C315.989 98.7548 316.444 97.9789 316.343 97.4717C313.157 81.5268 320.996 65.592 335.826 59.207C340.165 57.3407 343.332 54.7998 346.316 51.2396C355.703 40.0417 367.983 33.1038 381.821 29.0567C406.169 21.9363 430.492 21.703 454.471 30.7151C468.385 35.9439 480.205 44.2663 489.441 56.0779C489.795 56.5343 490.108 57.0262 490.685 57.8529C441.346 70.6991 392.331 68.9798 343.321 57.1835L343.119 57.9695C343.868 58.3043 344.586 58.7506 345.365 58.9534C359.977 62.7621 374.811 65.4855 389.853 66.5962C402.695 67.5395 415.607 68.1532 428.474 67.996C448.827 67.7424 468.942 65.0595 488.621 59.6533C491.019 58.994 493.128 59.1816 495.379 59.8764C509.768 64.3343 517.805 74.5839 521.047 88.8298C522.043 93.2065 521.907 97.8571 522.053 102.391C522.099 103.76 522.392 104.298 523.576 105.054C526.105 106.671 528.876 108.335 530.616 110.678C538.759 121.612 542.128 133.966 540.484 147.599C540.454 147.852 540.484 148.141 540.358 148.344C537.864 152.513 539.862 155.921 541.556 159.867C547.914 174.645 546.912 189.135 538.4 202.924C537.616 204.192 536.478 205.272 535.371 206.302C534.334 207.265 533.13 208.046 532.012 208.898C537.94 228.561 522.524 254.917 503.066 262.378C502.434 262.621 501.686 263.118 501.418 263.696C493.447 280.762 479.669 291.265 462.705 298.112C446.647 304.588 429.825 306.449 412.664 306.155C397.288 305.891 382.271 303.726 368.13 297.331C354.641 291.235 343.691 282.253 338.001 268.164C336.372 264.143 334.111 261.313 330.768 258.696C321.654 251.56 314.765 242.796 312.56 230.995C311.457 225.087 311.614 219.249 312.99 213.402C313.177 212.611 312.949 211.246 312.398 210.831C302.505 203.32 299.121 192.766 298.16 180.98C297.366 171.268 299.486 162.362 305.267 154.242V154.247ZM534.43 156.54C534.349 156.215 534.263 155.891 534.182 155.561C533.803 155.586 533.388 155.526 533.044 155.652C517.496 161.403 501.352 164.715 485.061 167.444C483.427 167.717 482.643 167.297 481.611 165.927C478.794 162.169 475.972 158.29 472.517 155.16C465.811 149.075 457.83 145.611 448.584 146.082C437.948 146.63 430.103 152.219 424.585 160.901C413.675 178.074 413.372 196.108 421.889 214.244C426.193 223.408 433.81 229.119 443.622 231.801C459.57 236.163 472.791 230.757 480.974 216.348C485.986 207.524 487.868 197.934 487.499 187.846C487.266 181.477 486.062 175.31 483.508 169.138C500.927 166.11 518.098 162.945 534.415 156.545L534.43 156.54ZM320.03 101.656C319.879 101.904 319.727 102.158 319.575 102.406C320.991 103.319 322.337 104.389 323.839 105.12C333.084 109.613 342.983 111.991 353.012 113.863C369.521 116.941 386.206 118.377 402.968 119.081C431.898 120.299 460.753 119.969 489.37 114.857C498.909 113.153 508.327 110.962 517.243 107.011C518.108 106.626 518.857 105.972 519.661 105.444C519.535 105.221 519.413 104.998 519.287 104.775C518.7 104.952 518.103 105.104 517.527 105.317C513.981 106.636 510.506 108.168 506.895 109.258C488.46 114.811 469.452 116.86 450.344 117.758C419.476 119.203 388.68 118.224 358.121 113.234C345.243 111.129 332.432 108.543 320.936 101.798C320.688 101.651 320.329 101.696 320.025 101.651L320.03 101.656ZM337.768 263.554C355.081 270 373.011 273.418 391.264 275.361C409.503 277.303 427.746 277.227 446.01 275.64C463.757 274.098 496.643 266.617 499.455 262.758C445.286 280.336 391.568 279.18 337.763 263.554H337.768ZM400.722 173.022C368.782 171.202 337.217 167.51 307.012 154.785C311.215 162.758 387.926 177.632 400.722 173.022ZM407.13 225.092C391.77 223.895 376.374 223.017 361.054 221.415C345.688 219.807 330.722 216.009 316.05 211.003C315.974 211.439 315.893 211.87 315.817 212.306C345.385 222.551 375.934 226.04 407.135 225.092H407.13ZM490.427 217.063C494.013 218.418 526.535 211.317 528.33 208.974C515.514 211.708 502.97 214.386 490.427 217.063Z" fill="#FFBB3C"/>
<path d="M495.622 57.4617C489.715 48.4446 481.633 41.7755 472.599 36.1765C462.782 30.0957 451.994 26.4595 440.735 24.2888C432.319 22.666 423.751 22.3617 415.204 22.7522C399.949 23.447 385.186 26.424 371.469 33.4075C361.768 38.3471 353.155 44.7474 346.949 53.9319C345.791 55.6411 344.046 56.0721 342.362 56.6858C329.97 61.2045 322.763 70.2521 319.627 82.8245C318.514 87.2773 317.978 91.7706 319.566 96.2742C319.738 96.7661 319.905 97.5116 319.116 98.0543C312.146 102.877 308.864 110.236 306.279 117.838C303.073 127.261 302.37 136.943 304.924 146.726C305.597 149.312 306.8 151.61 308.211 153.846C296.088 170.567 300.66 200.677 316.658 211.19C315.985 214.755 315.019 218.326 315.055 222.038C315.151 232.059 318.15 241.061 324.417 248.917C328.331 253.831 332.954 257.995 338.103 261.55C339.039 262.194 339.534 262.884 339.843 263.878C344.137 277.526 353.362 286.994 365.385 294.044C373.254 298.659 381.787 301.529 390.668 303.441C396.677 304.734 402.827 305.079 408.856 306.088C415.128 307.138 421.425 307.103 427.57 306.509C432.78 306.007 438.065 305.45 443.29 304.552C451.514 303.132 459.55 301.194 467.294 298.101C483.201 291.751 496.174 281.745 504.58 266.586C506.122 263.802 507.797 262.357 510.497 260.992C520.021 256.185 527.001 248.664 532.044 239.286C535.832 232.237 538.088 224.766 538.078 216.718C538.078 214.588 537.688 212.463 537.157 210.363C536.99 209.699 536.661 208.725 537.602 208.086C543.833 203.877 546.994 197.532 548.638 190.574C550.854 181.207 551.248 171.744 547.763 162.437C546.554 159.212 545.118 156.154 543.15 153.309C546.099 148.065 546.145 142.263 545.593 136.598C544.906 129.523 542.857 122.697 539.62 116.307C536.985 111.113 533.637 106.544 528.24 103.892C527.112 103.339 526.804 102.781 526.9 101.341C527.593 91.0606 525.084 81.5414 519.379 72.9553C513.871 64.6633 505.875 60.0127 496.376 57.7559C494.368 57.2792 492.426 58.329 490.595 58.8463C481.284 61.4733 471.79 62.9694 462.246 64.359C446.967 66.5854 431.606 67.1534 416.215 66.7883C409.215 66.6209 402.21 66.0732 395.215 65.419C386.056 64.5619 376.957 63.3396 367.919 61.732C361.359 60.5604 354.794 59.323 348.436 57.2234" stroke="black" stroke-width="2.5" stroke-linecap="round" stroke-linejoin="round"/>
<path d="M324.163 101.584C332.048 106.427 340.803 108.923 349.71 110.946C357.802 112.787 365.986 114.05 374.225 115.095C385.241 116.489 396.292 117.22 407.364 117.813C418.991 118.437 430.629 118.498 442.262 118.269C454.775 118.021 467.258 117.235 479.7 115.597C491.439 114.05 503.052 112.042 514.326 108.395C517.441 107.386 520.41 105.9 523.445 104.632" stroke="black" stroke-width="2.5" stroke-linecap="round" stroke-linejoin="round"/>
<path d="M503.209 263.112C499.835 263.32 496.78 264.801 493.629 265.755C482.017 269.274 470.197 271.622 458.194 273.286C445.348 275.071 432.445 275.73 419.497 275.502C410.879 275.35 402.286 274.782 393.693 273.834C378.6 272.17 363.776 269.335 349.184 265.171C346.746 264.477 344.44 263.285 341.86 263.112" stroke="black" stroke-width="2.5" stroke-linecap="round" stroke-linejoin="round"/>
<path d="M464.011 148.496C451.999 142.521 439.02 148.369 431.864 157.092C425.354 165.029 421.819 174.122 421.065 184.25C420.266 195.022 421.819 205.459 427.377 214.907C432.612 223.808 440.462 229.164 450.603 231.187C453.486 231.76 456.338 231.415 459.206 231.486C462.084 231.552 464.84 231.39 467.556 230.406C474.84 227.764 480.069 222.723 483.984 216.196C488.703 208.325 490.807 199.642 490.989 190.589C491.126 183.844 490.079 177.206 487.58 170.795C483.726 160.896 476.595 154.227 467.551 149.262C466.53 148.699 465.442 148.384 464.264 148.501" stroke="black" stroke-width="2.5" stroke-linecap="round" stroke-linejoin="round"/>
<path d="M311.771 154.582C314.371 156.945 317.775 157.711 320.906 158.806C331.522 162.529 342.412 165.257 353.488 167.316C362.638 169.015 371.833 170.349 381.073 171.236C388.877 171.982 396.722 172.611 404.582 172.585" stroke="black" stroke-width="2.5" stroke-linecap="round" stroke-linejoin="round"/>
<path d="M320.117 211.129C325.342 212.737 330.516 214.563 335.811 215.896C344.233 218.016 352.72 219.842 361.338 221.049C367.817 221.957 374.286 222.855 380.816 223.306C384.103 223.534 387.386 223.945 390.678 224.031C397.506 224.209 404.334 224.229 411.162 224.315" stroke="black" stroke-width="2.5" stroke-linecap="round" stroke-linejoin="round"/>
<path d="M464.011 148.749C464.178 149.17 464.224 149.759 464.537 149.992C473.262 156.529 476.554 165.998 478.39 176.141C480.191 186.081 480.338 196.102 478.39 206.047C476.711 214.659 473.231 222.317 465.797 227.627C464.087 228.849 461.801 229.087 460.471 230.903" stroke="black" stroke-width="2.5" stroke-linecap="round" stroke-linejoin="round"/>
<path d="M537.602 155.596C524.144 160.576 510.24 163.802 496.139 166.292C493.18 166.814 490.145 166.992 487.277 168.021" stroke="black" stroke-width="2.5" stroke-linecap="round" stroke-linejoin="round"/>
<path d="M531.785 208.34C529.489 210.176 526.581 210.166 523.935 210.825C514.26 213.249 504.493 215.288 494.61 216.708" stroke="black" stroke-width="2.5" stroke-linecap="round" stroke-linejoin="round"/>
<path d="M427.595 7C427.762 9.19597 427.817 11.4122 428.131 13.5879C428.546 16.4635 429.314 19.2376 431.368 21.4742C431.616 21.7429 431.56 22.3008 431.641 22.7217" stroke="black" stroke-width="2.5" stroke-linecap="round" stroke-linejoin="round"/>
<path d="M416.974 7.50715C417.07 13.0605 415.199 17.9444 411.916 22.3414" stroke="black" stroke-width="2.5" stroke-linecap="round" stroke-linejoin="round"/>
<path d="M218.266 201.137L218.194 201.082L218.272 201.126C218.543 201.16 218.638 201.004 218.66 200.766C219.564 199.778 220.468 198.791 221.372 197.809C221.66 197.87 221.799 197.742 221.804 197.459L221.793 197.47C222.076 197.581 222.242 197.426 222.425 197.226C224.832 194.614 226.79 191.651 228.864 188.783C229.119 188.434 229.39 188.012 228.891 187.613C230.405 187.186 230.599 185.671 231.304 184.601C231.653 184.073 231.803 183.918 232.391 184.351C238.857 189.111 246.243 191.235 254.146 191.673C261.067 192.062 267.805 191.108 273.999 187.812C281.236 183.963 285.062 178.088 284.181 169.639C283.754 165.534 282.184 161.856 279.916 158.45C279.938 156.486 278.729 154.988 277.853 153.418C275.324 148.87 271.448 145.968 266.33 144.97C259.98 143.727 254.113 145.48 248.451 148.198C244.89 149.907 241.713 152.204 238.657 154.689C238.679 150.828 238.141 147.017 237.099 143.328C235.008 135.961 231.37 129.515 225.525 124.367C220.872 120.262 215.493 117.499 209.726 115.541C205.644 114.154 201.374 113.383 197.004 113.083C190.061 112.612 183.606 114.176 177.578 117.382C171.783 120.461 167.241 125.071 163.248 130.247C162.095 131.739 161.38 133.498 160.132 134.912C157.387 128.316 153.416 122.641 147.782 118.165C141.438 113.128 133.297 111.885 126.298 116.417C124.707 117.449 122.921 118.326 121.945 120.112C118.784 121.798 116.128 124.078 113.959 126.924C110.931 130.902 109.395 135.306 110.222 140.354C110.887 144.409 112.723 147.949 115.457 150.933C124.668 161.007 136.203 165.59 149.778 165.029C151.253 164.968 151.558 165.429 151.442 166.66C151.353 167.747 151.47 168.829 151.486 169.911C151.514 172.435 152.296 174.887 152.157 177.422C151.747 177.589 151.93 177.905 151.985 178.171C152.69 181.605 153.566 184.989 154.692 188.312C155.002 189.221 155.413 190.015 156.206 190.575C156.167 191.202 156.455 191.729 156.694 192.284C157.986 195.313 159.533 198.214 161.185 201.054C162.078 202.979 163.581 204.51 164.751 206.296C162.439 207.095 160.187 207.611 158.235 208.865C157.065 209.619 156.261 210.557 156.671 212.088C157.043 213.447 158.202 214.312 159.849 214.285C162.938 214.24 165.378 212.743 167.43 210.59C168.079 209.913 168.361 209.941 169.021 210.535C171.977 213.197 175.332 215.217 179.17 216.365C184.438 217.94 189.712 217.719 194.958 216.276C195.879 216.021 196.161 216.115 196.311 217.081C196.511 218.368 197.11 219.549 197.825 220.631C198.995 222.395 200.309 224.015 202.511 224.581C203.726 224.891 204.663 224.42 205.456 223.582C206.249 222.745 206.171 221.757 205.761 220.792C205.223 219.533 204.369 218.484 203.393 217.547C202.356 216.554 201.252 215.627 200.038 214.551C201.042 214.091 201.657 213.869 202.206 213.541C202.744 213.22 203.482 213.186 203.798 212.515C206.803 210.762 209.748 208.909 212.46 206.724C212.831 206.424 213.353 206.208 213.258 205.575C214.972 204.388 216.403 202.879 217.917 201.47C218.15 201.481 218.299 201.404 218.261 201.137H218.266ZM306.202 316.291C306.951 316.335 307.716 316.18 308.016 315.497C308.886 313.522 306.751 312.818 306.147 311.453C305.853 310.793 304.91 310.427 304.361 310.782C303.23 311.514 302.464 310.86 301.622 310.405C300.967 310.05 300.396 309.523 299.719 309.229C298.893 308.874 298.034 308.907 297.479 309.789C297.03 310.505 296.841 311.231 297.462 311.991C298.533 313.301 298.516 313.312 296.858 313.994C296.719 314.049 296.586 314.127 296.453 314.183C295.289 314.649 295.022 315.608 295.399 316.635C295.804 317.733 296.78 318.021 297.873 317.639C298.621 317.378 299.353 317.045 300.069 316.707C301.81 315.88 303.518 314.82 305.47 316.202C305.648 316.329 305.958 316.268 306.202 316.291ZM171.711 230.211C171.711 230.81 171.711 231.41 171.711 232.009C171.711 232.608 171.711 233.207 171.711 233.806C171.722 235.337 172.338 236.108 173.574 236.153C174.75 236.191 175.576 235.376 175.56 233.878C175.532 231.193 175.765 228.514 175.349 225.823C175.166 224.647 174.733 224.104 173.563 224.154C172.371 224.209 171.728 224.814 171.717 226.017C171.7 227.415 171.717 228.808 171.717 230.206L171.711 230.211ZM354.654 302.539C354.61 301.873 354.332 301.268 353.633 301.08C352.874 300.874 352.103 300.736 351.421 301.435C349.652 303.254 347.75 304.918 345.665 306.377C344.655 307.082 344.411 308.091 345.021 309.112C345.698 310.238 346.718 310.161 347.739 309.489C350.034 307.981 352.059 306.15 353.966 304.181C354.399 303.737 354.659 303.21 354.654 302.539ZM188.198 282.285C188.253 281.741 187.982 281.309 187.743 280.87C186.573 278.729 185.248 276.671 184.238 274.435C183.778 273.42 183.074 272.782 181.876 273.243C180.634 273.725 180.456 274.674 180.878 275.811C181.87 278.479 183.44 280.848 184.865 283.289C185.32 284.066 186.213 284.393 187.1 284.038C187.826 283.744 188.303 283.145 188.198 282.279V282.285ZM291.102 281.769C290.353 281.702 289.737 282.074 289.161 282.446C286.599 284.077 285.107 286.335 284.674 289.424C284.475 290.872 285.035 291.577 286.122 291.887C287.32 292.231 288.107 291.277 288.235 290.284C288.54 287.866 289.815 286.318 291.884 285.203C292.665 284.781 293.076 283.977 292.738 283.034C292.471 282.296 292.017 281.714 291.102 281.775V281.769ZM312.147 310.283C312.297 310.272 312.469 310.299 312.591 310.233C315.574 308.702 318.308 306.832 320.465 304.236C321.103 303.471 320.66 302.711 320.083 302.1C319.428 301.412 318.619 301.401 317.926 301.962C315.674 303.759 313.423 305.556 310.994 307.11C310.334 307.531 310.09 308.28 310.445 309.096C310.772 309.844 311.249 310.355 312.147 310.283ZM281.175 323.153C281.308 323.131 281.458 323.125 281.602 323.081C284.364 322.254 287.131 321.444 289.882 320.579C290.985 320.229 291.396 319.308 290.969 318.326C290.58 317.444 289.976 316.69 288.634 317.106C286.077 317.894 283.587 318.926 280.914 319.369C279.894 319.541 279.156 320.407 279.434 321.611C279.633 322.47 280.094 323.192 281.181 323.153H281.175ZM209.027 308.774C209.798 308.846 210.264 308.28 210.541 307.537C210.918 306.516 210.38 305.817 209.621 305.24C207.685 303.77 205.55 302.577 203.798 300.852C202.683 299.759 201.618 299.793 200.836 300.78C200.126 301.679 200.365 302.955 201.413 303.781C202.816 304.891 204.191 306.039 205.644 307.076C206.637 307.786 207.524 308.752 209.033 308.774H209.027ZM320.465 282.951C320.41 282.063 319.878 281.336 318.874 281.225C315.53 280.854 312.458 281.625 309.751 283.666C308.825 284.365 308.559 285.319 309.297 286.257C309.984 287.139 310.849 287.255 311.914 286.617C313.96 285.391 316.04 284.238 318.624 284.953C319.584 285.22 320.471 284.199 320.465 282.951ZM297.385 283.572C297.507 284.055 297.473 284.781 298.056 285.064C300.59 286.301 302.697 288.038 304.511 290.19C305.027 290.806 305.875 291.066 306.635 290.351C307.378 289.652 307.86 288.897 307.173 287.877C305.304 285.109 302.792 283.145 299.708 281.913C298.599 281.469 297.379 282.357 297.39 283.572H297.385ZM239.611 321.672C240.615 321.594 241.313 321.133 241.496 320.202C241.702 319.17 241.164 318.437 240.193 318.149C237.443 317.328 234.67 316.574 231.914 315.78C230.86 315.475 230.211 316.074 229.956 316.906C229.668 317.844 229.817 318.876 230.943 319.247C232.912 319.902 234.914 320.479 236.91 321.05C237.814 321.311 238.74 321.472 239.611 321.672ZM288.34 296.453C286.615 296.42 285.917 297.79 286.787 299.526C287.974 301.889 289.438 304.086 291.063 306.172C291.839 307.165 292.837 307.27 293.847 306.666C294.673 306.167 294.801 304.702 294.063 303.87C292.36 301.951 291.063 299.781 289.931 297.496C289.593 296.808 289.111 296.37 288.34 296.453ZM254.867 324.368C257.124 324.401 257.939 323.924 258.033 322.77C258.122 321.716 257.545 320.978 256.547 320.839C253.791 320.457 251.024 320.202 248.279 319.736C247.391 319.586 246.232 319.797 246.083 321.2C245.938 322.52 246.571 323.197 247.785 323.375C250.336 323.757 252.898 324.096 254.872 324.368H254.867ZM174.955 259.269C175.465 262.37 176.558 265.304 177.639 268.228C177.928 269.004 178.865 269.376 179.824 268.993C180.739 268.627 181.238 267.928 180.967 266.991C180.162 264.178 179.297 261.382 178.388 258.597C178.055 257.577 177.135 257.36 176.181 257.494C175.171 257.632 174.95 258.376 174.955 259.274V259.269ZM216.12 309.362C215.238 309.312 214.65 309.8 214.384 310.532C214.096 311.331 214.251 312.108 215.066 312.618C217.567 314.183 220.285 315.303 223.002 316.402C224.061 316.829 224.965 316.324 225.298 315.348C225.625 314.388 225.525 313.411 224.261 312.923C222.647 312.296 221.128 311.414 219.497 310.832C218.333 310.41 217.423 309.428 216.114 309.362H216.12ZM340.873 312.269C340.862 310.915 339.98 310.028 338.916 310.377C336.087 311.309 333.292 312.341 330.486 313.339C329.294 313.761 329.25 314.743 329.56 315.675C329.86 316.557 330.703 317.045 331.606 316.768C334.451 315.908 337.307 315.07 339.986 313.728C340.662 313.389 340.956 312.912 340.873 312.269ZM196.2 297.668C197.747 297.696 198.64 296.159 197.692 294.822C196.034 292.487 194.187 290.284 192.352 288.082C191.703 287.305 190.738 287.167 189.95 287.866C189.157 288.576 189.063 289.663 189.651 290.456C191.326 292.731 192.923 295.077 194.947 297.074C195.318 297.44 195.69 297.74 196.206 297.668H196.2ZM267.921 324.956C269.219 325.105 270.894 324.839 272.568 324.678C273.916 324.551 274.936 323.807 274.831 322.814C274.681 321.466 273.777 321.039 272.513 321.05C269.879 321.072 267.267 321.533 264.627 321.361C263.357 321.278 262.753 322.088 262.725 323.164C262.697 324.234 263.446 324.878 264.533 324.939C265.525 324.994 266.524 324.95 267.916 324.95L267.921 324.956ZM326.743 292.714C326.893 291.183 326.549 289.73 326.116 288.298C325.778 287.183 325.007 286.568 323.854 286.928C322.722 287.278 322.323 288.287 322.673 289.336C323.443 291.643 323.177 293.846 322.257 296.015C321.758 297.191 322.24 298.073 323.205 298.467C324.253 298.894 325.318 298.578 325.723 297.313C326.205 295.81 326.981 294.362 326.743 292.714ZM173.89 240.946C172.909 240.896 172.321 241.367 172.282 242.51C172.188 245.506 172.704 248.44 173.192 251.369C173.38 252.506 174.201 253.022 175.227 252.878C176.286 252.728 176.891 251.88 176.774 250.826C176.452 247.974 176.014 245.139 175.637 242.294C175.51 241.317 174.933 240.929 173.89 240.946ZM315.092 314.488C313.766 314.377 312.946 314.915 312.774 316.146C312.646 317.084 313.118 317.877 314.066 318.038C317.221 318.559 320.399 318.576 323.554 318.044C324.758 317.838 324.791 316.851 324.641 315.936C324.503 315.076 323.931 314.399 323.011 314.526C320.332 314.909 317.665 314.854 315.092 314.488ZM355.841 295.715C355.841 296.825 356.528 297.624 357.482 297.646C358.647 297.668 360.15 295.715 359.989 294.195C359.878 293.152 359.257 292.492 358.064 292.537C356.75 292.592 355.83 293.862 355.841 295.715Z" fill="white"/>
<path d="M160.126 134.912C161.374 133.498 162.09 131.739 163.243 130.247C167.241 125.071 171.783 120.461 177.573 117.382C183.601 114.176 190.061 112.612 197.004 113.083C201.374 113.377 205.644 114.154 209.726 115.541C215.493 117.493 220.867 120.262 225.525 124.367C231.37 129.52 235.008 135.961 237.099 143.328C238.142 147.017 238.685 150.828 238.657 154.689C238.857 156.592 238.125 158.533 238.868 160.419C238.153 160.969 238.108 161.667 238.413 162.45C238.047 164.352 237.72 166.266 237.304 168.163C236.506 171.808 235.713 175.453 233.977 178.803C233.738 178.876 233.5 178.937 233.267 179.02C225.675 181.705 217.856 182.559 209.854 181.954C210.863 179.697 211.279 177.339 211.323 174.854C211.401 170.86 206.582 166.804 203.404 166.815C200.049 166.821 197.359 168.369 194.642 169.905C193.583 170.505 193.117 170.388 192.546 169.384C191.115 166.854 189.479 164.474 186.978 162.844C184.006 160.907 179.004 160.747 175.931 163.459C173.391 165.7 172.46 168.724 171.927 171.93C171.656 171.808 171.378 171.697 171.118 171.564C163.953 167.936 157.631 163.199 152.213 157.268C152.435 154.95 153.117 152.725 153.705 150.489C154.503 147.466 155.64 144.554 156.794 141.652C157.204 141.075 157.703 140.521 157.315 139.727C158.618 138.341 159.333 136.604 160.121 134.918L160.126 134.912ZM230.927 156.126C230.783 155.022 230.777 155.016 232.507 154.001C233.045 153.685 233.644 153.374 233.195 152.636C232.779 151.954 232.297 152.381 231.797 152.642C231.065 153.03 230.356 153.479 229.612 152.47C227.439 149.524 224.294 148.398 221.1 149.313C217.967 150.207 215.127 153.718 214.839 157.03C214.789 157.623 214.773 158.223 215.488 158.317C216.242 158.417 216.292 157.762 216.392 157.218C216.686 155.615 217.357 154.184 218.372 152.919C219.98 150.905 222.603 150.145 225.109 150.922C227.588 151.693 229.119 153.668 229.313 156.342C229.402 157.546 229.302 158.733 228.986 159.903C228.842 160.425 228.88 160.969 229.54 161.074C230.045 161.157 230.367 160.819 230.483 160.314C230.527 160.12 230.605 159.931 230.622 159.731C230.771 158.078 230.977 156.531 233.3 157.662C233.727 157.873 234.077 157.573 234.237 157.152C234.415 156.686 234.143 156.281 233.761 156.209C232.862 156.048 231.98 155.416 230.932 156.131L230.927 156.126ZM166.476 140.798C165.877 139.567 164.724 139.761 163.753 139.616C163.371 139.561 163.16 139.988 163.127 140.338C163.093 140.709 163.31 141.059 163.714 141.07C166.193 141.153 165.983 142.496 165.19 144.143C165.106 144.315 165.117 144.532 165.101 144.731C165.056 145.28 165.173 145.757 165.816 145.841C166.415 145.913 166.548 145.48 166.631 145.003C166.853 143.766 167.291 142.612 167.99 141.553C169.415 139.389 171.767 138.307 174.146 138.74C176.885 139.239 178.654 141.02 179.248 143.727C179.597 145.336 179.464 146.895 179.015 148.448C178.865 148.969 178.804 149.513 179.397 149.718C180.085 149.957 180.351 149.441 180.534 148.864C180.972 147.516 181.083 146.129 180.994 144.726C180.634 139.167 175.055 135.484 170.225 137.719C168.861 138.352 167.951 138.463 167.208 137.02C166.975 136.571 166.543 136.366 166.077 136.649C165.517 136.993 165.633 137.464 165.966 137.93C166.171 138.213 166.304 138.596 166.57 138.768C167.746 139.506 167.247 140.138 166.476 140.804V140.798ZM194.271 152.237C194.232 154.606 195.457 156.386 197.221 156.653C198.968 156.913 201.075 155.282 201.613 153.269C201.729 152.842 201.751 152.464 201.308 152.237C200.892 152.026 200.52 152.17 200.265 152.536C200.099 152.781 200.016 153.08 199.872 153.335C199.311 154.317 198.663 155.316 197.359 155.038C195.912 154.728 195.923 153.457 195.879 152.287C195.845 151.516 196.483 150.245 195.247 150.201C193.993 150.157 194.598 151.616 194.276 152.231L194.271 152.237Z" fill="#FFBB3C"/>
<path d="M221.915 168.413C221.187 168.095 220.267 167.575 219.77 166.501C219.238 165.353 219.64 164.418 220.541 163.73C222.182 162.479 225.221 162.63 226.573 164.014C227.344 164.804 228.028 165.712 227.323 166.955C226.478 168.455 224.092 169.159 221.913 168.408L221.915 168.413Z" fill="#FF606C"/>
<path d="M168.401 156.112C166.996 155.564 165.574 155.014 165.062 153.303C164.497 151.416 165.672 149.684 167.562 149.805C168.805 149.886 170.035 150.24 171.046 151.056C172.329 152.094 173.199 153.318 172.209 155.11C171.265 156.816 169.891 156.759 168.401 156.112Z" fill="#FF606C"/>
<path d="M156.211 190.575C155.418 190.015 155.008 189.221 154.697 188.312C153.566 184.989 152.695 181.605 151.991 178.171C151.935 177.91 151.758 177.589 152.163 177.422C159.799 184.473 168.794 189.111 178.582 192.35C180.29 193.732 181.554 195.54 182.969 197.182C184.771 199.279 186.734 199.573 189.229 198.902C191.403 198.319 193.361 197.21 195.518 196.622C195.657 196.677 195.79 196.755 195.934 196.783C204.241 198.158 212.56 198.574 220.9 197.093C221.272 197.027 221.815 196.6 221.793 197.47L221.804 197.459C221.549 197.443 221.449 197.609 221.372 197.809C220.468 198.796 219.564 199.784 218.66 200.766C218.449 200.799 218.31 200.91 218.272 201.126L218.194 201.082L218.266 201.137C218.15 201.248 218.039 201.359 217.922 201.47C216.403 202.879 214.978 204.388 213.264 205.575C212.82 205.559 212.371 205.52 211.928 205.536C198.446 206.03 185.436 203.722 172.837 198.974C166.992 196.771 161.529 193.815 156.211 190.575Z" fill="#181A28"/>
<path d="M156.211 190.575C161.529 193.815 166.992 196.777 172.837 198.974C185.442 203.717 198.446 206.03 211.927 205.536C212.371 205.52 212.82 205.559 213.264 205.575C213.358 206.208 212.837 206.424 212.465 206.724C209.748 208.909 206.809 210.762 203.803 212.515C194.475 212.199 185.464 210.207 176.591 207.461C171.256 205.814 166.193 203.512 161.196 201.054C159.544 198.208 157.997 195.313 156.704 192.284C156.472 191.734 156.178 191.202 156.216 190.575H156.211Z" fill="#FFBB3C"/>
<path d="M161.191 201.06C166.187 203.517 171.25 205.819 176.585 207.467C185.464 210.207 194.475 212.204 203.797 212.521C203.487 213.192 202.744 213.225 202.206 213.547C201.657 213.88 201.041 214.096 200.037 214.557C201.252 215.633 202.356 216.559 203.393 217.552C204.369 218.49 205.223 219.538 205.76 220.797C206.171 221.763 206.248 222.75 205.455 223.588C204.657 224.425 203.725 224.897 202.511 224.586C200.304 224.02 198.995 222.401 197.825 220.636C197.109 219.555 196.51 218.373 196.311 217.086C196.161 216.121 195.878 216.027 194.958 216.282C189.717 217.724 184.438 217.94 179.169 216.371C175.332 215.222 171.982 213.208 169.021 210.54C168.361 209.947 168.078 209.919 167.429 210.596C165.378 212.742 162.938 214.246 159.849 214.29C158.202 214.312 157.043 213.453 156.671 212.093C156.255 210.568 157.065 209.625 158.235 208.87C160.187 207.617 162.438 207.101 164.751 206.302C163.581 204.516 162.078 202.985 161.185 201.06H161.191Z" fill="#181A28"/>
<path d="M279.91 158.45C275.646 153.602 270.167 151.604 263.839 151.654C259.364 151.693 255.072 152.675 250.868 154.162C246.57 155.682 242.644 157.906 238.862 160.408C238.119 158.522 238.851 156.58 238.651 154.678C241.701 152.192 244.884 149.896 248.445 148.187C254.107 145.469 259.974 143.722 266.324 144.959C271.442 145.957 275.313 148.858 277.847 153.407C278.723 154.983 279.932 156.475 279.91 158.439V158.45Z" fill="#EF9CA4"/>
<path d="M157.321 139.716C154.659 135.245 151.658 131.035 147.838 127.468C143.551 123.462 138.793 120.295 132.937 119.041C129.149 118.231 125.511 118.78 121.945 120.117C122.921 118.331 124.707 117.455 126.299 116.423C133.297 111.885 141.438 113.128 147.777 118.159C153.411 122.636 157.382 128.311 160.127 134.907C159.334 136.593 158.624 138.329 157.321 139.716Z" fill="#EF9CA4"/>
<path d="M151.448 166.66C157.592 172.951 164.973 177.367 172.926 180.939C173.741 183.452 174.856 185.826 176.059 188.173C176.808 189.632 178.039 190.78 178.582 192.35C168.794 189.116 159.799 184.473 152.163 177.422C152.302 174.887 151.52 172.441 151.492 169.911C151.481 168.829 151.365 167.747 151.448 166.66Z" fill="#FFBB3C"/>
<path d="M204.985 189.055C212.776 189.793 220.507 189.466 228.148 187.668C228.387 187.613 228.642 187.635 228.886 187.618C229.391 188.018 229.113 188.434 228.858 188.789C226.784 191.657 224.827 194.619 222.42 197.232C222.242 197.426 222.076 197.587 221.788 197.476C221.81 196.6 221.261 197.032 220.895 197.099C212.554 198.58 204.236 198.164 195.929 196.788C195.784 196.766 195.651 196.683 195.513 196.627C197.498 195.224 199.6 193.992 201.48 192.433C202.739 191.391 203.404 189.754 204.985 189.061V189.055Z" fill="#FFBB3C"/>
<path d="M306.202 316.291C305.952 316.263 305.647 316.324 305.47 316.202C303.512 314.821 301.81 315.886 300.068 316.707C299.348 317.045 298.621 317.378 297.872 317.639C296.78 318.016 295.804 317.727 295.399 316.635C295.022 315.614 295.288 314.654 296.453 314.183C296.591 314.127 296.725 314.049 296.858 313.994C298.516 313.312 298.532 313.301 297.462 311.991C296.841 311.231 297.03 310.505 297.479 309.789C298.033 308.907 298.893 308.874 299.719 309.229C300.396 309.517 300.967 310.05 301.621 310.405C302.47 310.86 303.235 311.514 304.361 310.782C304.91 310.427 305.853 310.793 306.146 311.453C306.751 312.818 308.892 313.517 308.015 315.497C307.71 316.185 306.945 316.341 306.202 316.291Z" fill="#CED4DE"/>
<path d="M152.218 157.263C157.642 163.193 163.964 167.93 171.123 171.559C171.389 171.692 171.667 171.803 171.933 171.925C172.243 174.288 172.227 174.227 174.65 173.55C176.702 172.973 178.721 172.208 180.911 172.219C182.37 172.224 183.601 172.49 184.055 174.116C184.46 175.564 183.911 176.89 182.486 177.799C180.212 179.253 177.689 179.33 175.127 179.075C174.345 178.998 173.347 178.459 172.853 178.77C172.171 179.203 173.242 180.163 172.92 180.934C164.973 177.361 157.586 172.94 151.442 166.655C151.558 165.423 151.253 164.963 149.778 165.024C136.203 165.584 124.668 160.996 115.457 150.928C112.728 147.943 110.887 144.404 110.222 140.354C109.395 135.312 110.931 130.907 113.959 126.93C116.128 124.084 118.784 121.804 121.945 120.117C125.516 118.78 129.154 118.231 132.936 119.041C138.787 120.295 143.545 123.462 147.837 127.468C151.658 131.04 154.658 135.245 157.32 139.716C157.714 140.51 157.215 141.064 156.799 141.641C156.566 141.203 156.35 140.754 156.106 140.321C151.714 132.527 146.018 126.014 137.839 121.998C130.984 118.636 123.708 119.396 118.584 123.956C118.485 124.05 118.385 124.145 118.285 124.239L118.307 124.211C115.423 126.63 113.189 129.526 112.041 133.143C110.1 139.256 111.841 144.692 115.817 149.297C124.801 159.709 136.386 164.302 150.067 163.82C151.298 163.775 151.819 163.315 151.514 162.078C151.752 160.469 151.985 158.86 152.224 157.252L152.218 157.263Z" fill="#181A28" stroke="black"/>
<path d="M238.408 162.444C238.103 161.667 238.147 160.963 238.863 160.414C242.645 157.912 246.571 155.687 250.869 154.167C255.072 152.681 259.365 151.693 263.84 151.66C270.167 151.61 275.646 153.607 279.911 158.456C282.179 161.862 283.749 165.54 284.176 169.645C285.057 178.093 281.231 183.968 273.994 187.818C267.794 191.113 261.056 192.067 254.141 191.679C246.238 191.241 238.852 189.111 232.385 184.356C231.798 183.924 231.642 184.079 231.298 184.606C230.594 185.682 230.4 187.191 228.881 187.618C228.631 187.635 228.382 187.613 228.143 187.668C220.501 189.466 212.771 189.798 204.979 189.055C205.9 187.446 205.889 187.474 204.131 186.559C202.057 185.483 200.288 184.051 199.101 181.988C198.485 180.923 198.136 179.802 198.33 178.548C198.624 176.679 200.659 175.641 202.306 176.562C203.365 177.156 204.203 178.032 204.918 178.998C206.105 180.595 207.236 182.237 208.384 183.846C209.149 183.38 209.088 182.354 209.848 181.943C217.85 182.548 225.67 181.694 233.262 179.009C233.495 178.925 233.733 178.864 233.971 178.792C233.589 179.813 233.212 180.834 232.829 181.849C231.914 182.753 232.807 183.114 233.367 183.519C238.014 186.869 243.233 188.85 248.85 189.793C256.886 191.141 264.772 190.719 272.264 187.258C282.961 182.315 285.323 173.001 281.114 163.287C278.336 156.897 273.284 153.59 266.524 153.086C255.91 152.298 246.765 156.264 238.408 162.433V162.444Z" fill="#181A28" stroke="black"/>
<path d="M171.711 230.211C171.711 228.813 171.7 227.421 171.711 226.023C171.727 224.819 172.365 224.209 173.557 224.159C174.727 224.109 175.16 224.653 175.343 225.829C175.759 228.514 175.526 231.199 175.554 233.884C175.57 235.382 174.744 236.197 173.568 236.158C172.332 236.114 171.716 235.343 171.705 233.812C171.705 233.212 171.705 232.613 171.705 232.014C171.705 231.415 171.705 230.816 171.705 230.217L171.711 230.211Z" fill="#CED4DE"/>
<path d="M354.654 302.539C354.654 303.21 354.399 303.737 353.966 304.181C352.059 306.144 350.035 307.981 347.739 309.489C346.718 310.161 345.703 310.238 345.021 309.112C344.411 308.097 344.655 307.087 345.665 306.377C347.75 304.918 349.652 303.254 351.421 301.435C352.103 300.736 352.874 300.874 353.634 301.08C354.332 301.268 354.61 301.873 354.654 302.539Z" fill="#CED4DE"/>
<path d="M188.197 282.285C188.303 283.156 187.826 283.755 187.099 284.043C186.212 284.398 185.314 284.071 184.865 283.295C183.445 280.854 181.87 278.485 180.877 275.817C180.456 274.679 180.633 273.725 181.876 273.248C183.073 272.788 183.778 273.426 184.238 274.441C185.247 276.671 186.573 278.729 187.743 280.876C187.981 281.309 188.253 281.747 188.197 282.29V282.285Z" fill="#CED4DE"/>
<path d="M291.102 281.769C292.017 281.708 292.466 282.29 292.738 283.028C293.081 283.971 292.666 284.776 291.884 285.197C289.815 286.312 288.54 287.86 288.235 290.279C288.113 291.272 287.32 292.226 286.122 291.882C285.035 291.571 284.469 290.867 284.674 289.419C285.107 286.329 286.604 284.071 289.161 282.44C289.737 282.074 290.353 281.697 291.102 281.763V281.769Z" fill="#CED4DE"/>
<path d="M312.147 310.283C311.254 310.355 310.772 309.844 310.445 309.096C310.084 308.28 310.334 307.531 310.994 307.11C313.428 305.551 315.674 303.759 317.926 301.962C318.619 301.407 319.434 301.412 320.083 302.1C320.66 302.711 321.103 303.471 320.465 304.236C318.303 306.832 315.574 308.707 312.591 310.233C312.469 310.294 312.297 310.266 312.147 310.283Z" fill="#CED4DE"/>
<path d="M281.175 323.153C280.088 323.192 279.627 322.47 279.428 321.611C279.15 320.407 279.894 319.541 280.908 319.369C283.581 318.926 286.066 317.894 288.628 317.106C289.97 316.69 290.574 317.444 290.962 318.326C291.395 319.314 290.985 320.235 289.876 320.579C287.125 321.439 284.358 322.248 281.596 323.081C281.452 323.125 281.302 323.131 281.169 323.153H281.175Z" fill="#CED4DE"/>
<path d="M209.027 308.774C207.519 308.752 206.626 307.786 205.639 307.076C204.186 306.033 202.811 304.891 201.408 303.781C200.36 302.949 200.121 301.673 200.831 300.78C201.613 299.793 202.683 299.765 203.792 300.852C205.545 302.577 207.685 303.765 209.615 305.24C210.375 305.817 210.913 306.516 210.536 307.537C210.258 308.28 209.798 308.846 209.022 308.774H209.027Z" fill="#CED4DE"/>
<path d="M320.465 282.951C320.471 284.193 319.584 285.22 318.624 284.953C316.04 284.238 313.96 285.391 311.914 286.617C310.849 287.255 309.99 287.139 309.296 286.257C308.559 285.314 308.825 284.36 309.751 283.666C312.457 281.63 315.53 280.854 318.874 281.225C319.877 281.336 320.41 282.069 320.465 282.951Z" fill="#CED4DE"/>
<path d="M297.384 283.572C297.373 282.357 298.599 281.475 299.702 281.913C302.78 283.139 305.298 285.109 307.167 287.877C307.86 288.897 307.378 289.657 306.629 290.351C305.869 291.066 305.021 290.806 304.505 290.19C302.692 288.038 300.59 286.301 298.05 285.064C297.468 284.781 297.501 284.055 297.379 283.572H297.384Z" fill="#CED4DE"/>
<path d="M239.611 321.672C238.741 321.472 237.815 321.311 236.911 321.05C234.914 320.479 232.918 319.902 230.944 319.247C229.818 318.87 229.668 317.844 229.956 316.906C230.212 316.074 230.86 315.475 231.914 315.78C234.676 316.573 237.443 317.328 240.194 318.149C241.164 318.437 241.702 319.17 241.497 320.201C241.308 321.139 240.61 321.594 239.611 321.672Z" fill="#CED4DE"/>
<path d="M288.34 296.453C289.111 296.364 289.593 296.803 289.932 297.496C291.057 299.781 292.361 301.951 294.063 303.87C294.801 304.702 294.673 306.172 293.847 306.666C292.838 307.27 291.839 307.165 291.063 306.172C289.438 304.086 287.974 301.889 286.787 299.526C285.911 297.79 286.615 296.42 288.34 296.453Z" fill="#CED4DE"/>
<path d="M254.867 324.368C252.892 324.096 250.336 323.757 247.779 323.375C246.565 323.192 245.933 322.515 246.077 321.2C246.227 319.797 247.386 319.58 248.273 319.736C251.018 320.207 253.791 320.457 256.541 320.839C257.54 320.978 258.116 321.716 258.028 322.77C257.933 323.924 257.118 324.401 254.861 324.368H254.867Z" fill="#CED4DE"/>
<path d="M174.955 259.269C174.944 258.37 175.166 257.627 176.181 257.488C177.14 257.36 178.055 257.571 178.388 258.592C179.298 261.371 180.163 264.173 180.967 266.985C181.233 267.923 180.74 268.622 179.824 268.988C178.865 269.371 177.928 268.999 177.64 268.222C176.558 265.299 175.466 262.359 174.955 259.263V259.269Z" fill="#CED4DE"/>
<path d="M216.12 309.362C217.423 309.428 218.333 310.416 219.503 310.832C221.133 311.42 222.653 312.302 224.266 312.923C225.531 313.411 225.631 314.393 225.303 315.348C224.971 316.324 224.067 316.829 223.008 316.402C220.285 315.303 217.573 314.183 215.072 312.618C214.257 312.108 214.101 311.331 214.39 310.532C214.656 309.8 215.244 309.312 216.126 309.362H216.12Z" fill="#CED4DE"/>
<path d="M340.873 312.269C340.956 312.912 340.662 313.384 339.986 313.728C337.313 315.07 334.457 315.913 331.606 316.768C330.702 317.039 329.86 316.551 329.56 315.675C329.244 314.743 329.294 313.761 330.486 313.339C333.292 312.346 336.087 311.309 338.915 310.377C339.98 310.028 340.862 310.915 340.873 312.269Z" fill="#CED4DE"/>
<path d="M196.2 297.668C195.69 297.74 195.313 297.44 194.941 297.074C192.917 295.077 191.32 292.731 189.645 290.456C189.057 289.657 189.152 288.576 189.945 287.866C190.732 287.167 191.697 287.305 192.346 288.082C194.182 290.284 196.028 292.487 197.686 294.822C198.635 296.159 197.742 297.696 196.195 297.668H196.2Z" fill="#CED4DE"/>
<path d="M267.921 324.956C266.529 324.956 265.531 325 264.538 324.945C263.451 324.884 262.703 324.24 262.73 323.169C262.758 322.093 263.362 321.283 264.632 321.366C267.272 321.538 269.884 321.078 272.518 321.056C273.783 321.045 274.692 321.477 274.836 322.82C274.947 323.807 273.921 324.556 272.574 324.684C270.893 324.845 269.224 325.105 267.926 324.961L267.921 324.956Z" fill="#CED4DE"/>
<path d="M326.743 292.714C326.976 294.362 326.206 295.81 325.723 297.313C325.318 298.578 324.253 298.894 323.205 298.467C322.24 298.073 321.758 297.191 322.257 296.015C323.178 293.851 323.444 291.649 322.673 289.336C322.324 288.287 322.728 287.283 323.854 286.928C325.008 286.568 325.779 287.183 326.117 288.298C326.549 289.73 326.893 291.177 326.743 292.714Z" fill="#CED4DE"/>
<path d="M173.89 240.946C174.933 240.929 175.509 241.317 175.637 242.294C176.014 245.139 176.452 247.974 176.774 250.825C176.89 251.88 176.286 252.728 175.226 252.878C174.195 253.022 173.374 252.506 173.191 251.369C172.703 248.435 172.187 245.506 172.282 242.51C172.321 241.367 172.903 240.896 173.89 240.946Z" fill="#CED4DE"/>
<path d="M315.092 314.488C317.671 314.854 320.333 314.909 323.011 314.526C323.932 314.393 324.503 315.076 324.642 315.936C324.791 316.851 324.758 317.838 323.555 318.044C320.394 318.576 317.222 318.559 314.066 318.038C313.112 317.877 312.641 317.089 312.774 316.146C312.946 314.915 313.767 314.377 315.092 314.488Z" fill="#CED4DE"/>
<path d="M355.841 295.715C355.835 293.862 356.75 292.592 358.065 292.537C359.251 292.487 359.878 293.152 359.989 294.195C360.15 295.715 358.647 297.673 357.482 297.646C356.528 297.624 355.846 296.825 355.841 295.715Z" fill="#CED4DE"/>
<path d="M221.371 197.814C221.449 197.615 221.554 197.448 221.804 197.465C221.793 197.748 221.659 197.875 221.371 197.814Z" fill="#FFBB3C"/>
<path d="M218.271 201.132C218.31 200.915 218.449 200.804 218.66 200.771C218.637 201.004 218.543 201.165 218.271 201.132Z" fill="#FFBB3C"/>
<path d="M217.922 201.47C218.033 201.359 218.149 201.248 218.266 201.137C218.305 201.404 218.16 201.481 217.922 201.47Z" fill="#FFBB3C"/>
<path d="M232.834 181.86C233.217 180.839 233.594 179.824 233.976 178.803C235.707 175.453 236.505 171.803 237.304 168.163C237.72 166.272 238.047 164.358 238.413 162.45C246.77 156.281 255.915 152.309 266.529 153.102C273.289 153.607 278.347 156.913 281.119 163.304C280.886 163.548 280.914 163.853 280.92 164.153C281.019 168.624 279.134 172.263 276.134 175.392C270.71 181.033 263.739 183.541 256.264 184.856C252.587 185.505 248.861 185.632 245.112 185.233C240.825 184.772 236.677 183.907 232.834 181.871V181.86Z" fill="#EF9CA4"/>
<path d="M152.218 157.263C151.979 158.872 151.747 160.48 151.508 162.084C150.61 162.05 149.689 162.15 148.824 161.967C136.003 159.227 125.799 152.731 119.327 141.053C117.275 137.359 116.355 133.392 117.015 129.099C117.275 127.407 118.046 125.892 118.301 124.222L118.279 124.25C118.401 124.184 118.795 124.394 118.579 123.967C123.708 119.407 130.984 118.647 137.833 122.009C146.012 126.02 151.702 132.532 156.1 140.332C156.344 140.765 156.56 141.214 156.793 141.652C155.64 144.554 154.503 147.472 153.704 150.489C153.111 152.725 152.434 154.95 152.212 157.268L152.218 157.263Z" fill="#EF9CA4"/>
<path d="M204.984 189.055C203.404 189.748 202.738 191.385 201.479 192.428C199.599 193.987 197.498 195.218 195.512 196.622C193.355 197.21 191.398 198.319 189.224 198.902C186.723 199.573 184.76 199.279 182.963 197.182C181.549 195.54 180.284 193.732 178.576 192.35C178.033 190.78 176.802 189.632 176.053 188.173C174.85 185.826 173.735 183.452 172.92 180.939C173.241 180.168 172.171 179.203 172.853 178.776C173.347 178.465 174.345 179.003 175.127 179.081C177.694 179.33 180.212 179.253 182.486 177.805C183.911 176.895 184.46 175.569 184.055 174.121C183.601 172.496 182.375 172.23 180.911 172.224C178.72 172.213 176.702 172.979 174.65 173.556C172.227 174.232 172.243 174.293 171.933 171.93C172.459 168.724 173.391 165.7 175.937 163.459C179.009 160.747 184.005 160.913 186.983 162.844C189.484 164.469 191.12 166.854 192.551 169.384C193.117 170.388 193.588 170.505 194.647 169.905C197.365 168.369 200.054 166.827 203.409 166.815C206.587 166.81 211.406 170.86 211.328 174.854C211.284 177.339 210.868 179.697 209.859 181.954C209.105 182.365 209.16 183.391 208.395 183.857C207.247 182.243 206.116 180.606 204.929 179.009C204.213 178.043 203.376 177.167 202.317 176.573C200.67 175.647 198.629 176.684 198.341 178.559C198.147 179.808 198.496 180.928 199.111 181.999C200.298 184.062 202.067 185.494 204.141 186.57C205.899 187.48 205.916 187.457 204.99 189.066L204.984 189.055Z" fill="#F26722"/>
<path d="M230.927 156.126C231.975 155.416 232.857 156.042 233.755 156.203C234.143 156.275 234.409 156.68 234.232 157.146C234.077 157.568 233.722 157.867 233.295 157.657C230.971 156.519 230.766 158.073 230.616 159.726C230.6 159.92 230.522 160.114 230.478 160.308C230.361 160.808 230.039 161.146 229.535 161.068C228.88 160.963 228.842 160.419 228.98 159.898C229.296 158.727 229.396 157.546 229.307 156.336C229.119 153.663 227.583 151.688 225.104 150.917C222.597 150.14 219.974 150.905 218.366 152.914C217.351 154.178 216.68 155.615 216.386 157.213C216.286 157.757 216.237 158.411 215.482 158.311C214.767 158.217 214.778 157.618 214.833 157.024C215.122 153.712 217.956 150.201 221.094 149.308C224.294 148.398 227.439 149.519 229.607 152.464C230.35 153.474 231.06 153.025 231.792 152.636C232.291 152.376 232.773 151.948 233.189 152.631C233.644 153.369 233.045 153.679 232.502 153.995C230.771 155.011 230.777 155.016 230.921 156.12L230.927 156.126Z" fill="#181A28"/>
<path d="M166.476 140.798C167.247 140.132 167.746 139.5 166.57 138.762C166.299 138.59 166.165 138.207 165.966 137.925C165.633 137.464 165.517 136.987 166.077 136.643C166.543 136.355 166.975 136.565 167.208 137.015C167.951 138.452 168.861 138.341 170.225 137.714C175.049 135.478 180.634 139.167 180.994 144.72C181.083 146.124 180.972 147.505 180.534 148.858C180.345 149.435 180.085 149.946 179.397 149.713C178.798 149.508 178.865 148.964 179.015 148.442C179.464 146.889 179.597 145.336 179.247 143.722C178.66 141.014 176.885 139.234 174.145 138.734C171.772 138.302 169.415 139.378 167.99 141.547C167.297 142.601 166.853 143.76 166.631 144.997C166.548 145.48 166.409 145.913 165.816 145.835C165.178 145.757 165.056 145.275 165.101 144.726C165.117 144.526 165.106 144.31 165.189 144.138C165.982 142.49 166.188 141.148 163.714 141.064C163.309 141.053 163.088 140.704 163.126 140.332C163.16 139.988 163.37 139.555 163.753 139.611C164.724 139.755 165.883 139.561 166.476 140.793V140.798Z" fill="#181A28"/>
<path d="M194.27 152.237C194.592 151.616 193.987 150.162 195.24 150.207C196.477 150.245 195.839 151.521 195.873 152.292C195.917 153.463 195.906 154.733 197.353 155.044C198.662 155.321 199.305 154.323 199.865 153.341C200.015 153.086 200.093 152.786 200.259 152.542C200.514 152.176 200.886 152.032 201.302 152.242C201.745 152.464 201.723 152.847 201.607 153.274C201.069 155.288 198.961 156.919 197.215 156.658C195.457 156.397 194.231 154.617 194.264 152.242L194.27 152.237Z" fill="#181A28"/>
<path d="M118.579 123.962C118.795 124.389 118.407 124.178 118.279 124.245C118.379 124.15 118.479 124.056 118.579 123.962Z" fill="white"/>
<path d="M214.595 115.726C214.26 116.185 213.917 116.616 213.291 116.104C213.804 114.188 214.319 112.268 214.828 110.351C217.195 103.353 220.288 96.7235 224.843 90.8389C226.032 89.3036 227.369 87.9372 229.051 86.9388C230.417 86.1274 231.903 85.5292 233.11 87.1142C234.229 88.5842 233.265 89.7646 232.251 90.8254C227.078 96.2576 222.242 101.956 218.464 108.455C217.085 110.828 215.873 113.302 214.589 115.729L214.595 115.726Z" fill="#151312"/>
<path d="M207.26 114.278C206.868 114.316 206.479 114.344 206.183 113.996C206.266 113.601 206.349 113.206 206.435 112.817L206.455 112.802C207.756 102.69 206.802 92.6884 204.8 82.7389C204.5 81.2579 204.412 79.7916 206.167 79.2165C207.874 78.6591 208.848 79.7698 209.508 81.1453C211.713 85.7625 211.386 90.6609 211.116 95.5287C210.878 99.7768 210.211 103.969 209.185 108.104C209.136 108.273 209.087 108.442 209.044 108.608C208.969 108.921 208.889 109.233 208.814 109.547C208.299 111.121 207.782 112.7 207.262 114.273L207.26 114.278Z" fill="#151312"/>
</svg>
