<svg width="161" height="171" viewBox="0 0 161 171" fill="none" xmlns="http://www.w3.org/2000/svg">
<path d="M132.524 66.1189L132.083 65.6683L129.346 62.8725C127.884 61.3774 126.423 59.8817 124.961 58.3854L124.313 57.7228L123.709 57.1046L123.145 56.5318C123.074 56.4581 122.978 56.4169 122.879 56.4169C122.779 56.4169 122.684 56.4581 122.612 56.5318L119.739 59.7637L115.447 64.5893C115.58 64.7682 115.686 64.9674 115.762 65.1801C115.815 65.3198 115.854 65.4651 115.879 65.6136C116.01 66.4591 115.898 67.327 115.558 68.104C115.218 68.8811 114.666 69.5313 113.972 69.9698C111.837 71.5704 107.693 71.4062 105.359 70.4589C104.266 70.0151 102.645 69.2251 102.759 67.7579C102.94 66.7785 103.379 65.8737 104.024 65.1485V65.0715C104.007 64.5749 103.995 64.0781 103.988 63.5813L103.94 63.5513L103.876 63.512C102.864 62.8559 102.016 61.9513 101.402 60.8744C100.788 59.7974 100.427 58.5797 100.349 57.3235C100.327 56.8424 100.35 56.3602 100.416 55.8837L98.2097 51.2265L98.0897 50.97L97.6003 49.944C97.5489 49.8536 97.4663 49.7881 97.3701 49.7612C97.2739 49.7344 97.1717 49.7485 97.0851 49.8004C96.9732 49.8662 96.8597 49.9286 96.7478 49.9936C94.5477 51.2761 92.3034 52.4731 90.043 53.6214C89.0501 54.1275 88.0511 54.6206 87.0459 55.1005C86.8374 55.1997 86.6306 55.3023 86.4213 55.4006C86.3368 55.4561 86.2758 55.544 86.2508 55.6461C86.2257 55.7481 86.2386 55.8565 86.2868 55.9487L88.4289 61.2856L88.4603 61.3634L92.7832 72.1313L96.2382 80.736L96.5948 81.6243C96.6174 81.5388 96.6375 81.4448 96.6608 81.3558C97.2359 79.083 97.9388 76.8489 98.7659 74.6655C99.3087 73.2225 99.92 71.8097 100.597 70.4324C100.839 69.9467 101.084 69.4585 101.364 68.996C101.599 68.6078 102.184 68.9686 101.948 69.3585L101.934 69.3816C101.633 69.9741 101.299 70.5461 101.009 71.1463C100.32 72.5839 99.7015 74.0588 99.1572 75.5649C98.3308 77.8373 97.6353 80.1609 97.0746 82.5229C96.4131 85.3014 95.9224 88.1225 95.6055 90.9686C95.5757 91.2311 95.5459 91.4936 95.5194 91.7561C95.426 92.6806 95.3506 93.6066 95.2932 94.534C95.1232 97.2729 95.0985 100.02 95.2191 102.762L95.4775 102.807L103.856 104.293L112.842 105.886L121.744 107.464L123.998 107.863C124.035 107.802 124.053 107.73 124.049 107.657C123.933 105.424 123.815 103.189 123.693 100.955C123.459 96.6504 123.213 92.3469 122.954 88.0445C122.912 87.3719 122.869 86.6987 122.826 86.025C122.736 86.0281 122.648 85.9944 122.581 85.9307C122.514 85.8669 122.473 85.7782 122.466 85.683L122.412 84.9212L122.032 79.5732C121.999 79.1115 122.676 79.1157 122.708 79.5732L122.762 80.335L122.789 80.7137L124.113 78.7233C124.16 78.6428 124.234 78.5846 124.32 78.5607C124.406 78.5368 124.497 78.5491 124.575 78.5951C124.583 78.6005 124.591 78.6065 124.599 78.613L128.302 73.0504L132.061 67.4022L132.516 66.7182L132.59 66.608C132.631 66.5303 132.648 66.44 132.636 66.3514C132.624 66.2628 132.584 66.181 132.524 66.1189Z" fill="#F26722"/>
<path d="M145.156 142.852C143.92 142.557 142.655 142.414 141.388 142.424C140.14 142.405 138.893 142.46 137.647 142.477C136.665 142.537 135.68 142.475 134.711 142.295C134.403 142.236 134.109 142.112 133.848 141.93C133.755 141.86 133.679 141.768 133.625 141.662C133.571 141.556 133.542 141.438 133.538 141.317C133.558 140.624 133.834 139.966 134.306 139.486C134.867 138.879 135.503 138.354 136.196 137.927C137.014 137.39 137.87 136.92 138.732 136.473C140.442 135.578 142.21 134.792 143.869 133.793C144.749 133.263 146.38 132.328 146.164 131.006C146.075 130.696 145.924 130.41 145.722 130.167C145.521 129.924 145.273 129.729 144.995 129.596C144.166 129.133 143.26 128.845 142.328 128.75C140.15 128.518 137.952 128.598 135.793 128.989C134.307 129.211 132.827 129.502 131.366 129.877L131.14 129.936C131.053 129.961 130.98 130.022 130.936 130.105C130.891 130.188 130.88 130.286 130.904 130.378C130.928 130.47 130.985 130.548 131.063 130.595C131.141 130.642 131.234 130.654 131.32 130.629C132.342 130.358 133.373 130.13 134.412 129.945C136.476 129.527 138.574 129.325 140.676 129.341C141.649 129.343 142.617 129.477 143.558 129.742C143.946 129.855 144.321 130.019 144.672 130.229C144.826 130.322 144.972 130.429 145.108 130.549C145.157 130.594 145.205 130.641 145.25 130.69C145.27 130.712 145.343 130.802 145.347 130.804C145.378 130.849 145.406 130.896 145.433 130.945C145.446 130.968 145.457 130.991 145.467 131.015L145.473 131.035C145.483 131.07 145.491 131.105 145.498 131.141C145.498 131.141 145.506 131.237 145.507 131.267C145.506 131.281 145.506 131.294 145.507 131.308C145.507 131.308 145.502 131.317 145.496 131.336C145.482 131.387 145.47 131.438 145.453 131.489V131.496C145.441 131.52 145.431 131.544 145.419 131.567C145.388 131.624 145.356 131.679 145.321 131.732C145.304 131.767 145.281 131.799 145.254 131.826C145.211 131.878 145.167 131.929 145.122 131.98C145.02 132.089 144.912 132.192 144.8 132.289C144.549 132.5 144.286 132.694 144.012 132.87C142.436 133.827 140.812 134.693 139.147 135.465C137.454 136.232 135.859 137.222 134.398 138.412C133.853 138.861 133.414 139.439 133.117 140.099C132.933 140.439 132.845 140.827 132.865 141.218C132.884 141.609 133.01 141.985 133.227 142.302C133.796 142.822 134.52 143.111 135.27 143.119C136.321 143.218 137.377 143.24 138.431 143.186C139.669 143.158 140.909 143.117 142.148 143.171C143.388 143.158 144.62 143.378 145.787 143.821C145.972 143.897 146.143 144.006 146.293 144.144C146.335 144.173 146.37 144.213 146.395 144.259C146.421 144.306 146.436 144.358 146.439 144.411C146.432 144.368 146.429 144.478 146.429 144.477C146.425 144.527 146.409 144.576 146.382 144.617C146.322 144.74 146.244 144.85 146.149 144.944C145.676 145.414 145.132 145.797 144.539 146.074C144.422 146.136 144.304 146.195 144.185 146.25C144.146 146.267 144.111 146.293 144.082 146.325C143.589 145.888 143.006 145.58 142.38 145.426C141.16 145.179 139.904 145.217 138.699 145.536C137.495 145.855 136.369 146.448 135.401 147.275C133.902 148.514 132.372 150.619 133.195 152.747L133.221 152.81L133.253 152.883C134.38 155.416 137.587 155.318 139.758 154.717C140.094 154.623 140.424 154.51 140.749 154.38C141.733 154.037 142.632 153.463 143.38 152.702C144.128 151.941 144.706 151.011 145.07 149.982C145.243 149.457 145.287 148.895 145.198 148.348C145.11 147.8 144.891 147.286 144.564 146.853C144.978 146.66 145.378 146.433 145.759 146.174C146.301 145.808 147.015 145.282 147.102 144.545C147.229 143.469 145.896 143.047 145.156 142.852Z" fill="#FF606C"/>
<path d="M131.515 124.354C120.813 121.1 91.4173 115.198 84.8002 113.883C84.3878 113.802 83.9629 113.827 83.5615 113.956C83.16 114.086 82.7938 114.316 82.4938 114.627L76.0619 121.296C75.7263 121.643 75.4845 122.079 75.3618 122.56C75.2392 123.04 75.2401 123.546 75.3645 124.025C75.489 124.505 75.7324 124.94 76.0693 125.286C76.4062 125.631 76.8243 125.874 77.2799 125.989L124.68 137.987C125.187 138.115 125.719 138.079 126.206 137.883C126.694 137.688 127.116 137.342 127.417 136.891L132.925 128.631C133.167 128.269 133.324 127.85 133.382 127.411C133.44 126.972 133.399 126.524 133.261 126.105C133.122 125.686 132.892 125.309 132.588 125.004C132.285 124.699 131.917 124.476 131.515 124.354Z" fill="#F26722"/>
<path d="M31.6317 62.9785C31.7088 62.93 31.7648 62.8512 31.7875 62.7591C31.8103 62.6671 31.798 62.5693 31.7533 62.4868C31.7063 62.4064 31.6321 62.3483 31.546 62.3244C31.4598 62.3006 31.3683 62.3128 31.2904 62.3586L27.6405 64.0523L27.1269 64.2909C27.0499 64.3394 26.9939 64.4182 26.9711 64.5102C26.9484 64.6022 26.9607 64.7 27.0054 64.7825C27.0521 64.8628 27.1262 64.9209 27.2123 64.9448C27.2983 64.9687 27.3897 64.9565 27.4674 64.9108L31.1181 63.217L31.6317 62.9785ZM32.6645 64.4516C32.6175 64.3714 32.5433 64.3134 32.4571 64.2895C32.371 64.2657 32.2796 64.2778 32.2017 64.3234L28.5518 66.0171L28.0374 66.2557C27.9604 66.3043 27.9046 66.3832 27.882 66.4752C27.8594 66.5672 27.8719 66.6649 27.9166 66.7473C27.9634 66.8276 28.0375 66.8857 28.1235 66.9096C28.2095 66.9335 28.3009 66.9213 28.3787 66.8755L32.0294 65.1818L32.543 64.9432C32.62 64.8948 32.676 64.816 32.6988 64.7239C32.7215 64.6319 32.7092 64.5341 32.6645 64.4516Z" fill="#FF9F48"/>
<path d="M27.2034 51.4506C27.1119 51.3338 26.9867 51.2523 26.8472 51.2185C26.7078 51.1846 26.5617 51.2004 26.4315 51.2633C26.1489 51.4155 26.1803 51.9131 26.2302 52.2483C26.3031 52.695 26.4186 53.1328 26.5747 53.5547C26.9168 53.1809 27.1692 52.7252 27.3105 52.2261C27.3478 52.0964 27.3576 51.9596 27.339 51.8255C27.3205 51.6914 27.2742 51.5634 27.2034 51.4506Z" fill="#FFBB3C"/>
<path d="M29.0246 45.2749C28.1956 44.4583 27.2204 43.8271 26.1571 43.4189C25.0937 43.0107 23.9639 42.8339 22.8349 42.8989C21.5876 42.9867 20.3778 43.3878 19.305 44.0692C18.2321 44.7506 17.3269 45.6927 16.6638 46.8182C15.9916 48.0138 15.589 49.3583 15.4874 50.7467C15.3859 52.135 15.5882 53.5295 16.0786 54.821C16.6876 56.445 17.7658 57.8221 19.1582 58.7543C20.5505 59.6865 22.1853 60.1258 23.8275 60.0091L25.8263 63.07C25.8944 63.1504 25.9854 63.2049 26.0854 63.2253C26.1854 63.2457 26.2889 63.2308 26.3801 63.1829L30.802 61.2403C30.8926 61.1914 30.9654 61.1121 31.009 61.0147C31.0527 60.9172 31.0648 60.8072 31.0435 60.7017L29.8481 56.6934C31.0947 55.0321 31.703 52.9311 31.5507 50.8128C31.3984 48.6945 30.4967 46.7159 29.027 45.2749H29.0246ZM28.9264 60.936C28.6902 60.4178 28.4579 59.898 28.2292 59.3764C27.7677 58.3214 27.3263 57.2566 26.905 56.1822C26.7327 55.7401 26.5444 55.3015 26.3487 54.8278C25.8532 55.347 25.2976 55.7972 24.6953 56.1676C24.7911 56.3138 24.8861 56.46 24.9786 56.6062C25.8976 58.0694 26.702 59.6102 27.384 61.213C27.5635 61.6311 26.9815 61.9953 26.8004 61.5755C26.7875 61.5464 26.7754 61.5165 26.7617 61.49C26.0646 59.9431 25.2796 58.4427 24.4111 56.997C24.3016 56.826 24.1889 56.649 24.073 56.4754C23.6167 56.6949 23.1163 56.7911 22.6165 56.7556C22.1166 56.7201 21.6328 56.554 21.208 56.2719C20.5849 55.7983 20.0472 54.8048 20.6292 54.0652C20.9274 53.7703 21.3183 53.6038 21.7257 53.5981C22.1331 53.5924 22.5279 53.7479 22.8333 54.0344C23.3904 54.4699 23.8822 54.9926 24.292 55.5845C24.4544 55.4939 24.6124 55.3946 24.7653 55.287C25.2338 54.9447 25.6696 54.5544 26.0662 54.1216C25.8761 53.6464 25.7258 53.1543 25.617 52.651C25.4502 52.1038 25.4918 51.509 25.7329 50.994C25.8371 50.8537 25.9667 50.7369 26.114 50.6505C26.2613 50.5641 26.4234 50.5099 26.5907 50.491C26.7581 50.4721 26.9273 50.489 27.0884 50.5406C27.2495 50.5922 27.3992 50.6774 27.5289 50.7914C27.7844 51.0492 27.952 51.39 28.0053 51.76C28.0587 52.1301 27.9947 52.5085 27.8235 52.8357C27.5827 53.3756 27.2559 53.8673 26.8575 54.2892C26.9952 54.6201 27.1393 54.9484 27.2745 55.275C28.0095 57.0483 28.7122 58.8284 29.5084 60.576C29.6992 60.9881 29.1163 61.3515 28.9264 60.936Z" fill="#FFBB3C"/>
<path d="M22.5951 54.732C22.3629 54.5192 22.0837 54.3721 21.7836 54.3045C21.6641 54.2882 21.5427 54.3012 21.4287 54.3426C21.3147 54.3839 21.2111 54.4525 21.126 54.5431C21.1477 54.5149 21.0793 54.6465 21.0865 54.6234C21.0511 54.7355 21.0591 54.6987 21.0591 54.7696C21.0595 54.8746 21.0777 54.9786 21.1131 55.0766C21.2471 55.3879 21.4783 55.6404 21.7675 55.7914C22.059 55.9433 22.3771 56.0289 22.7015 56.0425C23.0259 56.0562 23.3494 55.9978 23.6512 55.8709C23.3431 55.448 22.9886 55.0657 22.5951 54.732ZM11.3798 41.7437C11.8339 42.2037 12.2863 42.6654 12.7322 43.1348C12.7964 43.1977 12.8811 43.2317 12.9684 43.2298C13.0557 43.2279 13.139 43.1902 13.2007 43.1245C13.2624 43.0588 13.2978 42.9704 13.2994 42.8776C13.3011 42.7849 13.2689 42.695 13.2096 42.6269C11.6085 40.94 9.94935 39.313 8.2991 37.6842L7.80885 37.2037C7.48685 36.8907 7.01029 37.3969 7.33068 37.7115C8.68952 39.0453 10.0392 40.3894 11.3798 41.7437ZM25.3031 39.8533C25.5808 37.473 25.7773 35.0816 25.9793 32.6927L26.0373 31.9967C26.0759 31.5359 25.3989 31.5393 25.3619 31.9967C25.2009 33.9632 25.0278 35.9203 24.8354 37.8791C24.771 38.5375 24.7042 39.1958 24.6277 39.8533C24.5738 40.3107 25.2508 40.3065 25.3031 39.8533ZM7.92638 48.5641C8.34257 48.7017 8.52047 48.0083 8.1059 47.8715C6.89437 47.4714 5.66836 47.1183 4.44395 46.7651C4.36236 46.7527 4.27929 46.7722 4.21035 46.8202C4.14141 46.8682 4.09136 46.9413 4.06961 47.0258C4.04785 47.1102 4.05589 47.2002 4.09221 47.2788C4.12854 47.3574 4.19064 47.4192 4.26685 47.4526C5.48884 47.8082 6.71486 48.1614 7.92638 48.5641ZM36.7035 40.1851C36.6257 40.1391 36.5341 40.1267 36.4479 40.1506C36.3616 40.1745 36.2874 40.2328 36.2406 40.3133C35.9584 40.7226 35.6742 41.1307 35.3881 41.5377C34.9277 42.1943 34.4495 42.8757 34.0052 43.4725C33.9444 43.5413 33.9105 43.6321 33.9105 43.7265C33.9105 43.8208 33.9444 43.9116 34.0052 43.9804C34.0691 44.0467 34.1549 44.0839 34.2442 44.0839C34.3336 44.0839 34.4194 44.0467 34.4833 43.9804C35.2159 42.9963 35.9162 41.984 36.6174 40.9751L36.8243 40.6758C36.869 40.5936 36.8814 40.496 36.8588 40.4041C36.8362 40.3122 36.7804 40.2335 36.7035 40.1851ZM13.9269 56.6053C11.0619 56.6558 8.19686 56.8174 5.33428 56.9696L4.49869 57.0149C4.0656 57.0388 4.06319 57.757 4.49869 57.7331C6.84688 57.6023 9.19667 57.4851 11.5465 57.3954C12.3402 57.3646 13.1331 57.3372 13.9269 57.3235C14.0165 57.3235 14.1025 57.2857 14.1659 57.2184C14.2293 57.151 14.2649 57.0597 14.2649 56.9644C14.2649 56.8692 14.2293 56.7779 14.1659 56.7105C14.1025 56.6432 14.0165 56.6053 13.9269 56.6053Z" fill="#FFBB3C"/>
<path d="M113.153 128.803L92.0247 123.719C91.913 123.691 91.7957 123.707 91.6937 123.763C91.5918 123.819 91.512 123.911 91.4685 124.024L90.9372 125.383C90.9094 125.453 90.8964 125.528 90.8991 125.604C90.9019 125.679 90.9203 125.753 90.9531 125.82C90.9858 125.887 91.0321 125.946 91.0887 125.992C91.1452 126.037 91.2106 126.07 91.2801 126.085L112.149 131.015C112.243 131.038 112.341 131.03 112.431 130.993C112.521 130.956 112.598 130.891 112.653 130.807L113.444 129.604C113.491 129.535 113.521 129.454 113.531 129.369C113.541 129.285 113.531 129.199 113.503 129.119C113.474 129.04 113.426 128.969 113.365 128.914C113.304 128.859 113.231 128.82 113.153 128.803ZM94.554 118.921L100.582 120.309L105.794 121.506C106.635 121.7 107.475 121.919 108.321 122.088L108.359 122.097C108.783 122.194 108.964 121.503 108.538 121.404L106.462 120.926L101.503 119.784L95.475 118.396L90.2626 117.199C89.4214 117.004 88.5809 116.786 87.7349 116.616L87.6979 116.608C87.2736 116.51 87.0925 117.202 87.5183 117.3L89.5944 117.778L94.554 118.921ZM92.3773 120.939C92.4636 120.962 92.555 120.949 92.6324 120.902C92.7098 120.856 92.7672 120.779 92.7927 120.689C92.8158 120.597 92.804 120.499 92.7598 120.417C92.7157 120.334 92.6428 120.273 92.5568 120.247L90.2376 119.746L89.9068 119.675C89.8205 119.651 89.7291 119.665 89.6517 119.711C89.5743 119.758 89.5169 119.835 89.4914 119.925C89.4685 120.017 89.4804 120.115 89.5245 120.197C89.5686 120.28 89.6414 120.341 89.7273 120.367L92.0465 120.868L92.3773 120.939ZM95.7615 121.079L95.4307 121.008C95.3443 120.985 95.253 120.998 95.1757 121.045C95.0984 121.092 95.041 121.168 95.0153 121.259C94.9923 121.351 95.0041 121.448 95.0482 121.531C95.0923 121.613 95.1652 121.674 95.2512 121.7L97.5704 122.202L97.9012 122.273C97.9875 122.296 98.0788 122.283 98.1561 122.236C98.2335 122.189 98.2909 122.113 98.3166 122.022C98.3395 121.931 98.3276 121.833 98.2835 121.75C98.2394 121.668 98.1666 121.607 98.0807 121.58L95.7615 121.079ZM100.786 122.413L100.456 122.341C100.369 122.318 100.278 122.332 100.2 122.378C100.123 122.425 100.065 122.501 100.039 122.592C100.016 122.684 100.028 122.781 100.072 122.864C100.117 122.947 100.189 123.008 100.275 123.034L102.595 123.535L102.925 123.607C103.012 123.629 103.103 123.616 103.181 123.569C103.258 123.522 103.316 123.446 103.341 123.355C103.364 123.264 103.353 123.166 103.308 123.083C103.264 123.001 103.191 122.94 103.105 122.914L100.786 122.413Z" fill="#F7D7CA"/>
<path d="M118.435 77.7307C118.414 77.4257 118.291 77.1387 118.09 76.9204C117.888 76.7021 117.62 76.5666 117.333 76.538L111.787 75.984C111.626 75.9681 111.464 75.9862 111.31 76.0371C111.156 76.0881 111.013 76.1709 110.89 76.2808C110.766 76.3908 110.664 76.5256 110.589 76.6776C110.515 76.8296 110.47 76.9957 110.456 77.1664L109.886 84.422C109.859 84.7602 109.959 85.096 110.163 85.3573C110.367 85.6186 110.659 85.7844 110.977 85.819C112.848 86.038 114.729 86.1428 116.612 86.1328C118.801 86.0687 118.613 80.2128 118.435 77.7307Z" fill="#F7D7CA"/>
<path d="M140.857 68.5887L132.054 67.3986L128.296 73.0467L124.593 78.6093C124.661 78.6611 124.71 78.7382 124.728 78.8257C124.746 78.9132 124.732 79.0046 124.69 79.0822L124.459 79.4293L122.862 81.8301L123.136 85.6776C123.14 85.7232 123.135 85.7694 123.121 85.8128C123.107 85.8561 123.084 85.8956 123.054 85.9283C123.023 85.9611 122.987 85.9862 122.946 86.002C122.906 86.0178 122.862 86.0238 122.819 86.0196C122.863 86.6928 122.905 87.366 122.947 88.0391C123.215 92.3421 123.462 96.6456 123.686 100.95C123.807 103.183 123.926 105.418 124.042 107.652C124.046 107.725 124.028 107.797 123.991 107.858L129.841 108.895L136.528 110.081L141.02 110.878L142.602 111.157L144.945 73.8573C145.023 72.5914 144.643 71.3416 143.884 70.3627C143.124 69.3837 142.042 68.7493 140.857 68.5887ZM92.7838 72.1327L88.461 61.3648L87.9248 61.2862C87.284 61.1931 86.6319 61.2417 86.0096 61.4289C85.3873 61.6162 84.8081 61.9381 84.3085 62.3743C83.8088 62.8106 83.3995 63.3519 83.1061 63.9641C82.8128 64.5764 82.6417 65.2465 82.6038 65.9323L80.708 100.206C80.7365 100.204 80.7651 100.205 80.7933 100.21L80.8956 100.228C81.7006 100.367 82.5056 100.513 83.3049 100.656L88.3949 101.558L94.5355 102.646C94.5202 102.28 94.5041 101.913 94.4936 101.546C94.3867 97.8296 94.5527 94.1097 94.9903 90.4203C95.3416 87.4539 95.8795 84.5159 96.6003 81.6258L96.2437 80.7374C95.0861 77.8703 93.9328 75.0021 92.7838 72.1327Z" fill="#F7D7CA"/>
<path d="M75.7148 121.22C75.6792 120.796 75.5472 120.387 75.33 120.029C75.2411 119.9 75.1181 119.801 74.9765 119.746C74.8349 119.691 74.6812 119.682 74.5346 119.72C73.7957 119.886 73.2386 120.89 72.8764 121.559C72.429 122.396 72.0444 123.268 71.726 124.169C73.0567 123.429 74.4078 122.73 75.7776 122.075C75.773 121.789 75.752 121.504 75.7148 121.22ZM47.0495 57.4022C48.0054 58.4512 48.7927 59.6597 49.38 60.9795C49.6722 61.7242 49.9258 62.4852 50.1601 63.2521C50.9477 65.9194 51.5697 68.6387 52.022 71.3926C52.6741 75.1417 53.1273 78.9294 53.471 82.7239C53.5784 82.9923 53.6779 83.2642 53.7697 83.5396H53.8003L55.1261 83.7747C57.2062 84.1457 59.2858 84.5205 61.3649 84.899C63.0143 85.2 64.6654 85.4915 66.3108 85.8284C66.4492 83.1924 66.9443 66.4635 58.3533 52.1961C58.3276 52.9478 58.1488 53.6846 57.8293 54.3558C57.6749 54.7115 57.4218 55.0086 57.104 55.2073C56.7862 55.406 56.4188 55.4967 56.051 55.4673C55.4183 55.334 55.0762 54.5559 54.85 53.9908C54.6694 53.5362 54.5145 53.0705 54.3863 52.5962C54.3003 53.312 54.061 53.9973 53.6868 54.5995C53.4494 54.9842 53.0909 55.2666 52.6754 55.3961C52.2599 55.5257 51.8146 55.4939 51.4191 55.3066C51.1702 55.1543 50.9522 54.9512 50.7777 54.7089C50.6032 54.4666 50.4756 54.19 50.4024 53.895C50.383 53.9548 50.3653 54.0155 50.3436 54.0745C50.2086 54.5211 49.9574 54.918 49.6191 55.2194C49.4372 55.3681 49.2172 55.4548 48.988 55.4682C48.9108 55.469 48.8337 55.4622 48.7577 55.4477C48.7481 55.4477 48.7384 55.4425 48.7288 55.44L48.6161 55.4237C48.1744 55.3101 47.7697 55.072 47.4448 54.7345C47.1199 54.3969 46.8869 53.9725 46.7702 53.506C46.4537 52.5251 46.2974 51.4939 46.3081 50.457C45.4186 49.4704 43.3184 47.4184 42.5359 49.0813C41.8114 50.6203 44.0694 53.3769 44.8318 54.4678C45.5393 55.4725 46.279 56.4512 47.0495 57.4022Z" fill="#FFCEB6"/>
<path d="M47.0543 48.8881C47.0052 49.4517 46.9899 50.018 47.0085 50.5836C47.0073 51.4946 47.1418 52.4002 47.4069 53.2666C47.5247 53.6488 47.7197 53.999 47.9785 54.2926C48.2275 54.5435 48.5482 54.699 48.8897 54.7346H49L49.0515 54.7218L49.0999 54.7047C49.1432 54.6813 49.1852 54.655 49.2254 54.626L49.2375 54.6183C49.2584 54.5987 49.2802 54.579 49.2995 54.5585C49.5224 54.2869 49.6848 53.9654 49.7744 53.618C49.9665 52.9178 50.0784 52.1955 50.1077 51.4668C50.1375 51.0094 50.8048 51.0034 50.7839 51.4668C50.7604 52.0131 50.8001 52.5604 50.9022 53.0964C51.0206 53.7086 51.2573 54.5568 51.9093 54.7209C52.6225 54.9048 53.1281 54.3157 53.3905 53.6864C53.8124 52.5004 53.9727 51.2275 53.859 49.9654C53.8373 49.5636 54.4636 49.4712 54.5231 49.8697C54.5948 50.3459 54.6841 50.8196 54.7864 51.2898C54.9407 52.0657 55.152 52.8275 55.4183 53.5684C55.5271 53.8775 55.6712 54.1712 55.8474 54.4431C55.8826 54.495 55.9213 54.5442 55.9633 54.5901C55.9818 54.6106 56.0856 54.7038 56.0438 54.6756C56.0583 54.6867 56.1162 54.7235 56.1331 54.7355C56.1484 54.7424 56.1643 54.7476 56.1806 54.7509C56.7522 54.7945 57.17 54.2336 57.3688 53.6958C57.6975 52.5896 57.7897 51.4195 57.6385 50.2707C57.634 50.23 57.6372 50.1888 57.6479 50.1495C57.6585 50.1102 57.6764 50.0735 57.7005 50.0415C57.548 49.6164 57.341 49.2156 57.0855 48.8505C55.5117 46.6352 52.5935 46.4266 50.2035 46.7027C49.3462 46.8019 48.2313 46.7284 47.5051 47.3688C47.175 47.6816 46.9374 48.0894 46.8209 48.5427C46.8581 48.5478 46.894 48.561 46.9262 48.5814C46.9585 48.6018 46.9864 48.6291 47.0083 48.6615C47.0302 48.6939 47.0456 48.7307 47.0535 48.7697C47.0614 48.8087 47.0617 48.849 47.0543 48.8881ZM51.4174 102.293C51.7359 102.023 51.988 101.675 52.1523 101.279C52.3166 100.883 52.3882 100.451 52.3609 100.019L52.0309 94.5956C49.2029 97.6317 44.7158 98.5055 40.8736 97.7086C39.5255 97.4314 38.2322 96.9109 37.0498 96.1696C37.1651 97.9441 37.473 99.6985 37.9675 101.398C38.0399 101.378 38.1164 101.383 38.1859 101.412C38.2554 101.442 38.3143 101.494 38.3542 101.561C38.3941 101.628 38.4128 101.707 38.4077 101.786C38.4026 101.865 38.3739 101.941 38.3257 102.002L38.304 102.03L38.2315 102.126C38.4534 102.713 38.7754 103.252 39.1814 103.716C41.1247 105.784 48.517 104.732 51.4174 102.293Z" fill="#FFCEB6"/>
<path d="M51.9712 93.6054C52.1633 93.3681 52.3431 93.1198 52.5097 92.8616C54.8305 89.2116 53.8782 84.2261 51.7248 80.7471C51.0194 79.5867 50.1147 78.5776 49.0579 77.7726C48.852 77.6181 48.6395 77.4737 48.4211 77.3399C47.9841 77.0699 47.5233 76.8457 47.0454 76.6705C45.031 75.975 42.8427 76.1228 40.9274 77.0834C38.9507 77.9957 37.3179 79.5835 36.2882 81.5944C35.0847 84.0654 35.0187 87.0527 35.0879 89.7759C35.1092 89.8417 35.1069 89.9135 35.0815 89.9777C35.0609 90.0606 35.0117 90.1323 34.9438 90.1785C34.8758 90.2247 34.7939 90.2422 34.7144 90.2273H34.6894C34.6242 90.2172 34.5631 90.1875 34.5131 90.1418C34.487 90.1184 34.4601 90.0959 34.4326 90.0743L34.3304 89.9888C34.2843 89.953 34.2379 89.9176 34.1911 89.8828C33.8914 89.658 33.5769 89.4563 33.2501 89.2791C32.5824 88.8555 31.7952 88.6959 31.0275 88.8286C30.5546 88.9701 30.1463 89.2895 29.8788 89.7272C29.8163 89.8276 29.7624 89.9337 29.7178 90.0444C29.6717 90.1615 29.638 90.2836 29.6171 90.4086C29.5945 90.5385 29.5882 90.6711 29.5986 90.8028C29.6791 91.715 30.5155 92.3512 31.2344 92.6974C32.2315 93.1677 33.3467 93.2762 34.4077 93.0061C34.4795 92.9872 34.5552 92.993 34.6237 93.0227C34.6923 93.0523 34.7502 93.1043 34.7893 93.1711C34.8158 93.2139 34.8456 93.2566 34.8698 93.2951L34.8738 93.3011L34.935 93.3814C35.1237 93.6253 35.3256 93.8574 35.5395 94.0765C35.9806 94.5307 36.4621 94.9385 36.9772 95.2941L36.9877 95.3018C38.6359 96.4154 40.5195 97.0751 42.4682 97.2212C45.8789 97.5128 49.7035 96.444 51.9712 93.6054ZM42.5374 88.1916C43.7327 88.1516 44.9224 88.0008 46.0931 87.741C47.3417 87.4882 48.5351 86.991 49.6125 86.2747C49.7508 86.179 49.8838 86.0751 50.011 85.9635C50.1092 85.878 50.205 85.7856 50.296 85.689C50.3531 85.6291 50.4046 85.565 50.457 85.5018L50.4618 85.4966C50.5071 85.4255 50.5752 85.3741 50.6534 85.3521C50.7269 85.3177 50.8103 85.3153 50.8855 85.3454C50.9607 85.3754 51.0219 85.4355 51.0559 85.5129C51.0925 85.5693 51.1085 85.638 51.101 85.7061C51.2413 86.4731 51.2736 87.258 51.1968 88.0351C51.1195 89.3993 50.5712 90.6852 49.6568 91.6466C49.4954 91.8016 49.3241 91.9444 49.144 92.0741C48.6516 92.4609 48.0834 92.7247 47.4817 92.8459C46.8801 92.9671 46.2604 92.9427 45.6688 92.7744C45.4937 92.714 45.3228 92.6403 45.1577 92.5538C43.7476 91.6895 42.6953 90.2934 42.2097 88.643C42.1971 88.5898 42.1959 88.5342 42.2064 88.4805C42.2169 88.4268 42.2388 88.3762 42.2703 88.3328C42.3019 88.2893 42.3423 88.254 42.3886 88.2295C42.4348 88.2051 42.4857 88.1921 42.5374 88.1916ZM88.7065 128.221C88.5403 128.058 88.3364 127.945 88.1157 127.893C87.4183 127.72 86.6997 127.662 85.9856 127.722C84.9168 127.764 83.8525 127.891 82.8019 128.104C82.7237 128.123 82.6416 128.113 82.57 128.074C82.4984 128.036 82.442 127.971 82.4109 127.893C82.3797 127.814 82.3758 127.726 82.3997 127.645C82.4237 127.564 82.4741 127.494 82.5419 127.448C83.1629 126.981 83.7565 126.473 84.3193 125.929C84.7078 125.57 85.0655 125.175 85.3883 124.75C85.5116 124.585 85.6181 124.407 85.7063 124.219C85.7617 124.108 85.7894 123.984 85.7868 123.859C85.7839 123.839 85.7799 123.82 85.7747 123.801C85.7664 123.785 85.7573 123.77 85.7474 123.756C85.731 123.744 85.7156 123.73 85.7015 123.715C85.601 123.66 85.4919 123.625 85.3795 123.611C84.9509 123.58 84.5205 123.618 84.1027 123.725C83.0346 123.971 81.9865 124.306 80.9681 124.727C80.5693 124.885 80.1733 125.048 79.7799 125.218L79.573 125.309L79.4684 125.356L79.3685 125.401C79.2912 125.447 79.2 125.459 79.1144 125.435C79.0288 125.41 78.9557 125.351 78.9109 125.269C78.8662 125.188 78.8533 125.091 78.875 125C78.8968 124.909 78.9514 124.83 79.0272 124.781C79.0779 124.746 79.127 124.71 79.177 124.674C79.9517 124.141 80.6421 123.48 81.2225 122.717C81.5337 122.358 81.712 121.891 81.7248 121.402C81.7145 121.319 81.6953 121.237 81.6676 121.159C81.6595 121.136 81.6484 121.115 81.6346 121.095L81.625 121.083L81.6105 121.067C81.5919 121.053 81.5726 121.041 81.5525 121.03L81.5284 121.018C81.5018 121.008 81.476 120.998 81.4479 120.991C81.3279 120.958 81.2035 120.946 81.08 120.957C80.9109 120.961 80.7424 120.979 80.576 121.011C80.0785 121.11 79.5885 121.249 79.1101 121.425C78.2061 121.744 77.323 122.129 76.4536 122.542L76.1083 122.707C75.994 122.762 75.8805 122.818 75.767 122.874C74.2901 123.605 72.8309 124.375 71.391 125.185L70.9668 125.424L70.5393 125.666L70.2535 125.827C68.4825 126.839 66.7526 127.94 64.9776 128.945C62.077 130.613 58.8223 131.463 55.5244 131.414C54.2401 131.416 52.9618 131.226 51.7273 130.85C50.8761 132.344 49.9995 133.821 49.0973 135.281C47.1009 138.513 45.0144 141.704 42.7644 144.747C43.2208 145.004 43.6853 145.247 44.1611 145.463C48.4799 147.423 53.3936 147.56 57.9604 146.652C60.1517 146.217 62.2946 145.541 64.3545 144.636C65.9047 143.938 67.4021 143.115 68.8335 142.173C69.0943 142.002 69.3538 141.831 69.6119 141.66C70.587 141.006 71.5456 140.325 72.4866 139.617C72.7222 139.443 72.9578 139.267 73.1934 139.09C76.1436 136.709 79.2418 134.542 82.467 132.605C83.6302 131.959 84.7878 131.302 85.9132 130.583C86.5351 130.196 87.138 129.775 87.7196 129.322C87.9412 129.148 88.152 128.96 88.3507 128.757C88.4935 128.629 88.6116 128.473 88.6985 128.297L88.7033 128.287C88.711 128.27 88.7159 128.252 88.7178 128.233L88.7065 128.221Z" fill="#FFCEB6"/>
<path d="M142.688 160.878C140.902 160.308 139.115 159.742 137.327 159.181C134.82 158.39 132.312 157.601 129.804 156.812C126.764 155.857 123.725 154.903 120.685 153.951C117.347 152.903 114.009 151.857 110.67 150.812L100.349 147.58L90.3039 144.438L81.2074 141.594L74.0227 139.35L73.3176 139.878L79.0628 141.674L87.8011 144.405L97.6326 147.483C101.08 148.561 104.528 149.64 107.976 150.72C111.372 151.783 114.767 152.847 118.162 153.912C121.284 154.89 124.406 155.87 127.527 156.85C130.181 157.684 132.835 158.518 135.488 159.353L141.445 161.234L142.511 161.576C142.555 161.589 142.6 161.592 142.644 161.586C142.688 161.579 142.731 161.564 142.77 161.54C142.808 161.517 142.842 161.485 142.87 161.447C142.897 161.41 142.917 161.367 142.928 161.321C142.94 161.275 142.943 161.227 142.937 161.18C142.931 161.133 142.917 161.087 142.894 161.046C142.872 161.005 142.842 160.969 142.807 160.94C142.771 160.911 142.731 160.89 142.688 160.878ZM137.668 162.345C135.933 161.794 134.195 161.249 132.455 160.712C130.066 159.971 127.676 159.235 125.284 158.505C122.432 157.631 119.579 156.761 116.726 155.893C113.601 154.942 110.476 153.993 107.351 153.046C104.144 152.074 100.937 151.103 97.7308 150.135C94.6321 149.198 91.5336 148.262 88.4355 147.328C85.6357 146.483 82.8356 145.639 80.0353 144.796L73.1026 142.71L70.4815 141.922C70.2277 142.096 69.9728 142.267 69.7168 142.435L71.5192 142.977C73.6825 143.626 75.8453 144.277 78.0075 144.929L86.1026 147.367L95.2321 150.123C98.4306 151.089 101.629 152.056 104.826 153.025C107.989 153.982 111.151 154.942 114.313 155.903C117.251 156.795 120.188 157.69 123.124 158.587C125.646 159.358 128.167 160.133 130.685 160.909C132.601 161.501 134.516 162.097 136.429 162.698C136.782 162.809 137.135 162.921 137.489 163.034C137.572 163.05 137.657 163.032 137.728 162.984C137.8 162.937 137.851 162.862 137.874 162.776C137.896 162.69 137.888 162.598 137.85 162.518C137.812 162.439 137.747 162.377 137.668 162.345ZM142.688 111.18L142.607 111.165L141.025 110.885L136.533 110.088L129.846 108.902L123.996 107.865L121.742 107.466L112.841 105.888L103.854 104.295L95.4728 102.809L95.2144 102.763L94.8924 102.706L94.5357 102.642L88.3952 101.554L83.3052 100.652C82.5002 100.509 81.6992 100.363 80.8958 100.224L80.7936 100.206C80.7654 100.201 80.7368 100.2 80.7083 100.202C80.6909 100.203 80.6736 100.205 80.6567 100.21C80.5761 100.216 80.5008 100.255 80.4467 100.318C80.3925 100.382 80.3636 100.466 80.3661 100.552V109.029C80.3674 109.107 80.3921 109.183 80.4367 109.245C80.4813 109.307 80.5434 109.353 80.6141 109.375C82.3223 109.922 84.0571 110.376 85.7951 110.802C87.9686 111.336 90.1614 111.817 92.3534 112.273C94.836 112.789 97.3235 113.277 99.8157 113.737C102.479 114.231 105.145 114.706 107.813 115.162C110.497 115.622 113.184 116.068 115.875 116.5C118.436 116.913 120.999 117.316 123.562 117.708C125.844 118.058 128.126 118.4 130.41 118.734C132.302 119.012 134.195 119.286 136.088 119.556C137.41 119.744 138.731 119.93 140.051 120.113C140.661 120.199 141.279 120.318 141.893 120.37C141.919 120.37 141.945 120.377 141.974 120.381C142.164 120.406 142.296 120.194 142.312 120.022L142.861 112.583L142.941 111.526C142.941 111.447 142.916 111.37 142.87 111.307C142.824 111.244 142.76 111.2 142.688 111.18ZM141.71 118.961L141.661 119.616L140.711 119.486C139.555 119.327 138.399 119.166 137.243 119.002C135.507 118.757 133.772 118.507 132.037 118.253C129.826 117.93 127.617 117.601 125.409 117.267C122.907 116.887 120.405 116.499 117.904 116.101C115.243 115.679 112.584 115.243 109.927 114.796C107.241 114.343 104.557 113.873 101.877 113.387C99.3335 112.925 96.7932 112.44 94.2564 111.933C91.9855 111.475 89.7186 110.993 87.4614 110.465C85.6003 110.03 83.7423 109.567 81.9069 109.024C81.6187 108.938 81.3321 108.853 81.0448 108.759V100.976L82.2828 101.195L86.7755 101.992L93.4619 103.177L94.7909 103.413L94.9004 103.433L101.563 104.614L110.462 106.191L119.448 107.785L127.827 109.27L134.911 110.526L140.001 111.428C140.741 111.56 141.493 111.742 142.241 111.832L141.71 118.961Z" fill="#F7D7CA"/>
<path d="M109.656 107.675C109.299 107.477 108.903 107.371 108.5 107.365C108.097 107.359 107.698 107.454 107.336 107.641C106.935 107.872 106.608 108.224 106.394 108.652C106.181 109.08 106.091 109.566 106.136 110.048C106.192 110.692 106.463 111.294 106.899 111.746C107.336 112.198 107.91 112.469 108.518 112.511C108.85 112.527 109.181 112.464 109.487 112.327C109.794 112.19 110.067 111.982 110.289 111.719C110.687 111.203 110.902 110.554 110.895 109.886C110.898 109.433 110.784 108.987 110.566 108.597C110.347 108.207 110.033 107.889 109.656 107.675ZM108.834 111.779C108.368 111.828 107.902 111.687 107.53 111.386C107.158 111.085 106.907 110.645 106.828 110.155C106.765 109.758 106.821 109.35 106.989 108.989C107.117 108.71 107.319 108.478 107.571 108.32C107.949 108.095 108.391 108.019 108.816 108.107C109.242 108.194 109.625 108.439 109.897 108.798C110.066 109.055 110.173 109.352 110.209 109.663C110.245 109.975 110.21 110.29 110.105 110.584C110 110.877 109.83 111.138 109.609 111.346C109.388 111.554 109.122 111.701 108.836 111.775L108.834 111.779Z" fill="#F7D7CA"/>
<path d="M139.529 18.8383L135.721 23.8349L135.282 24.412L133.558 24.123L132.516 23.952C132.428 23.9208 132.333 23.9155 132.243 23.9367C132.152 23.9579 132.068 24.0049 132 24.0726C131.598 24.5198 131.235 25.0131 130.854 25.4757L129.111 27.6089L128.056 28.8991C127.772 29.2462 128.248 29.7541 128.534 29.4061L132.024 25.1311L132.416 24.6514L134.331 24.9721C134.653 25.0268 134.975 25.0832 135.297 25.1345C135.389 25.1548 135.484 25.1432 135.569 25.1015C135.654 25.0598 135.724 24.9901 135.768 24.9028L138.919 20.7672L140.004 19.3436C140.278 18.9896 139.802 18.4783 139.529 18.8383ZM100.905 22.0941C100.664 21.9231 100.409 21.765 100.162 21.6008L98.4099 20.4397L98.612 14.2102L98.641 13.3005C98.6563 12.8379 97.9801 12.8388 97.9648 13.3005C97.9165 14.8098 97.8676 16.3186 97.8183 17.8268C97.7925 18.6442 97.7657 19.4616 97.7378 20.279C97.7321 20.4594 97.6879 20.6988 97.7989 20.8518C97.9933 21.0429 98.215 21.1999 98.4558 21.3169L100.422 22.6208V28.8845C100.422 28.9798 100.457 29.0711 100.521 29.1385C100.584 29.2058 100.67 29.2436 100.76 29.2436C100.849 29.2436 100.935 29.2058 100.999 29.1385C101.062 29.0711 101.098 28.9798 101.098 28.8845V22.5763C101.112 22.4849 101.101 22.3911 101.067 22.3058C101.033 22.2204 100.977 22.1471 100.905 22.0941ZM156.38 55.2151L153.127 57.8955L150.96 56.4198C150.908 56.387 150.849 56.3697 150.789 56.3697C150.729 56.3697 150.67 56.387 150.618 56.4198L147.442 58.7694C147.087 59.031 147.426 59.6543 147.784 59.3892L150.796 57.1611L152.97 58.6428C153.035 58.681 153.11 58.6962 153.183 58.686C153.257 58.6759 153.326 58.641 153.379 58.5864L156.853 55.723C157.201 55.44 156.719 54.9355 156.38 55.2151ZM75.0955 41.9703L72.1975 39.6866L72.823 37.0438C72.8408 36.9675 72.8353 36.8871 72.8074 36.8143C72.7795 36.7415 72.7306 36.68 72.6676 36.6385L69.0065 34.0513C68.6427 33.7948 68.3037 34.4155 68.6652 34.6712L72.1106 37.1062L71.4891 39.7345C71.4719 39.8108 71.4776 39.891 71.5055 39.9637C71.5333 40.0364 71.582 40.0979 71.6445 40.1398L74.7518 42.5902C75.1068 42.8664 75.4417 42.2431 75.0955 41.9703Z" fill="#F26722"/>
<path d="M112.903 8.29362C112.734 10.1319 112.603 11.9838 112.581 13.8315C112.567 14.3865 112.586 14.9421 112.64 15.4944C112.692 15.9476 113.369 15.9527 113.316 15.4944C113.227 14.4137 113.223 13.3268 113.305 12.2454C113.356 11.1517 113.427 10.059 113.518 8.96821C113.537 8.74335 113.555 8.51763 113.576 8.29191C113.621 7.83021 112.945 7.83277 112.903 8.29362ZM156.383 36.9814C155.184 37.6724 154.022 38.4352 152.904 39.266C152.553 39.5199 152.222 39.8039 151.914 40.115C151.851 40.1824 151.815 40.2737 151.815 40.3689C151.815 40.4642 151.851 40.5555 151.914 40.6229C151.978 40.6902 152.064 40.7281 152.154 40.7281C152.243 40.7281 152.329 40.6902 152.393 40.6229C152.97 40.0619 153.602 39.5681 154.279 39.1497C154.938 38.7038 155.607 38.2761 156.287 37.8672C156.432 37.7783 156.578 37.6905 156.724 37.6039C157.105 37.3773 156.764 36.7566 156.383 36.9814ZM77.3546 52.8708C76.7332 52.4998 76.1041 52.1438 75.4676 51.8029C74.5305 51.2376 73.5355 50.7884 72.502 50.4639C72.0794 50.3553 71.8991 51.0479 72.3225 51.1565C73.3176 51.4698 74.2755 51.9039 75.177 52.4501C75.7953 52.7835 76.4095 53.129 77.014 53.4906C77.0912 53.5343 77.1813 53.5445 77.2654 53.5192C77.3495 53.4938 77.421 53.4349 77.4651 53.3547C77.5091 53.2745 77.5222 53.1793 77.5016 53.0891C77.481 52.9988 77.4283 52.9206 77.3546 52.8708ZM115.77 65.1802C115.694 64.9675 115.588 64.7683 115.455 64.5894C115.228 64.2856 114.933 64.046 114.598 63.8917L114.5 65.0032L114.436 65.7334L114.315 67.1133C114.289 67.4055 114.19 67.685 114.029 67.9236C113.869 68.1622 113.651 68.3513 113.399 68.4719C111.695 69.3523 109.806 69.7543 107.914 69.6399C106.642 69.5202 104.475 69.091 104.216 67.4827C104.108 66.7088 104.048 65.9282 104.036 65.146C103.391 65.8712 102.952 66.776 102.771 67.7554C102.657 69.2226 104.279 70.0126 105.371 70.4564C107.705 71.4037 111.845 71.5679 113.984 69.9673C114.678 69.5288 115.23 68.8786 115.57 68.1015C115.91 67.3245 116.022 66.4566 115.891 65.6111C115.865 65.4634 115.824 65.3189 115.77 65.1802Z" fill="#F7D7CA"/>
<path d="M141.389 48.1461C141.221 48.1676 141.051 48.1446 140.893 48.0792C140.735 48.0137 140.595 47.9078 140.486 47.7709C140.376 47.634 140.3 47.4703 140.264 47.2945C140.228 47.1188 140.234 46.9363 140.281 46.7635C140.365 46.2854 140.529 45.8268 140.764 45.4092C140.492 45.5883 140.199 45.7278 139.892 45.8239C139.719 45.886 139.536 45.9109 139.354 45.8974C139.172 45.8838 138.994 45.832 138.831 45.7449C138.668 45.6579 138.522 45.5372 138.403 45.3901C138.284 45.2429 138.194 45.0721 138.138 44.8877C138.028 44.5624 137.986 44.2156 138.016 43.8714C138.046 43.5273 138.146 43.1942 138.309 42.8955C137.73 43.2732 137.048 43.4351 136.372 43.3555C136.187 43.2944 136.016 43.1902 135.873 43.0505C135.73 42.9107 135.619 42.7389 135.546 42.5475C135.473 42.3561 135.442 42.1499 135.453 41.9439C135.465 41.7379 135.52 41.5373 135.613 41.3565C136.058 40.4484 136.711 39.6743 137.512 39.1061C137.611 39.0266 137.71 38.9471 137.809 38.8693C137.548 37.8279 136.744 34.9637 135.797 35.0432C134.646 35.1389 134.689 41.3471 134.689 41.3471C133.751 43.3401 127.766 51.5866 124.801 55.6256C124.364 56.2241 123.996 56.7226 123.714 57.1022L124.318 57.7204L124.966 58.383C126.427 59.8792 127.889 61.3749 129.351 62.87L132.088 65.6659C135.389 61.5046 141.981 52.7725 144.145 46.8969C144.01 46.9824 143.877 47.0756 143.742 47.1594C143.035 47.6667 142.232 48.0034 141.389 48.1461Z" fill="#E59E70"/>
<path d="M144.482 42.1515C142.49 38.8281 140.643 38.3382 139.41 38.5374C139.382 38.6048 139.333 38.6606 139.272 38.6964C138.773 39.0079 138.294 39.3559 137.84 39.7378C137.161 40.2202 136.606 40.8739 136.224 41.6402C136.158 41.7716 136.126 41.9189 136.13 42.0677C136.134 42.2164 136.175 42.3614 136.248 42.4884C136.321 42.5707 136.414 42.631 136.516 42.6632C136.618 42.6953 136.727 42.6981 136.83 42.6713C137.57 42.5218 138.269 42.2007 138.878 41.7308C139.166 41.5404 139.447 41.3409 139.722 41.1323L139.834 41.0468C139.915 40.9776 139.995 40.9117 140.076 40.8502C140.388 40.6133 140.784 41.164 140.486 41.4145L140.416 41.4701L140.409 41.4752L140.381 41.4974C140.33 41.5769 140.401 41.4786 140.331 41.5385C140.225 41.6291 140.121 41.7214 140.02 41.8172C139.723 42.0899 139.453 42.3941 139.215 42.7252C138.785 43.3408 138.397 44.2582 138.909 44.9567C139.204 45.3603 139.714 45.191 140.144 44.9567C141.061 44.4069 141.875 43.6846 142.548 42.8252C142.838 42.479 143.314 42.9885 143.026 43.3331C142.638 43.7993 142.276 44.2889 141.941 44.7994C141.448 45.4264 141.099 46.1671 140.923 46.9626C140.914 47.0407 140.914 47.1196 140.923 47.1977C140.934 47.228 140.943 47.2595 140.948 47.2917C140.956 47.3192 140.97 47.3444 140.988 47.3655C141.006 47.3867 141.029 47.4032 141.054 47.414C141.304 47.4725 141.564 47.4481 141.8 47.3439C142.539 47.0725 143.242 46.6988 143.889 46.2324C144.09 46.1002 144.288 45.9634 144.485 45.822C144.936 44.271 144.99 42.9945 144.482 42.1515ZM89.7577 22.7002C88.6879 22.2385 86.5635 26.0305 86.5635 26.0305C86.5635 26.0305 84.4786 22.2206 79.4586 26.6854C79.1503 27.0219 78.9094 27.4214 78.7506 27.8596C78.5917 28.2979 78.5182 28.7657 78.5344 29.235C78.603 29.2964 78.6463 29.3839 78.6552 29.4787C78.6552 29.5001 78.6648 29.5573 78.6681 29.5864C78.7411 30.1409 78.8419 30.6909 78.9699 31.234C79.1107 32.0811 79.4421 32.8795 79.9359 33.5613C80.0197 33.6784 80.1291 33.772 80.2547 33.8339C80.3802 33.8959 80.5181 33.9244 80.6564 33.917C80.7542 33.8931 80.844 33.8411 80.9159 33.7668C80.9879 33.6925 81.0393 33.5986 81.0645 33.4955C81.2621 32.706 81.2786 31.8778 81.1129 31.0801C81.0472 30.5731 80.9547 30.0704 80.8359 29.5744C80.7482 29.1247 81.3785 28.9332 81.488 29.3838C81.5912 29.9019 81.7571 30.4036 81.9814 30.8766C82.1005 31.2215 82.294 31.532 82.5465 31.7831C82.799 32.0342 83.1034 32.2189 83.4353 32.3224C84.1066 32.4276 84.3779 32.03 84.3948 31.3751C84.38 30.6143 84.2405 29.862 83.9827 29.1521C83.8877 28.8494 83.7814 28.5536 83.6687 28.256C83.6244 28.1389 83.6365 28.1953 83.5882 28.05C83.5778 28.0206 83.5654 27.992 83.5512 27.9645C83.3717 27.5472 83.9537 27.1821 84.1348 27.602C84.3843 28.176 84.6635 28.7348 84.9712 29.276C85.3122 30.0168 85.8134 30.6614 86.4339 31.157C86.5292 31.2256 86.6409 31.2639 86.7559 31.2673C86.8006 31.2636 86.8431 31.245 86.8775 31.2143C86.9466 31.1324 86.9978 31.0351 87.0272 30.9296C87.0668 30.7989 87.0956 30.6647 87.1133 30.5286C87.19 29.7014 87.1575 28.8668 87.0167 28.0491C86.9531 27.5789 86.8791 27.1086 86.7817 26.6452C86.6883 26.1938 87.3403 26.0031 87.4337 26.4545C87.5708 27.1238 87.6748 27.8001 87.7452 28.4809C87.8963 29.3557 87.8738 30.2544 87.6792 31.1194C87.6405 31.283 87.5705 31.4363 87.4736 31.5699C87.3766 31.7035 87.2548 31.8144 87.1157 31.8958C86.9422 31.9673 86.7547 31.9916 86.5701 31.9665C86.3855 31.9414 86.2097 31.8677 86.0588 31.7521C85.6652 31.4727 85.3231 31.1192 85.0493 30.709C85.1112 31.1333 85.0943 31.5664 84.9994 31.9838C84.9418 32.1848 84.8462 32.3712 84.7182 32.5315C84.5903 32.6917 84.4328 32.8224 84.2555 32.9156C84.0782 33.0088 83.8848 33.0624 83.6873 33.0731C83.4897 33.0839 83.2922 33.0516 83.1068 32.9782C82.6222 32.8206 82.1956 32.5072 81.8857 32.0813C81.9907 32.8246 81.8354 33.5829 81.4493 34.2128C81.3108 34.3573 81.1444 34.468 80.9616 34.5372C80.7787 34.6065 80.5839 34.6327 80.3906 34.614C80.1973 34.5953 80.0101 34.5321 79.8421 34.4289C79.674 34.3257 79.5292 34.1848 79.4175 34.0162C79.2258 33.7776 79.0612 33.5159 78.9273 33.2364C80.4053 40.7082 85.5202 51.8643 87.0497 55.1022C88.0544 54.6205 89.0534 54.1275 90.0467 53.623C92.3072 52.4713 94.5547 51.2735 96.7516 49.9953C95.3879 46.6086 89.4132 31.6735 89.0236 29.0649C89.022 29.0649 90.8292 23.1619 89.7577 22.7002ZM112.098 63.9822C111.741 64.1224 111.374 64.2481 111.008 64.3575C110.872 64.3986 110.735 64.4345 110.598 64.4696C109.545 64.7597 108.453 64.8563 107.37 64.7551C106.771 64.6912 106.18 64.5588 105.608 64.3601C105.046 64.1656 104.506 63.9043 103.998 63.5812C104.005 64.078 104.017 64.5756 104.034 65.0715V65.1484C104.046 65.9306 104.106 66.7112 104.214 67.4851C104.473 69.0934 106.64 69.5226 107.912 69.6423C109.804 69.7568 111.693 69.3547 113.397 68.4744C113.649 68.3538 113.867 68.1646 114.028 67.926C114.188 67.6874 114.287 67.4079 114.313 67.1158L114.434 65.7358L114.499 65.0056L114.596 63.8941L114.714 62.5586C114.003 63.0874 113.234 63.521 112.423 63.8497C112.316 63.8924 112.208 63.9386 112.098 63.9822Z" fill="#E59E70"/>
<path d="M119.208 55.6976C118.869 55.6076 118.515 55.6055 118.175 55.6915C117.835 55.7775 117.52 55.9491 117.255 56.1918C117.216 56.222 117.171 56.2414 117.123 56.2483C117.075 56.2552 117.027 56.2493 116.982 56.2311C116.923 56.2218 116.868 56.1913 116.828 56.1446C116.787 56.0979 116.763 56.0379 116.759 55.9746C116.753 55.9344 116.746 55.8942 116.739 55.8541C116.401 53.7247 115.469 51.7522 114.064 50.1922C112.948 49.0092 111.483 48.2714 109.915 48.1035C108.758 47.9441 107.583 48.0798 106.486 48.4993C106.256 48.5978 106.031 48.7079 105.811 48.8294C105.517 48.9918 105.231 49.1716 104.955 49.368C104.255 49.8712 103.628 50.4807 103.094 51.1772C102.424 52.0591 101.901 53.0557 101.547 54.1244C101.201 55.0925 101.026 56.12 101.031 57.1554C101.035 57.3821 101.05 57.6084 101.076 57.8334C101.214 58.8185 101.544 59.7622 102.046 60.6036C102.547 61.445 103.209 62.1656 103.989 62.7189C104.923 63.4061 106.001 63.8421 107.128 63.9894L107.164 63.9945C108.11 64.1109 109.067 64.0682 110 63.868C110.871 63.6857 111.72 63.4034 112.533 63.0258C113.354 62.6645 114.119 62.1727 114.8 61.5672C115.063 61.327 115.304 61.0613 115.52 60.7737C115.741 60.4818 115.921 60.1565 116.052 59.8084C116.147 59.5519 116.195 59.3057 116.471 59.2099C116.859 59.1271 117.255 59.0984 117.649 59.1244C118.737 59.0817 120.396 58.5447 120.192 57.0588C120.147 56.763 120.034 56.4837 119.862 56.2461C119.69 56.0084 119.466 55.82 119.208 55.6976Z" fill="#E59E70"/>
<path d="M144.527 146.246C144.139 146.123 143.732 146.087 143.33 146.138C142.928 146.19 142.541 146.329 142.192 146.546C141.746 146.76 141.32 147.017 140.92 147.316H140.915C140.134 146.696 139.276 146.197 138.364 145.832C138.137 145.736 137.904 145.655 137.668 145.587C137.582 145.562 137.489 145.574 137.411 145.621C137.333 145.668 137.276 145.746 137.252 145.838C137.228 145.93 137.24 146.028 137.284 146.111C137.329 146.194 137.402 146.254 137.489 146.28C138.086 146.452 138.663 146.698 139.207 147.012C140.425 147.648 141.473 148.596 142.258 149.771C142.786 150.61 143.136 151.559 143.285 152.555C143.355 153.01 144.009 152.817 143.937 152.365C143.64 150.579 142.764 148.96 141.461 147.789C141.762 147.582 142.075 147.395 142.399 147.231C142.712 147.067 143.042 146.942 143.382 146.858C143.525 146.82 143.672 146.802 143.82 146.805C143.865 146.805 143.909 146.805 143.953 146.811H143.993C144.035 146.818 144.073 146.828 144.118 146.84C144.13 146.84 144.248 146.888 144.185 146.859C144.262 146.904 144.354 146.916 144.439 146.892C144.525 146.868 144.599 146.811 144.647 146.731C144.689 146.649 144.701 146.553 144.679 146.463C144.656 146.373 144.602 146.295 144.527 146.246ZM42.5042 85.0847L42.5203 85.1223C42.4945 85.0642 42.5308 85.1514 42.5348 85.1625C42.5533 85.2121 42.5702 85.2626 42.5863 85.313C42.6101 85.4048 42.6673 85.4829 42.7453 85.5299C42.8232 85.577 42.9156 85.5892 43.0021 85.564C43.0886 85.5387 43.162 85.4779 43.2063 85.3951C43.2506 85.3123 43.2622 85.2142 43.2384 85.1223C43.1195 84.7472 42.9494 84.3926 42.7336 84.0698C42.6332 83.9138 42.521 83.7669 42.3979 83.6304C42.3345 83.563 42.2485 83.5252 42.1588 83.5252C42.0692 83.5252 41.9832 83.563 41.9198 83.6304C41.8564 83.6977 41.8207 83.7891 41.8207 83.8843C41.8207 83.9796 41.8564 84.0709 41.9198 84.1382C41.9479 84.1682 41.9745 84.1998 42.0003 84.2323C42.026 84.2648 42.0574 84.3041 42.0808 84.34L42.0896 84.3528L42.1444 84.4324C42.2326 84.5626 42.3133 84.6986 42.3859 84.8393C42.4325 84.9197 42.4704 85.0009 42.5042 85.0847ZM49.5351 81.2988C49.564 81.3336 49.5922 81.3695 49.6196 81.4065L49.6292 81.4193L49.684 81.4989C49.7726 81.6289 49.8532 81.7649 49.9255 81.9058C49.9665 81.9862 50.006 82.0674 50.0406 82.1504C50.0446 82.1606 50.0817 82.247 50.0559 82.1888C50.0301 82.1307 50.0672 82.2179 50.0712 82.229C50.0889 82.2786 50.1058 82.3291 50.1219 82.3795C50.1457 82.4713 50.2029 82.5494 50.2809 82.5964C50.3588 82.6435 50.4512 82.6557 50.5377 82.6305C50.6242 82.6052 50.6976 82.5444 50.7419 82.4616C50.7862 82.3788 50.7978 82.2807 50.774 82.1888C50.6554 81.8135 50.4854 81.4589 50.2692 81.1363C50.1688 80.9803 50.0566 80.8334 49.9335 80.6969C49.8693 80.634 49.7847 80.5999 49.6974 80.6019C49.61 80.6038 49.5268 80.6415 49.4651 80.7072C49.4034 80.7728 49.368 80.8613 49.3663 80.9541C49.3647 81.0468 49.3969 81.1366 49.4562 81.2047C49.4827 81.2347 49.5077 81.2663 49.5351 81.2988ZM40.3259 80.6404C40.0883 80.7616 39.8671 80.916 39.6682 81.0996C39.2814 81.4344 38.9736 81.8605 38.7693 82.3439C38.5649 82.8274 38.4697 83.3549 38.4913 83.8843C38.4913 83.9795 38.5269 84.0709 38.5903 84.1382C38.6537 84.2056 38.7397 84.2434 38.8294 84.2434C38.919 84.2434 39.005 84.2056 39.0684 84.1382C39.1318 84.0709 39.1675 83.9795 39.1675 83.8843C39.1499 83.5411 39.1942 83.1975 39.2979 82.872C39.31 82.8335 39.3228 82.7942 39.3365 82.7566L39.355 82.7035C39.3824 82.636 39.4122 82.5702 39.4444 82.5052C39.5089 82.3765 39.5818 82.2528 39.6625 82.135L39.6899 82.0974L39.7374 82.0358C39.776 81.9862 39.8179 81.9375 39.859 81.8904C39.9353 81.8045 40.0159 81.7228 40.1005 81.6459C40.1262 81.6228 40.2373 81.5313 40.1576 81.5938C40.1946 81.5647 40.2309 81.5356 40.2687 81.5083C40.3307 81.4621 40.3951 81.4176 40.4603 81.3766C40.5258 81.3336 40.5939 81.2951 40.664 81.2612C40.7408 81.2127 40.7966 81.134 40.8192 81.0421C40.8418 80.9502 40.8294 80.8526 40.7847 80.7704C40.7383 80.6907 40.6649 80.6328 40.5796 80.6087C40.4943 80.5845 40.4035 80.5959 40.3259 80.6404ZM51.0573 85.5131C51.0233 85.4357 50.9621 85.3756 50.8869 85.3456C50.8117 85.3155 50.7284 85.318 50.6548 85.3523C50.6343 85.3604 50.6144 85.3702 50.5952 85.3814C50.5522 85.4033 50.5142 85.4352 50.4842 85.4746L50.4632 85.4968L50.4584 85.502C50.4045 85.5652 50.3529 85.6294 50.2974 85.6892C50.2063 85.7851 50.1112 85.8767 50.0124 85.9637C49.8853 86.0753 49.7522 86.1793 49.614 86.2749C48.5365 86.9912 47.3431 87.4884 46.0945 87.7412C44.9239 88.0011 43.7341 88.1518 42.5388 88.1918C42.4869 88.1925 42.4359 88.2057 42.3895 88.2304C42.3431 88.2552 42.3027 88.2908 42.2713 88.3347C42.2398 88.3786 42.2182 88.4295 42.2081 88.4835C42.198 88.5376 42.1996 88.5934 42.2128 88.6467C42.6983 90.2971 43.7507 91.6931 45.1607 92.5574C45.3258 92.644 45.4967 92.7177 45.6719 92.778C46.2634 92.9463 46.8831 92.9708 47.4848 92.8495C48.0865 92.7283 48.6546 92.4645 49.147 92.0778C49.3271 91.9481 49.4984 91.8052 49.6598 91.6503C50.5742 90.6888 51.1226 89.4029 51.1998 88.0388C51.2767 87.2617 51.2444 86.4768 51.104 85.7097C51.1119 85.6403 51.0953 85.5702 51.0573 85.5131ZM49.5793 90.6901C49.1833 91.228 48.6628 91.6477 48.0685 91.9084C47.4743 92.1691 46.8267 92.2619 46.1887 92.1778C45.1922 91.9023 44.3334 91.2308 43.7898 90.3019C43.516 89.8853 43.2763 89.4445 43.0733 88.9844L43.0307 88.8826C44.819 88.8184 46.5864 88.4537 48.2672 87.8019C49.0822 87.4857 49.842 87.0278 50.5155 86.4467C50.5479 86.7876 50.5611 87.1302 50.555 87.4727C50.5677 88.6293 50.2252 89.7588 49.5793 90.6901Z" fill="black"/>
<path d="M89.1137 127.638C88.5609 127.225 87.8988 127.008 87.2228 127.019C86.1393 126.951 85.0522 127.005 83.9794 127.18C84.1951 126.993 84.4093 126.803 84.6178 126.608C85.0471 126.219 85.4456 125.794 85.8092 125.336C86.1205 124.985 86.3422 124.556 86.4532 124.089C86.6246 123 85.4872 122.822 84.7361 122.899C83.5699 123.061 82.4263 123.373 81.3302 123.826C81.2601 123.851 81.1909 123.881 81.1209 123.911L81.1667 123.865C81.859 123.131 82.7276 121.992 82.2937 120.885C81.9983 120.136 81.1144 120.201 80.4889 120.303C79.3409 120.544 78.2236 120.927 77.1603 121.446C76.9188 121.552 76.6845 121.663 76.447 121.773C76.4386 121.618 76.4258 121.463 76.4084 121.309C76.3053 120.392 75.9986 119.196 74.9956 119.012C73.9926 118.828 73.2407 119.705 72.7207 120.492C72.0842 121.515 71.5646 122.615 71.1727 123.768C71.0653 124.064 70.9604 124.361 70.8579 124.659C70.0717 125.104 69.2898 125.556 68.5121 126.015C67.1251 120.607 65.034 115.431 62.2992 110.637C61.7212 109.634 61.1112 108.648 60.4694 107.681C61.5043 106.385 62.3635 104.943 63.022 103.395C63.7928 101.625 64.4352 99.796 64.9436 97.9226C65.8044 94.7763 66.4466 91.5672 66.8651 88.321C66.9553 87.6447 67.043 86.9667 67.1066 86.2869C67.1068 86.2083 67.0826 86.1318 67.0378 86.0693C66.993 86.0067 66.93 85.9615 66.8587 85.9407C66.6767 85.9022 66.494 85.8671 66.3121 85.8295C64.6683 85.4927 63.0156 85.2011 61.3662 84.9001C59.2871 84.5205 57.2075 84.1457 55.1274 83.7758L53.8016 83.5407H53.771C53.6787 83.2654 53.5791 82.9935 53.4723 82.725C53.3258 82.3574 53.168 81.9966 52.9982 81.646C52.1164 79.7557 50.7843 78.1434 49.1342 76.9692C49.2148 75.5922 49.0682 74.2108 48.7011 72.8874C48.3371 71.4914 47.5852 70.2444 46.5437 69.3092C45.124 68.19 43.388 67.6171 41.6211 67.6847C39.444 67.6079 37.2906 68.1855 35.4089 69.3511C34.1301 70.2437 33.1164 71.5039 32.486 72.9849C31.9955 74.2433 31.5714 75.5298 31.2157 76.8384C31.0878 77.3109 30.8952 77.7608 30.6441 78.1739C30.6329 78.191 30.5733 78.2756 30.5717 78.2799C30.5491 78.3098 30.5258 78.3397 30.5008 78.3654C30.4376 78.4394 30.369 78.508 30.2956 78.5706C30.2763 78.5843 30.2215 78.6262 30.2078 78.6347C30.1724 78.6578 30.1362 78.6783 30.1 78.6988L30.0621 78.7176C30.0509 78.7228 30.0275 78.7339 30.0195 78.7364C29.8367 78.8083 29.6516 78.8732 29.4656 78.934C28.3169 79.3093 27.0965 79.3948 25.9582 79.7966C25.5256 79.9161 25.1314 80.1573 24.817 80.4948C24.5026 80.8323 24.2798 81.2537 24.1719 81.7144C23.9514 83.15 25.6411 83.7775 26.8196 84.0614C26.3003 84.4329 25.8931 84.9557 25.6467 85.567C25.1122 87.0676 26.4936 88.5647 27.8202 88.7784C28.0735 88.8187 28.3303 88.8291 28.5858 88.8092C28.6216 89.191 28.7682 89.5516 29.0052 89.8412C29.0205 89.8609 29.0382 89.8788 29.0543 89.8976C28.9819 90.1098 28.9377 90.3317 28.923 90.5568C28.9432 91.0945 29.1015 91.616 29.3807 92.065C29.66 92.514 30.0496 92.8732 30.5073 93.1039C31.6754 93.798 33.0388 94.0258 34.3512 93.746C34.7765 94.3237 35.27 94.8409 35.8195 95.285C36.2097 95.6105 36.6198 95.9081 37.0471 96.1759C38.2295 96.9172 39.5228 97.4377 40.8709 97.7149C44.7131 98.5117 49.2002 97.6379 52.0282 94.6018C52.132 94.4907 52.2342 94.377 52.3333 94.2598C53.6695 92.668 54.4435 90.6324 54.5229 88.5014C54.5714 87.0817 54.3959 85.6633 54.0036 84.3051C55.1092 84.5011 56.2147 84.6984 57.3202 84.8967C59.5678 85.3003 61.8145 85.7104 64.0605 86.1271C64.8397 86.2733 65.619 86.4203 66.395 86.5802C66.2259 88.2902 65.9611 89.9788 65.648 91.7162C65.0509 95.3792 64.0666 98.9589 62.7137 102.387C62.0495 104.085 61.1545 105.669 60.0572 107.09C58.9974 105.533 57.8367 104.056 56.5837 102.67C56.2198 102.27 55.8495 101.868 55.4502 101.507C55.121 101.209 54.6404 101.715 54.972 102.015C56.1479 103.134 57.2256 104.365 58.192 105.691C60.7782 109.124 62.951 112.887 64.6602 116.892C65.9788 119.953 67.0585 123.125 67.8883 126.374L67.2129 126.775C65.4617 127.921 63.6141 128.892 61.6938 129.675C60.145 130.236 58.532 130.572 56.8984 130.674C55.2813 130.779 53.6587 130.62 52.0869 130.203C52.1368 130.118 52.1867 130.032 52.2358 129.941C52.2802 129.858 52.2924 129.761 52.2698 129.669C52.2472 129.577 52.1917 129.498 52.1151 129.449C51.1633 128.877 50.268 128.205 49.4425 127.443C47.4216 125.659 45.6968 123.528 44.3396 121.138C43.3425 119.368 42.5713 117.466 42.0462 115.481C42.0224 115.389 41.9652 115.311 41.8872 115.264C41.8092 115.217 41.7168 115.205 41.6304 115.23C41.5439 115.255 41.4704 115.316 41.4261 115.399C41.3818 115.482 41.3703 115.58 41.3941 115.672C42.2991 119.049 43.8778 122.179 46.0229 124.851C47.4081 126.593 49.0097 128.128 50.7836 129.413C51.0106 129.577 51.2422 129.734 51.4783 129.884C48.7534 134.726 45.77 139.399 42.5428 143.879C42.3754 144.111 42.2329 144.306 42.0647 144.536C39.8321 143.339 37.9004 141.593 36.4297 139.445C35.0848 137.407 34.1026 135.125 33.5317 132.711C32.9959 130.493 32.6988 128.219 32.6462 125.93C32.5956 124.139 32.6621 122.347 32.845 120.566C32.9086 119.94 32.9569 119.549 33.0487 118.942C33.0881 118.679 33.1364 118.418 33.1799 118.155L33.1871 118.12C33.2773 117.67 32.6236 117.476 32.5351 117.93C32.3942 118.632 32.3057 119.351 32.2235 120.067C32.0246 121.796 31.9355 123.536 31.9571 125.278C31.973 127.586 32.2213 129.886 32.6977 132.139C33.2117 134.626 34.1312 136.999 35.4146 139.15C36.8395 141.477 38.768 143.409 41.0391 144.783C41.3482 144.968 41.6622 145.143 41.981 145.309C42.0317 145.336 42.0873 145.351 42.144 145.353C42.2007 145.355 42.2572 145.344 42.3094 145.32C46.6282 147.793 51.6796 148.319 56.4887 147.635C58.798 147.305 61.067 146.711 63.2563 145.864C65.4951 144.977 67.6408 143.844 69.6585 142.484L69.7084 142.45C69.9644 142.279 70.2193 142.108 70.4731 141.937C71.4307 141.275 72.3765 140.594 73.3099 139.894L74.0151 139.365C74.8201 138.759 75.6251 138.15 76.4301 137.546C78.3906 136.015 80.442 134.619 82.5715 133.368C83.6985 132.738 84.8255 132.11 85.9219 131.425C86.5804 131.014 87.2332 130.587 87.8539 130.114C88.3512 129.774 88.7939 129.352 89.1652 128.863C89.2402 128.78 89.2987 128.682 89.3369 128.575C89.3751 128.468 89.3923 128.353 89.3875 128.239C89.3827 128.124 89.3559 128.012 89.3088 127.908C89.2617 127.805 89.1954 127.713 89.1137 127.638ZM52.5095 92.8619C52.3429 93.1201 52.1631 93.3684 51.971 93.6058C49.7033 96.4409 45.8788 97.5131 42.4792 97.2233C40.5306 97.0771 38.647 96.4174 36.9988 95.3038L36.9883 95.2961C36.4732 94.9405 35.9917 94.5327 35.5506 94.0786C35.3371 93.859 35.1352 93.6269 34.9461 93.3834L34.8849 93.3031L34.8809 93.2971C34.8527 93.2561 34.8229 93.2159 34.8004 93.1731C34.7613 93.1063 34.7034 93.0544 34.6348 93.0247C34.5663 92.9951 34.4906 92.9892 34.4188 93.0081C33.3578 93.2782 32.2426 93.1697 31.2455 92.6994C30.5266 92.3532 29.6894 91.7171 29.6097 90.8048C29.5993 90.6731 29.6056 90.5405 29.6282 90.4106C29.649 90.2856 29.6828 90.1635 29.7289 90.0464C29.7735 89.9358 29.8274 89.8296 29.8899 89.7292C30.1574 89.2915 30.5657 88.9721 31.0386 88.8306C31.8063 88.6979 32.5935 88.8575 33.2612 89.2812C33.588 89.4583 33.9025 89.6601 34.2022 89.8848L34.3415 89.9908L34.4437 90.0763L34.5242 90.1439C34.5742 90.1895 34.6353 90.2192 34.7005 90.2294H34.7255C34.805 90.2442 34.8869 90.2268 34.9548 90.1805C35.0228 90.1343 35.072 90.0626 35.0926 89.9797C35.118 89.9156 35.1203 89.8437 35.099 89.7779C35.0298 87.0547 35.099 84.0674 36.2993 81.5964C37.329 79.5855 38.9618 77.9978 40.9385 77.0854C42.8538 76.1248 45.0421 75.9771 47.0565 76.6725C47.5344 76.8477 47.9952 77.0719 48.4322 77.3419C48.5417 77.4086 48.6488 77.4779 48.7542 77.5506C48.8597 77.6232 48.9659 77.6976 49.069 77.7746C50.1258 78.5796 51.0305 79.5887 51.7359 80.7491C53.8772 84.2298 54.8304 89.2119 52.5095 92.8619ZM72.876 121.559C73.2383 120.89 73.7954 119.886 74.5343 119.72C74.6809 119.682 74.8346 119.692 74.9762 119.747C75.1178 119.802 75.2408 119.9 75.3297 120.03C75.5469 120.388 75.6789 120.796 75.7145 121.221C75.7517 121.504 75.7727 121.789 75.7773 122.076C74.4077 122.731 73.0565 123.429 71.7257 124.169C72.0444 123.269 72.4293 122.396 72.8769 121.559H72.876ZM88.7007 128.291V128.297C88.7112 128.278 88.7233 128.245 88.7015 128.291H88.7007ZM88.7168 128.233C88.715 128.252 88.7101 128.27 88.7023 128.287L88.6975 128.297C88.6106 128.473 88.4925 128.629 88.3498 128.757C88.151 128.96 87.9402 129.149 87.7186 129.323C87.137 129.775 86.5341 130.196 85.9122 130.584C84.7852 131.302 83.6292 131.959 82.466 132.605C79.2409 134.542 76.1426 136.709 73.1924 139.09C72.9574 139.267 72.7218 139.443 72.4856 139.618C71.8593 140.085 71.2268 140.543 70.5882 140.992C70.2662 141.218 69.9386 141.44 69.611 141.66C69.3534 141.831 69.0939 142.002 68.8325 142.173C67.4012 143.115 65.9037 143.938 64.3535 144.636C62.2938 145.541 60.1512 146.217 57.9602 146.652C53.3934 147.56 48.4797 147.421 44.1609 145.462C43.6862 145.245 43.2202 145.006 42.7642 144.747C45.0182 141.704 47.1008 138.512 49.0972 135.28C49.9993 133.82 50.8759 132.344 51.7271 130.85C52.9617 131.226 54.2399 131.415 55.5243 131.413C58.8214 131.46 62.0749 130.609 64.9742 128.941C66.7492 127.936 68.4775 126.835 70.2501 125.823L70.5359 125.662L70.9634 125.42L71.3876 125.181C72.6289 124.486 73.8831 123.813 75.1502 123.174C75.3538 123.072 75.5583 122.971 75.7636 122.87C75.8771 122.814 75.9906 122.758 76.1049 122.703L76.4502 122.538C77.3181 122.12 78.2046 121.747 79.1067 121.421C79.5851 121.245 80.0751 121.106 80.5726 121.007C80.739 120.975 80.9075 120.957 81.0766 120.953C81.2001 120.942 81.3245 120.954 81.4445 120.987C81.4718 120.994 81.4976 121.004 81.525 121.014L81.5491 121.026C81.5692 121.037 81.5885 121.049 81.6071 121.063L81.6216 121.079L81.6312 121.091C81.645 121.111 81.6561 121.132 81.6642 121.155C81.6919 121.233 81.7111 121.315 81.7214 121.398C81.7087 121.887 81.5303 122.354 81.2191 122.713C80.6387 123.476 79.9483 124.137 79.1736 124.67C79.1236 124.706 79.0745 124.742 79.0238 124.777C78.948 124.826 78.8934 124.905 78.8716 124.996C78.8499 125.087 78.8628 125.184 78.9075 125.266C78.9523 125.347 79.0254 125.406 79.111 125.431C79.1966 125.455 79.2878 125.443 79.3651 125.397L79.465 125.352L79.5696 125.305L79.7765 125.214C80.1704 125.043 80.5665 124.88 80.9647 124.723C81.9831 124.302 83.0312 123.967 84.0994 123.721C84.5171 123.615 84.9475 123.576 85.3761 123.607C85.4885 123.621 85.5976 123.656 85.6981 123.711C85.7123 123.726 85.7276 123.74 85.744 123.752C85.7539 123.766 85.7631 123.781 85.7713 123.797C85.7765 123.816 85.7805 123.835 85.7834 123.855C85.786 123.98 85.7583 124.104 85.7029 124.215C85.6147 124.403 85.5082 124.581 85.3849 124.746C85.0621 125.172 84.7044 125.566 84.3159 125.925C83.7531 126.469 83.1595 126.977 82.5385 127.444C82.4707 127.49 82.4203 127.56 82.3963 127.641C82.3724 127.722 82.3763 127.81 82.4075 127.889C82.4386 127.967 82.495 128.032 82.5666 128.07C82.6382 128.109 82.7203 128.119 82.7985 128.1C83.8491 127.887 84.9134 127.76 85.9823 127.719C86.6963 127.658 87.4149 127.716 88.1123 127.89C88.333 127.941 88.5369 128.054 88.7032 128.217L88.7144 128.229L88.7168 128.233Z" fill="black"/>
<path d="M36.8307 104.225C37.1607 103.687 37.5028 103.156 37.8635 102.639C37.9222 102.554 37.981 102.468 38.0414 102.388L38.1026 102.303L38.1364 102.256L38.2314 102.131L38.3038 102.035L38.3256 102.007C38.3737 101.946 38.4024 101.871 38.4075 101.791C38.4126 101.712 38.3939 101.633 38.354 101.566C38.3142 101.499 38.2552 101.447 38.1857 101.418C38.1162 101.388 38.0397 101.383 37.9673 101.403C37.9208 101.425 37.8797 101.457 37.8474 101.499C37.3808 102.102 36.9457 102.731 36.5441 103.385C35.4474 105.131 34.4595 106.952 33.5865 108.836C32.2133 111.781 31.0482 114.832 30.1009 117.961C28.8321 122.15 27.8919 126.443 27.2898 130.796C26.5369 136.239 26.2242 141.741 26.3552 147.241C26.3713 148.003 26.3954 148.765 26.4276 149.527C26.447 149.987 27.1232 149.989 27.1038 149.527C26.8556 143.904 27.0617 138.269 27.7197 132.683C28.2511 128.229 29.1305 123.829 30.3488 119.529C31.262 116.292 32.4049 113.134 33.7676 110.081C34.666 108.059 35.6892 106.103 36.8307 104.225ZM42.3723 107.87C44.6373 108.207 46.9456 107.943 49.0908 107.1C50.7524 106.43 52.3016 105.48 53.6793 104.287C54.0198 103.998 53.5384 103.493 53.2011 103.779C51.0533 105.667 48.4414 106.861 45.6744 107.221C44.0126 107.413 42.3314 107.254 40.7277 106.754C40.506 106.683 40.2869 106.604 40.0708 106.517L39.9275 106.454L39.9098 106.447C39.5178 106.253 39.174 106.874 39.5685 107.067C40.4614 107.477 41.4059 107.748 42.3723 107.87ZM48.6143 55.4187L48.727 55.4349C48.7366 55.4349 48.7463 55.4409 48.7559 55.4426C48.8319 55.4571 48.909 55.464 48.9862 55.4631C49.2154 55.4498 49.4354 55.3631 49.6173 55.2143C49.9556 54.9129 50.2067 54.516 50.3418 54.0695C50.3635 54.0105 50.3812 53.9498 50.4005 53.8899C50.4738 54.1849 50.6014 54.4615 50.7759 54.7038C50.9504 54.9461 51.1684 55.1493 51.4173 55.3015C51.8127 55.4889 52.2581 55.5206 52.6736 55.3911C53.0891 55.2615 53.4476 54.9791 53.685 54.5945C54.0592 53.9922 54.2985 53.3069 54.3845 52.5912C54.5127 53.0654 54.6675 53.5311 54.8482 53.9857C55.0744 54.5509 55.4165 55.3289 56.0492 55.4623C56.417 55.4916 56.7844 55.4009 57.1022 55.2022C57.42 55.0036 57.6731 54.7065 57.8275 54.3508C58.147 53.6795 58.3258 52.9427 58.3515 52.1911C58.3829 51.5531 58.3708 50.9136 58.3153 50.2776C58.3086 50.2053 58.2827 50.1365 58.2404 50.0794C58.1982 50.0222 58.1415 49.9791 58.077 49.955C58.0125 49.931 57.9428 49.927 57.8762 49.9435C57.8096 49.9601 57.7489 49.9965 57.7011 50.0484C57.677 50.0804 57.6591 50.1171 57.6485 50.1564C57.6379 50.1957 57.6347 50.2369 57.6391 50.2776C57.7903 51.4264 57.6981 52.5965 57.3694 53.7027C57.1706 54.2405 56.7528 54.8014 56.1813 54.7578C56.1649 54.7545 56.149 54.7494 56.1338 54.7424C56.1169 54.7304 56.0589 54.6936 56.0444 54.6825C56.0839 54.7125 55.98 54.6193 55.9639 54.597C55.9219 54.5511 55.8832 54.5019 55.848 54.45C55.6718 54.1782 55.5277 53.8844 55.4189 53.5753C55.1528 52.8356 54.9415 52.0749 54.787 51.3001C54.6872 50.8299 54.5954 50.3596 54.5238 49.88C54.4642 49.4816 53.8379 49.5739 53.8596 49.9757C53.9733 51.2378 53.813 52.5107 53.3911 53.6967C53.1287 54.326 52.6232 54.9151 51.9099 54.7313C51.2579 54.5603 51.0244 53.7155 50.9029 53.1068C50.8008 52.5707 50.761 52.0234 50.7845 51.4771C50.8055 51.0137 50.1405 51.0197 50.1083 51.4771C50.0791 52.2058 49.9672 52.9281 49.7751 53.6283C49.6854 53.9758 49.523 54.2973 49.3001 54.5688C49.2808 54.5893 49.2591 54.609 49.2381 54.6287L49.2261 54.6364C49.1858 54.6653 49.1438 54.6916 49.1005 54.715L49.0522 54.7321L49.0007 54.7449H48.8904C48.5473 54.7067 48.2262 54.5474 47.9783 54.2926C47.719 53.9976 47.5238 53.6455 47.4068 53.2615C47.1418 52.3956 47.0073 51.4907 47.0083 50.5802C46.9897 50.0146 47.0051 49.4483 47.0542 48.8848C47.0601 48.8467 47.0589 48.8077 47.0505 48.7701C47.0421 48.7325 47.0267 48.6971 47.0053 48.6659C46.9838 48.6347 46.9567 48.6083 46.9256 48.5884C46.8945 48.5684 46.8599 48.5552 46.8239 48.5496C46.7737 48.5373 46.7215 48.5365 46.6709 48.5471C46.6203 48.5577 46.5724 48.5795 46.5303 48.6112C46.4882 48.6428 46.4529 48.6835 46.4266 48.7307C46.4004 48.7778 46.3838 48.8303 46.378 48.8848C46.3289 49.4061 46.3061 49.9298 46.3095 50.4537C46.2982 51.4916 46.4542 52.524 46.7708 53.506C46.888 53.9713 47.1211 54.3945 47.4454 54.731C47.7698 55.0676 48.1736 55.3051 48.6143 55.4187ZM118.453 78.5105L111.346 77.7632L110.339 77.6572C109.907 77.6119 109.91 78.3301 110.339 78.3754L117.446 79.1227L118.453 79.2287C118.885 79.274 118.883 78.5558 118.453 78.5105ZM121.204 52.5476C120.024 52.2817 121.883 50.4101 119.793 46.9414C117.703 43.4726 107.822 41.8806 103.804 44.1276C99.7865 46.3745 100.791 49.0806 100.791 49.0806C99.7519 49.4532 98.8213 50.1057 98.0904 50.9744L98.2103 51.2309L100.426 55.8881C100.359 56.3645 100.337 56.8468 100.358 57.3279C100.436 58.584 100.798 59.8018 101.412 60.8787C102.026 61.9557 102.874 62.8602 103.886 63.5164L103.949 63.5557L103.997 63.5856C104.505 63.9087 105.045 64.17 105.607 64.3645C106.179 64.5632 106.77 64.6956 107.369 64.7595C108.453 64.8607 109.545 64.7641 110.598 64.474C110.734 64.4389 110.871 64.403 111.007 64.362C111.376 64.2525 111.741 64.1269 112.097 63.9866C112.207 63.943 112.316 63.8969 112.425 63.8515C113.236 63.5229 114.005 63.0893 114.715 62.5605L114.598 63.896C114.933 64.0503 115.227 64.2899 115.455 64.5937L119.746 59.7681L122.62 56.5362C122.692 56.4625 122.787 56.4213 122.887 56.4213C122.986 56.4213 123.082 56.4625 123.153 56.5362L123.717 57.109C123.996 56.7294 124.367 56.2267 124.803 55.6324C124.465 54.8605 123.965 54.1812 123.341 53.6465C122.717 53.1118 121.986 52.7359 121.204 52.5476ZM117.652 59.126C117.257 59.0999 116.862 59.1286 116.474 59.2115C116.198 59.3038 116.152 59.5458 116.055 59.81C115.923 60.158 115.744 60.4833 115.523 60.7753C115.306 61.0629 115.065 61.3285 114.803 61.5687C114.121 62.1742 113.357 62.6661 112.536 63.0273C111.723 63.4049 110.873 63.6873 110.003 63.8695C109.07 64.0697 108.112 64.1124 107.167 63.996L107.131 63.9909C106.003 63.8436 104.926 63.4076 103.992 62.7204C103.212 62.1671 102.55 61.4466 102.049 60.6051C101.547 59.7637 101.217 58.8201 101.079 57.8349C101.053 57.6099 101.038 57.3836 101.034 57.1569C101.029 56.1215 101.204 55.094 101.549 54.1259C101.904 53.0573 102.427 52.0606 103.097 51.1787C103.63 50.4823 104.257 49.8727 104.958 49.3696C105.234 49.1732 105.52 48.9933 105.814 48.8309C106.049 48.7018 106.297 48.5812 106.489 48.5009C107.586 48.0813 108.761 47.9456 109.917 48.105C111.486 48.2729 112.951 49.0108 114.066 50.1938C115.472 51.7538 116.404 53.7262 116.742 55.8556L116.762 55.9761C116.766 56.0395 116.79 56.0995 116.831 56.1462C116.871 56.1928 116.925 56.2234 116.985 56.2326C117.03 56.2508 117.078 56.2567 117.126 56.2498C117.174 56.243 117.219 56.2235 117.258 56.1933C117.523 55.9506 117.838 55.779 118.178 55.693C118.518 55.607 118.872 55.6091 119.211 55.6991C119.469 55.8213 119.695 56.0099 119.867 56.2479C120.039 56.4858 120.153 56.7656 120.197 57.062C120.399 58.5463 118.738 59.0806 117.652 59.126ZM87.4322 26.4504C87.3388 25.999 86.6867 26.1939 86.7801 26.6411C86.8775 27.1054 86.9516 27.5748 87.0152 28.045C87.156 28.8627 87.1885 29.6973 87.1118 30.5245C87.0941 30.6606 87.0652 30.7947 87.0256 30.9255C86.9962 31.031 86.9451 31.1283 86.8759 31.2102C86.8416 31.2409 86.7991 31.2595 86.7543 31.2632C86.6393 31.2598 86.5276 31.2215 86.4324 31.1529C85.8119 30.6573 85.3107 30.0127 84.9697 29.2719C84.662 28.7307 84.3827 28.1718 84.1333 27.5978C83.9521 27.178 83.3701 27.5431 83.5496 27.9604C83.5625 27.9894 83.5762 28.0185 83.5867 28.0459C83.6366 28.1912 83.6245 28.1314 83.6672 28.2519C83.7799 28.5469 83.8861 28.8453 83.9811 29.148C84.239 29.8579 84.3785 30.6102 84.3933 31.371C84.3764 32.0259 84.1051 32.4235 83.4337 32.3183C83.1018 32.2148 82.7974 32.0301 82.5449 31.779C82.2925 31.5279 82.0989 31.2174 81.9799 30.8725C81.7556 30.3995 81.5897 29.8978 81.4864 29.3797C81.3769 28.9291 80.7466 29.1232 80.8344 29.5703C80.9532 30.0663 81.0456 30.569 81.1113 31.076C81.2771 31.8736 81.2605 32.7019 81.063 33.4914C81.0377 33.5945 80.9863 33.6884 80.9144 33.7627C80.8424 33.837 80.7527 33.8889 80.6549 33.9129C80.5166 33.9203 80.3787 33.8918 80.2531 33.8298C80.1276 33.7678 80.0182 33.6743 79.9344 33.5572C79.4406 32.8754 79.1092 32.077 78.9684 31.2299C78.8398 30.6869 78.739 30.1369 78.6665 29.5823C78.6665 29.5532 78.6561 29.4968 78.6536 29.4746C78.6448 29.3797 78.6015 29.2923 78.5329 29.2309C78.3276 29.0454 77.9404 29.1232 77.9774 29.4746C78.0429 30.0757 78.1437 30.672 78.2793 31.2598C78.4178 31.9426 78.6341 32.605 78.9233 33.2323C79.0573 33.5118 79.2218 33.7735 79.4136 34.012C79.5252 34.1807 79.6701 34.3215 79.8381 34.4248C80.0061 34.528 80.1933 34.5912 80.3866 34.6099C80.5799 34.6286 80.7748 34.6024 80.9576 34.5331C81.1404 34.4638 81.3069 34.3531 81.4454 34.2087C81.8315 33.5788 81.9867 32.8205 81.8817 32.0772C82.1916 32.5031 82.6183 32.8165 83.1029 32.9741C83.2882 33.0475 83.4858 33.0798 83.6833 33.069C83.8809 33.0583 84.0743 33.0046 84.2516 32.9115C84.4289 32.8183 84.5863 32.6876 84.7143 32.5274C84.8422 32.3671 84.9379 32.1807 84.9954 31.9797C85.0903 31.5623 85.1073 31.1292 85.0453 30.7049C85.3192 31.115 85.6613 31.4685 86.0548 31.748C86.2058 31.8636 86.3815 31.9373 86.5661 31.9624C86.7507 31.9875 86.9383 31.9632 87.1118 31.8916C87.2509 31.8103 87.3727 31.6994 87.4696 31.5658C87.5666 31.4322 87.6366 31.2789 87.6753 31.1153C87.8706 30.2519 87.8945 29.3548 87.7453 28.4811C87.6744 27.7988 87.5699 27.121 87.4322 26.4504ZM145.01 45.428C144.842 45.5588 144.67 45.6845 144.497 45.8076C144.301 45.9484 144.102 46.0852 143.901 46.218C143.254 46.6844 142.552 47.0581 141.812 47.3295C141.576 47.4337 141.316 47.4582 141.066 47.3996C141.041 47.3888 141.018 47.3723 141 47.3511C140.982 47.33 140.968 47.3048 140.96 47.2774C140.955 47.2452 140.946 47.2136 140.935 47.1833C140.926 47.1052 140.926 47.0263 140.935 46.9482C141.111 46.1528 141.46 45.412 141.953 44.785C142.288 44.2745 142.65 43.7849 143.038 43.3187C143.326 42.9767 142.85 42.4637 142.56 42.8108C141.887 43.6702 141.073 44.3925 140.156 44.9424C139.725 45.1783 139.216 45.3476 138.921 44.9424C138.409 44.2438 138.798 43.3264 139.227 42.7108C139.465 42.3798 139.735 42.0755 140.032 41.8028C140.133 41.707 140.237 41.6147 140.343 41.5241C140.413 41.4642 140.343 41.5626 140.393 41.483L140.421 41.4608L140.429 41.4557L140.498 41.4001C140.796 41.1496 140.4 40.599 140.088 40.8358C140.008 40.8974 139.927 40.9632 139.847 41.0325L139.734 41.1179C139.459 41.3288 139.178 41.5283 138.89 41.7164C138.281 42.1863 137.582 42.5074 136.842 42.6569C136.739 42.6837 136.63 42.6809 136.528 42.6488C136.426 42.6167 136.333 42.5563 136.26 42.474C136.187 42.3471 136.146 42.2021 136.142 42.0533C136.138 41.9046 136.17 41.7572 136.236 41.6258C136.618 40.8595 137.173 40.2059 137.852 39.7234C138.306 39.3415 138.785 38.9935 139.285 38.6821C139.345 38.6462 139.394 38.5904 139.422 38.523C139.449 38.4536 139.455 38.3771 139.439 38.304C139.424 38.2309 139.387 38.1646 139.335 38.1143C139.283 38.0639 139.217 38.0319 139.147 38.0226C139.077 38.0133 139.006 38.0271 138.943 38.0622C138.554 38.3057 138.178 38.5718 137.816 38.859C137.716 38.9368 137.617 39.0164 137.519 39.0959C136.718 39.664 136.065 40.4381 135.62 41.3462C135.526 41.527 135.472 41.7277 135.46 41.9337C135.448 42.1397 135.48 42.3459 135.553 42.5373C135.625 42.7287 135.737 42.9005 135.88 43.0402C136.023 43.18 136.194 43.2842 136.379 43.3452C137.055 43.4248 137.737 43.2629 138.316 42.8852C138.153 43.184 138.053 43.517 138.023 43.8612C137.993 44.2053 138.035 44.5521 138.145 44.8774C138.2 45.0625 138.289 45.2342 138.407 45.3824C138.525 45.5307 138.669 45.6526 138.832 45.741C138.994 45.8295 139.172 45.8827 139.354 45.8977C139.536 45.9126 139.72 45.889 139.893 45.8281C140.2 45.732 140.493 45.5926 140.765 45.4135C140.53 45.8311 140.367 46.2896 140.282 46.7678C140.235 46.9406 140.229 47.123 140.265 47.2988C140.301 47.4746 140.377 47.6382 140.487 47.7751C140.597 47.912 140.737 48.0179 140.894 48.0834C141.052 48.1489 141.222 48.1719 141.391 48.1503C142.231 48.0075 143.032 47.6716 143.737 47.1662C143.873 47.0807 144.006 46.9952 144.14 46.9037C144.553 46.6353 144.961 46.3557 145.347 46.0487C145.698 45.7768 145.361 45.1535 145.01 45.428ZM109.715 39.5097C109.78 39.5832 109.843 39.6602 109.903 39.7388L109.946 39.7961L109.97 39.8295C110.008 39.885 110.045 39.9398 110.082 40.0005C110.516 40.684 110.831 41.4448 111.011 42.2465C111.038 42.3345 111.096 42.4081 111.173 42.452C111.249 42.4958 111.339 42.5066 111.423 42.482C111.507 42.4575 111.579 42.3994 111.623 42.3201C111.668 42.2407 111.682 42.146 111.663 42.0559C111.468 41.1936 111.13 40.3749 110.666 39.6379C110.486 39.3409 110.269 39.0704 110.022 38.8334C109.958 38.7683 109.872 38.732 109.783 38.732C109.695 38.732 109.609 38.7683 109.545 38.8334C109.482 38.9011 109.447 38.9923 109.447 39.0873C109.447 39.1824 109.482 39.2736 109.545 39.3413C109.604 39.394 109.661 39.4503 109.715 39.5097ZM112.454 41.8567C112.54 41.8807 112.632 41.8678 112.71 41.8208C112.787 41.7739 112.845 41.6965 112.869 41.6053C112.878 41.5597 112.888 41.5146 112.902 41.4702C112.915 41.4215 112.931 41.3736 112.947 41.3257L112.983 41.2308C112.938 41.3591 112.983 41.2231 113 41.1932C113.078 41.0193 113.169 40.8523 113.272 40.6939C113.302 40.6428 113.335 40.594 113.371 40.5477C113.313 40.6152 113.377 40.54 113.389 40.5246L113.448 40.4485C113.535 40.3396 113.627 40.2356 113.723 40.1364C113.786 40.0691 113.822 39.9777 113.822 39.8825C113.822 39.7872 113.786 39.6959 113.723 39.6285C113.659 39.5612 113.573 39.5234 113.484 39.5234C113.394 39.5234 113.308 39.5612 113.244 39.6285C112.904 39.9743 112.623 40.3816 112.416 40.8315C112.326 41.0159 112.259 41.2119 112.217 41.4146C112.196 41.5065 112.208 41.6037 112.252 41.686C112.296 41.7683 112.369 41.8294 112.454 41.8567ZM101.365 68.9986C101.09 69.4656 100.834 69.9448 100.598 70.435C99.9206 71.8123 99.3094 73.2252 98.7666 74.6681C97.9395 76.8515 97.2365 79.0857 96.6615 81.3585C96.6381 81.444 96.618 81.5372 96.5955 81.627C95.8747 84.5171 95.3368 87.4551 94.9855 90.4215C94.5489 94.1095 94.3836 97.8281 94.4912 101.543C94.5017 101.91 94.5178 102.277 94.5331 102.643L94.8897 102.707L95.2117 102.764C95.091 100.022 95.1158 97.2755 95.2857 94.5366C95.3437 93.6098 95.4191 92.6838 95.5119 91.7587C95.5385 91.4963 95.5683 91.2338 95.5981 90.9713C95.9149 88.1252 96.4057 85.304 97.0672 82.5256C97.6279 80.1636 98.3234 77.8399 99.1497 75.5676C99.6941 74.0615 100.312 72.5866 101.001 71.149C101.292 70.5505 101.625 69.9768 101.926 69.3842L101.941 69.3612C102.185 68.9704 101.599 68.6096 101.365 68.9986ZM124.595 78.6097C124.587 78.6032 124.579 78.5972 124.571 78.5917C124.493 78.5458 124.402 78.5335 124.316 78.5574C124.229 78.5812 124.155 78.6395 124.109 78.72L122.785 80.7121L122.758 80.3334L122.704 79.5716C122.671 79.1141 121.995 79.1099 122.028 79.5716L122.408 84.9196L122.462 85.6814C122.469 85.7766 122.51 85.8653 122.577 85.9291C122.644 85.9928 122.732 86.0266 122.822 86.0234C122.865 86.0276 122.908 86.0216 122.949 86.0058C122.989 85.99 123.026 85.9648 123.056 85.9321C123.086 85.8994 123.109 85.8599 123.124 85.8165C123.138 85.7732 123.143 85.727 123.138 85.6814C123.047 84.3983 122.956 83.1158 122.864 81.8339L124.461 79.4296L124.692 79.0825C124.735 79.005 124.748 78.9135 124.73 78.8261C124.712 78.7386 124.664 78.6614 124.595 78.6097Z" fill="black"/>
<path d="M107.925 58.5675C107.512 58.7864 107.045 58.8626 106.59 58.7855C106.326 58.7125 106.057 58.6678 105.785 58.6521C105.658 58.6672 105.536 58.715 105.431 58.7914C105.325 58.8679 105.239 58.9706 105.179 59.0906C105.12 59.2106 105.089 59.3442 105.089 59.4799C105.089 59.6156 105.121 59.7491 105.181 59.8688C105.274 60.0515 105.403 60.2113 105.558 60.3379C105.713 60.4646 105.892 60.5553 106.082 60.6041C107.109 60.917 108.702 60.8332 109.433 59.8645L109.482 59.797C109.637 59.5835 109.734 59.3299 109.765 59.0627C109.796 58.7954 109.758 58.5243 109.657 58.2776C109.227 57.5783 108.389 58.3178 107.925 58.5675ZM113.317 54.1122L112.438 53.412L112.312 53.3119C112.273 53.2878 112.23 53.2722 112.185 53.266C112.14 53.2598 112.095 53.2632 112.051 53.276C112.009 53.2885 111.969 53.3098 111.933 53.3387C111.898 53.3676 111.869 53.4036 111.847 53.4446C111.825 53.4856 111.811 53.5308 111.806 53.5775C111.8 53.6243 111.804 53.6718 111.816 53.7172C111.844 53.805 111.898 53.8804 111.971 53.9318L112.85 54.632L112.976 54.7321C113.014 54.7562 113.057 54.7718 113.102 54.778C113.147 54.7841 113.192 54.7807 113.236 54.768C113.32 54.7425 113.393 54.6834 113.438 54.603C113.46 54.5617 113.475 54.516 113.481 54.4686C113.487 54.4212 113.484 54.373 113.472 54.3268C113.444 54.239 113.39 54.1636 113.317 54.1122ZM104.033 52.8946L103.008 53.3161L102.863 53.3759C102.779 53.4033 102.707 53.4619 102.661 53.5409C102.627 53.6026 102.611 53.6736 102.615 53.7448C102.619 53.8161 102.643 53.8844 102.684 53.941C102.725 53.9976 102.781 54.04 102.845 54.0627C102.909 54.0854 102.977 54.0874 103.042 54.0685L104.067 53.647L104.213 53.5863C104.296 53.5589 104.368 53.5003 104.415 53.4212C104.449 53.3597 104.465 53.2887 104.461 53.2174C104.456 53.1461 104.432 53.0777 104.391 53.0211C104.35 52.9645 104.294 52.9222 104.23 52.8996C104.167 52.8771 104.098 52.8753 104.033 52.8946ZM104.019 54.4686C103.976 54.456 103.93 54.4527 103.886 54.4589C103.841 54.4651 103.798 54.4806 103.759 54.5045C103.682 54.5519 103.626 54.6293 103.603 54.72C103.579 54.838 103.559 54.9568 103.54 55.0757C103.498 55.2974 103.473 55.5225 103.466 55.7486C103.466 55.8438 103.501 55.9351 103.565 56.0025C103.628 56.0698 103.714 56.1077 103.804 56.1077C103.893 56.1077 103.979 56.0698 104.043 56.0025C104.106 55.9351 104.142 55.8438 104.142 55.7486C104.143 55.6608 104.149 55.5731 104.16 55.4861C104.185 55.2937 104.217 55.1013 104.255 54.9107C104.277 54.8174 104.265 54.7186 104.221 54.6345C104.176 54.5539 104.104 54.4945 104.019 54.4686ZM112.056 55.5348C112.012 55.5224 111.967 55.5193 111.922 55.5256C111.877 55.5319 111.834 55.5475 111.795 55.5716C111.719 55.6188 111.663 55.6958 111.639 55.7862C111.616 55.9042 111.595 56.023 111.576 56.1419C111.534 56.3636 111.509 56.5887 111.502 56.8147C111.502 56.91 111.537 57.0013 111.601 57.0687C111.664 57.136 111.75 57.1738 111.84 57.1738C111.93 57.1738 112.016 57.136 112.079 57.0687C112.142 57.0013 112.178 56.91 112.178 56.8147C112.18 56.7269 112.186 56.6393 112.197 56.5522C112.222 56.359 112.254 56.1672 112.292 55.9768C112.314 55.8833 112.302 55.7843 112.258 55.6998C112.213 55.6195 112.14 55.5605 112.056 55.5348Z" fill="black"/>
</svg>
