<svg width="161" height="161" viewBox="0 0 161 161" fill="none" xmlns="http://www.w3.org/2000/svg">
<path d="M90.0242 45.2251C89.3375 41.9511 91.8145 38.4695 90.8856 35.1875C90.7038 34.422 90.2676 33.7409 89.6483 33.2555C87.862 31.9901 82.293 33.9092 80.8206 38.967C78.2744 47.8574 92.1896 53.5689 89.4559 62.3925C88.6114 64.8075 86.3357 66.2138 85.22 68.752C84.6896 70.1764 84.5033 71.7059 84.6764 73.2159C84.8494 74.726 85.3769 76.1737 86.2157 77.4412C87.4179 76.9347 88.5714 76.3198 89.6619 75.6042C87.9779 72.9782 88.7861 69.5707 90.95 67.2756C93.1524 64.7801 95.8935 62.758 96.1744 58.3337C96.6268 51.6812 90.9363 49.5785 90.0242 45.2251ZM86.5192 46.8166C86.8504 48.187 87.5935 49.4231 88.6485 50.3586C88.8851 50.5695 88.5358 50.9172 88.2999 50.7071C87.1829 49.7121 86.3965 48.3996 86.0459 46.9454C85.9742 46.6386 86.4452 46.5082 86.5192 46.8166ZM89.2659 37.1397C88.6186 38.2762 88.299 39.57 88.3426 40.8773C88.3546 41.1952 87.8596 41.1936 87.8491 40.8773C87.7953 39.4815 88.1389 38.0991 88.84 36.8909C88.8752 36.839 88.9288 36.8024 88.9899 36.7885C89.051 36.7746 89.1152 36.7845 89.1693 36.8161C89.2234 36.8477 89.2635 36.8987 89.2815 36.9588C89.2994 37.0189 89.2938 37.0835 89.2659 37.1397ZM92.06 54.0591C91.4305 53.0453 90.7241 52.0813 89.9469 51.1756C89.7408 50.9341 90.0878 50.5864 90.2947 50.8271C91.1008 51.7634 91.8331 52.7608 92.4851 53.8104C92.6557 54.0809 92.2267 54.328 92.06 54.0591ZM90.1731 65.1102C89.4935 66.061 88.9325 67.0912 88.5028 68.178C88.3884 68.4711 87.9119 68.339 88.0278 68.0476C88.4678 66.919 89.0456 65.8491 89.7481 64.8622C89.9308 64.6054 90.3575 64.8526 90.1731 65.1102ZM87.1278 72.8889L87.6865 75.7909C87.7452 76.1017 87.2703 76.2329 87.2107 75.9221L86.6529 73.0201C86.5933 72.7102 87.0682 72.5782 87.1278 72.8889ZM91.1319 58.8457C91.2386 57.6753 90.9022 56.5076 90.1892 55.5733C89.9968 55.3254 90.3446 54.9744 90.5378 55.2248C91.3435 56.2522 91.7316 57.546 91.6245 58.8473C91.5972 59.1596 91.1037 59.162 91.1319 58.8457ZM93.1122 61.28C92.9697 61.5633 92.5487 61.3138 92.6871 61.0304C93.179 60.052 93.4406 58.974 93.4519 57.8789C93.4555 57.8159 93.4831 57.7566 93.5289 57.7133C93.5748 57.67 93.6355 57.6458 93.6986 57.6458C93.7617 57.6458 93.8224 57.67 93.8683 57.7133C93.9142 57.7566 93.9418 57.8159 93.9454 57.8789C93.9287 59.061 93.6438 60.224 93.1122 61.28ZM84.7869 39.5973C84.9181 39.3083 85.3415 39.5587 85.2127 39.8461C84.6601 41.0799 84.4016 42.4253 84.4576 43.7761C84.4705 44.094 83.9746 44.0924 83.9658 43.7761C83.9123 42.3384 84.1933 40.9079 84.7869 39.5973Z" fill="#FFBB3C"/>
<path d="M126.027 84.0422C120.547 79.4143 111.518 77.5563 104.11 78.5795C106.744 80.0204 108.092 83.5109 108.055 86.4073C107.885 89.2506 104.684 90.6569 102.303 91.2977C99.5908 92.0343 96.7437 92.1246 93.9904 91.5613C91.237 90.998 88.6542 89.7969 86.4492 88.0543C82.1369 88.448 79.3878 87.7323 76.6902 86.2745C65.3454 89.5468 60.7255 92.741 57.2092 95.2776C53.6181 97.8705 51.8198 102.07 51.3223 106.489C53.4154 105.37 55.7448 104.766 58.1178 104.726C60.4909 104.686 62.8392 105.212 64.9686 106.26C66.9811 102.61 73.0581 99.5433 86.7994 101.322C88.6912 106.787 95.0008 112.059 94.1112 117.591C93.9502 118.567 93.3738 120.801 93.0052 122.18L93.7297 122.68C95.7047 121.854 97.753 121.217 99.8477 120.776C101.576 120.351 106.511 118.826 108.02 118.613C107.972 118.601 107.929 118.575 107.896 118.539C107.862 118.503 107.84 118.458 107.83 118.41C107.821 118.361 107.826 118.311 107.845 118.266C107.863 118.22 107.894 118.18 107.934 118.152C110.784 116.184 113.364 114.672 115.628 112.405C115.416 112.34 115.203 112.277 114.997 112.192C114.706 112.074 114.836 111.597 115.128 111.717C115.416 111.833 115.712 111.928 116.014 112.003C116.165 111.839 116.312 111.672 116.456 111.502C116.397 111.361 116.475 111.173 116.72 111.173C117.418 110.372 117.939 109.434 118.249 108.418C118.56 107.402 118.652 106.332 118.521 105.278C118.441 104.767 118.256 104.285 118.163 103.781C117.47 99.6801 114.066 96.9061 111.088 94.0202C110.86 93.7988 111.209 93.451 111.437 93.6716C114.281 96.4279 117.475 99.0651 118.483 102.879C118.553 103.163 118.586 103.453 118.652 103.737C118.893 104.462 119.038 105.215 119.083 105.978C119.132 107.849 118.528 109.678 117.375 111.153C118.424 111.097 119.451 110.827 120.393 110.362C120.676 110.221 120.926 110.646 120.642 110.788C119.505 111.352 118.255 111.649 116.986 111.657C116.858 111.818 116.722 111.968 116.584 112.121C117.183 112.221 117.794 112.24 118.399 112.176C118.714 112.142 118.711 112.636 118.399 112.67C117.66 112.745 116.915 112.703 116.189 112.545C115.263 113.485 114.261 114.348 113.195 115.126C111.973 116.039 108.214 118.569 108.134 118.596C110.204 118.568 112.24 119.126 114.006 120.206C115.548 121.105 116.842 122.376 117.768 123.902C118.695 125.428 119.226 127.161 119.313 128.944C122.231 128.559 125.022 127.507 127.468 125.87C129.915 124.233 131.952 122.056 133.422 119.506C139.209 109.636 136.824 93.1588 126.027 84.0422ZM77.0839 100.625C77.08 100.664 77.0675 100.702 77.0471 100.736C77.0267 100.769 76.999 100.798 76.9661 100.819C76.9332 100.841 76.8959 100.855 76.8569 100.86C76.8179 100.865 76.7783 100.861 76.7409 100.849C76.6969 100.877 76.6446 100.888 76.5931 100.881C76.5416 100.874 76.4942 100.849 76.4592 100.81C75.8472 100.199 75.4436 99.4103 75.3056 98.5564C75.2557 98.2464 75.7307 98.1136 75.7806 98.4259C75.8859 99.0857 76.1689 99.7044 76.5993 100.215C76.6183 99.3315 76.425 98.4559 76.0358 97.662C75.8949 97.3786 76.3199 97.1299 76.4616 97.4133C76.9647 98.4048 77.1803 99.5175 77.0839 100.625ZM98.0775 99.4982L96.5117 96.2243C96.3507 95.8886 96.8506 95.5956 97.0116 95.9321C97.5344 97.0226 98.0565 98.1139 98.5782 99.206C98.7392 99.5376 98.2385 99.8315 98.0775 99.4982ZM116.623 84.7248L113.293 86.3703C112.959 86.5313 112.666 86.0354 113 85.8696L116.33 84.2241C116.663 84.0559 116.957 84.5566 116.623 84.7216V84.7248ZM125.8 94.2077C125.454 95.5706 125.076 96.9246 124.715 98.2843C124.693 98.3568 124.644 98.4178 124.578 98.4545C124.511 98.4911 124.433 98.5004 124.36 98.4803C124.288 98.4602 124.225 98.4124 124.187 98.347C124.149 98.2816 124.138 98.2039 124.156 98.1305L125.241 94.0532C125.261 93.9786 125.31 93.915 125.377 93.8764C125.443 93.8378 125.523 93.8274 125.598 93.8475C125.672 93.8676 125.736 93.9165 125.774 93.9834C125.813 94.0504 125.823 94.1299 125.803 94.2045L125.8 94.2077Z" fill="#FF606C"/>
<path d="M71.6179 75.7643C71.5621 74.9204 71.2965 74.1039 70.8451 73.3887C70.3786 72.7952 69.7711 72.3278 69.0778 72.0291C68.3844 71.7305 67.6274 71.6101 66.8756 71.6789C64.8994 71.7827 63.0269 72.6602 61.1505 73.214C57.6222 74.2549 53.6712 74.7991 50.316 72.9226C48.8681 72.1463 47.7312 70.8957 47.096 69.3806C46.557 67.8056 46.3237 66.1422 46.4085 64.4798C46.4085 61.3717 46.6871 57.9206 44.5401 55.3833C42.3731 52.8185 37.6912 51.5048 32.3935 53.5785C30.6812 54.2056 28.932 54.9292 27.0716 54.7988C26.2406 54.767 25.4379 54.4883 24.7659 53.9984C24.094 53.5085 23.5831 52.8296 23.2986 52.0482C22.8129 50.4 22.5689 48.6901 22.5741 46.9718L22.3656 43.9708C22.3398 43.6005 21.7602 43.5981 21.786 43.9708C22.1265 48.862 22.0017 52.222 23.9257 54.0888C27.0434 56.7808 30.5702 54.695 33.8811 53.6807C38.4294 52.288 43.8196 53.4569 45.3065 57.9134C45.7663 59.5601 45.948 61.2719 45.8442 62.9784C45.8152 66.2234 45.7573 69.7211 48.2842 72.1434C52.3559 76.0452 58.5817 74.8747 63.8851 72.9484C65.6673 72.3583 67.7346 71.7916 69.4508 72.8679C69.7942 73.0668 70.0913 73.3365 70.3226 73.6591C70.5538 73.9816 70.7138 74.3496 70.792 74.7387C70.8421 75.1582 70.9535 75.568 71.1228 75.955C71.2842 75.8823 71.4495 75.8186 71.6179 75.7643ZM94.2875 72.0476C93.9124 70.1921 95.7566 68.6416 97.5228 68.3687C99.5417 67.9719 101.561 68.2375 103.506 66.4625C106.522 63.7198 107.242 58.0905 106.331 54.0268C105.35 49.6533 102.135 46.1556 101.273 41.7554C100.913 39.7555 101.157 37.6934 101.976 35.8334C102.794 33.9733 104.149 32.3999 105.867 31.3146C106.775 30.7559 107.895 30.4017 108.488 29.4502C108.964 28.4363 109.074 27.2886 108.798 26.2028C108.402 23.3158 107.766 20.467 106.895 17.6859C106.784 17.3309 106.225 17.4823 106.337 17.8397C107.109 20.3057 107.697 22.8255 108.096 25.3785C108.263 26.4443 108.558 27.7041 108.182 28.7595C107.793 29.8479 106.59 30.2085 105.686 30.7519C104.034 31.7657 102.685 33.2043 101.779 34.9177C100.872 36.6311 100.443 38.5563 100.534 40.4924C100.945 47.1795 107.377 51.0693 105.955 59.9541C105.371 63.5677 103.667 66.9398 100.052 67.4349C98.7805 67.5275 97.522 67.752 96.2968 68.1047C94.7319 68.7221 93.0768 70.7314 93.8327 72.4718C93.9975 72.3452 94.1498 72.2032 94.2875 72.0476Z" fill="#F26722"/>
<path d="M96.87 80.6756C96.87 80.6102 96.8959 80.5476 96.9421 80.5014C96.9883 80.4552 97.051 80.4292 97.1163 80.4292C97.1816 80.4292 97.2443 80.4552 97.2905 80.5014C97.3367 80.5476 97.3626 80.6102 97.3626 80.6756C97.3852 85.4484 91.879 87.5462 87.1673 87.9898C93.5059 92.7755 102.403 92.0993 106.344 88.7553C106.854 88.3239 107.232 87.7576 107.435 87.1212C107.638 86.4848 107.658 85.8041 107.492 85.157C106.284 77.4515 101.11 78.6148 97.2435 76.624C97.207 76.6018 97.1769 76.5706 97.1559 76.5334C97.135 76.4962 97.124 76.4542 97.124 76.4115C97.124 76.3688 97.135 76.3268 97.1559 76.2896C97.1769 76.2524 97.207 76.2211 97.2435 76.199C97.5639 76.0219 97.8181 75.7456 97.968 75.4117C98.3198 73.9103 97.5655 71.604 96.0022 71.6893C95.1642 71.7344 94.6103 72.4364 94.0195 72.9524C91.9497 74.8111 89.6284 76.3688 87.1238 77.5795C85.6042 78.2981 83.9768 78.7621 82.3067 78.9529C78.9539 79.3763 73.4582 79.4359 71.494 76.7061C71.2082 80.3359 73.8188 84.5613 77.9847 86.3725C80.1686 87.3941 82.5555 87.8956 86.5257 87.5567C91.1577 87.254 96.8909 85.2979 96.87 80.6756ZM78.4355 81.1908C78.4822 80.8776 78.9571 81.0112 78.9104 81.3212C78.7457 81.9379 78.7813 82.5911 79.0119 83.1864C79.1138 83.4088 79.296 83.5845 79.5221 83.6783C79.7481 83.772 80.0012 83.7769 80.2306 83.6919C80.5116 83.5414 80.7595 83.9672 80.4802 84.1169C80.1744 84.2589 79.828 84.287 79.5033 84.1962C79.1786 84.1055 78.897 83.9018 78.7092 83.6219C78.5056 83.2547 78.3767 82.8508 78.3297 82.4336C78.2827 82.0164 78.3187 81.594 78.4355 81.1908ZM86.7664 80.6136L87.3492 82.1576C87.4619 82.4554 86.9854 82.5834 86.8743 82.2888L86.2907 80.7448C86.1788 80.4469 86.6545 80.3197 86.7664 80.6136ZM94.8325 75.5099C96.1157 73.9804 96.0762 73.371 96.4522 73.6077C96.5049 73.6413 96.5429 73.6935 96.5588 73.7539C96.5746 73.8144 96.567 73.8786 96.5375 73.9337C96.1412 74.6128 95.6874 75.2568 95.1811 75.8584C94.9766 76.1016 94.6305 75.7506 94.8325 75.5091V75.5099ZM75.3097 81.962C75.1116 81.5772 74.9133 81.1932 74.7148 80.81C74.5691 80.5282 74.9949 80.2795 75.1406 80.5612L75.7347 81.7124C75.8804 81.9941 75.4554 82.2437 75.3097 81.962ZM84.9222 85.5683C84.8592 85.5509 84.8057 85.5092 84.7735 85.4524C84.7412 85.3956 84.7329 85.3282 84.7503 85.2653C84.7677 85.2023 84.8094 85.1488 84.8662 85.1166C84.9231 85.0843 84.9904 85.076 85.0534 85.0934C85.9615 85.3424 86.9253 85.2955 87.8049 84.9593C88.6845 84.6232 89.434 84.0154 89.9446 83.2242C90.112 82.9545 90.5387 83.2025 90.3704 83.4729C89.8099 84.3633 88.9766 85.0487 87.9948 85.4269C87.0129 85.8051 85.9352 85.8559 84.9222 85.5716V85.5683Z" fill="#FFCEB6"/>
<path d="M72.1551 50.3633C72.2999 48.4104 72.1857 46.4469 71.8154 44.5239C71.1231 40.9489 67.9675 37.8231 64.2886 38.7915C62.6867 39.2592 61.3955 40.3757 59.866 41.0004C59.1273 41.3613 58.287 41.4577 57.4858 41.2734C56.6846 41.089 55.9709 40.6352 55.4642 39.9877C52.943 37.0575 54.5868 32.6622 52.9534 28.5631C51.6992 25.0952 47.7708 22.8001 44.5331 24.9197C41.2109 27.1536 41.2399 31.6873 41.7301 35.2237C42.1388 38.8622 43.6212 42.2967 45.9886 45.0898C49.4074 48.9264 55.3024 50.5179 59.7863 47.9459C60.5723 47.3836 61.3986 46.8796 62.2584 46.4382C64.7048 45.44 67.1689 47.5909 67.9216 50.3883C68.4143 52.2148 68.5423 54.2523 69.9727 55.6474C70.5267 56.206 71.2629 56.5471 72.0472 56.6085C72.7073 56.6721 71.7719 55.3157 72.1551 50.3633ZM68.2637 45.3257C67.4553 44.8208 66.4876 44.636 65.5501 44.8072C65.2393 44.8652 65.1081 44.3902 65.4197 44.3323C66.4853 44.1283 67.5887 44.3308 68.5125 44.8998C68.783 45.0664 68.535 45.4939 68.2637 45.3257ZM62.6851 42.2546C63.87 42.0179 65.0628 41.8247 66.2633 41.675C66.5773 41.6355 66.5732 42.129 66.2633 42.1676C65.1073 42.3141 63.9583 42.502 62.8163 42.7311C62.5064 42.7915 62.3752 42.3166 62.6859 42.2546H62.6851ZM59.9537 44.0377C58.6714 44.5259 57.2664 44.5902 55.9448 44.2212C55.8853 44.2008 55.8359 44.1585 55.8065 44.103C55.7771 44.0474 55.7699 43.9827 55.7866 43.9221C55.8032 43.8614 55.8423 43.8094 55.8959 43.7766C55.9496 43.7438 56.0137 43.7326 56.0752 43.7454C57.3112 44.0886 58.6249 44.0245 59.8217 43.5627C60.1204 43.4492 60.2467 43.9266 59.9545 44.0377H59.9537ZM47.8248 32.4497C47.6266 31.4082 47.5746 30.3443 47.6702 29.2884C47.6984 28.9745 48.1919 28.9721 48.1629 29.2884C48.0666 30.2999 48.1127 31.3198 48.2997 32.3185C48.3585 32.6292 47.8844 32.7636 47.8248 32.4497ZM51.9842 37.0792C52.1565 37.3465 51.7298 37.5928 51.5584 37.3272C50.5785 35.8032 50.1595 33.9856 50.3734 32.1864C50.4121 31.8749 50.9039 31.8725 50.8661 32.1864C50.6558 33.8979 51.0514 35.629 51.9842 37.0792ZM53.5065 46.1146C52.05 45.9928 50.6757 45.3892 49.6006 44.3991C49.3664 44.1834 49.7157 43.8356 49.9492 44.0497C50.9283 44.9529 52.1795 45.5055 53.5065 45.6211C53.8204 45.6477 53.822 46.1411 53.5065 46.1146ZM49.409 39.6866C49.6239 40.1996 49.9559 40.6551 50.3783 41.0168C50.8007 41.3786 51.3019 41.6365 51.8417 41.77C51.9016 41.7901 51.9515 41.8324 51.9812 41.8882C52.0109 41.944 52.018 42.009 52.0012 42.0699C51.9844 42.1308 51.9449 42.183 51.8909 42.2157C51.8368 42.2484 51.7723 42.2591 51.7105 42.2457C51.0906 42.086 50.5169 41.783 50.0354 41.3612C49.5539 40.9394 49.178 40.4105 48.9381 39.817C48.8133 39.5256 49.2891 39.3976 49.409 39.6866ZM45.6102 36.0947C45.2112 34.6996 45.0517 33.2469 45.1385 31.7984C45.1546 31.4821 45.6473 31.4813 45.6312 31.7984C45.4573 35.1263 46.4772 36.1221 45.9032 36.2606C45.8423 36.2765 45.7776 36.2679 45.7229 36.2368C45.6681 36.2057 45.6277 36.1544 45.6102 36.0939V36.0947Z" fill="#F26722"/>
<path d="M77.5441 19.288C76.3624 18.6697 75.9792 19.1044 74.176 19.0263C72.888 18.8178 72.12 17.0943 73.693 14.7421C76.2899 10.507 78.5898 11.3233 77.0321 7.27494C76.3833 5.32442 74.795 3.59448 72.6916 4.11773C72.2105 4.23871 71.7677 4.4792 71.4044 4.81689C71.041 5.15459 70.7688 5.57857 70.613 6.04952C70.4571 6.52046 70.4227 7.02313 70.5129 7.51091C70.6032 7.9987 70.8151 8.4558 71.129 8.83986C72.1152 9.93788 72.8276 9.81793 73.222 10.9151C73.4909 12.1122 72.1916 12.9792 71.3923 13.5942C68.3937 15.5487 69.6124 19.9714 73.5006 20.6178C74.9327 20.8778 76.7359 20.4254 77.5827 21.5106C78.523 22.9596 76.3752 24.6557 76.7343 26.6569C76.7681 26.9073 77.0659 26.8244 76.9854 26.8389C77.0397 26.8501 77.0963 26.8395 77.1428 26.8094C77.1894 26.7793 77.2222 26.732 77.2342 26.6779C77.759 24.1687 78.75 23.5384 79.0205 21.4711C78.9789 21.0121 78.8217 20.5711 78.5635 20.1894C78.3053 19.8076 77.9546 19.4975 77.5441 19.288Z" fill="#F7D7CA"/>
<path d="M56.6434 54.2892C55.1799 53.9302 53.8943 55.4847 54.0102 56.986C54.1261 58.4873 56.3721 58.8117 57.5248 57.8417C57.777 57.5777 57.9584 57.2542 58.0521 56.9012C58.1459 56.5483 58.1489 56.1775 58.061 55.8231C57.973 55.4687 57.797 55.1423 57.5492 54.8741C57.3013 54.606 56.9897 54.4048 56.6434 54.2892Z" fill="#FF606C"/>
<path d="M66.2389 28.5882C65.9195 28.4916 65.5804 28.4806 65.2554 28.5563C64.9305 28.632 64.6311 28.7918 64.3874 29.0197C64.22 29.2834 64.1349 29.5911 64.1431 29.9033C64.1513 30.2156 64.2523 30.5184 64.4333 30.773C64.6367 30.9217 64.8735 31.0181 65.123 31.0538C65.3724 31.0895 65.6268 31.0634 65.8637 30.9778C66.1007 30.8922 66.313 30.7497 66.482 30.5628C66.651 30.3759 66.7716 30.1504 66.833 29.906C66.891 29.6516 66.8643 29.3852 66.7571 29.1474C66.6499 28.9095 66.4679 28.7132 66.2389 28.5882Z" fill="#FFBB3C"/>
<path d="M79.1932 71.1404C77.1734 71.4054 75.138 71.5331 73.101 71.5227C73.0881 69.9059 73.206 68.2906 73.4536 66.6927C73.4679 66.6323 73.4603 66.5687 73.4321 66.5133C73.404 66.4579 73.3571 66.4143 73.2998 66.3903C73.2425 66.3662 73.1785 66.3633 73.1193 66.382C73.06 66.4006 73.0093 66.4397 72.9762 66.4923C72.3805 67.4265 71.5036 68.1476 70.4718 68.5515C70.1627 68.6722 70.2972 69.1762 70.6111 69.0546C73.9511 67.7578 72.4964 65.4112 72.5769 71.782C72.5782 71.8509 72.6061 71.9166 72.655 71.9653C72.7038 72.014 72.7696 72.0417 72.8385 72.0428C74.7273 72.0591 76.6152 71.9572 78.4912 71.7377C77.37 72.8489 76.2854 73.9963 75.239 75.1783C75.0169 75.4286 75.3856 75.7989 75.6077 75.5469C76.8152 74.1795 78.0718 72.858 79.3776 71.5823C79.5249 71.4422 79.4267 71.1098 79.1932 71.1404Z" fill="#F7D7CA"/>
<path d="M97.6024 12.4776C95.6446 10.4144 93.5878 8.25134 92.741 5.46604C92.6339 5.11023 92.0736 5.26157 92.1823 5.61979C92.9809 8.24973 94.7953 10.3492 96.6509 12.3158C95.6244 12.255 94.5966 12.4087 93.6328 12.767C92.669 13.1252 91.7904 13.6803 91.0529 14.3967C90.7398 14.705 90.4169 15.0793 90.6762 15.5293C91.6696 16.7583 92.9347 17.7398 94.3719 18.3968L89.4373 18.3702C89.3604 18.3702 89.2867 18.4007 89.2323 18.4551C89.178 18.5094 89.1475 18.5831 89.1475 18.66C89.1475 18.7368 89.178 18.8106 89.2323 18.8649C89.2867 18.9193 89.3604 18.9498 89.4373 18.9498L95.9409 18.9844C96.0098 18.9826 96.0758 18.9565 96.1273 18.9106C96.1788 18.8648 96.2123 18.8022 96.2219 18.7339C96.2316 18.6656 96.2167 18.5962 96.18 18.5378C96.1433 18.4795 96.0871 18.4361 96.0214 18.4153C94.1797 17.8542 92.5308 16.791 91.2598 15.345C91.1624 15.2218 91.1463 15.1703 91.2429 15.0407C92.0084 14.222 92.9635 13.604 94.024 13.2413C95.0846 12.8785 96.2181 12.7821 97.3247 12.9606C97.3853 12.9738 97.4486 12.9674 97.5054 12.9423C97.5621 12.9172 97.6094 12.8746 97.6404 12.8208C97.6713 12.7669 97.6843 12.7047 97.6775 12.643C97.6706 12.5813 97.6443 12.5233 97.6024 12.4776Z" fill="#FF9F48"/>
<path d="M84.7872 39.5972C84.1937 40.9077 83.9126 42.3382 83.9661 43.7759C83.9782 44.0923 84.4709 44.0939 84.458 43.7759C84.4019 42.4251 84.6604 41.0798 85.2131 39.8459C85.3419 39.5585 84.9184 39.3082 84.7872 39.5972ZM88.3429 40.8771C88.2898 39.5689 88.6101 38.2725 89.2662 37.1395C89.2942 37.0834 89.2998 37.0187 89.2818 36.9587C89.2639 36.8986 89.2238 36.8476 89.1697 36.816C89.1155 36.7843 89.0514 36.7745 88.9903 36.7884C88.9291 36.8023 88.8756 36.8389 88.8404 36.8908C88.1396 38.099 87.796 39.4813 87.8494 40.8771C87.8623 41.1935 88.355 41.1951 88.3429 40.8771ZM88.6488 50.3608C87.594 49.4253 86.851 48.1892 86.5196 46.8188C86.4455 46.5105 85.9706 46.6409 86.0454 46.95C86.3961 48.4043 87.1825 49.7167 88.2994 50.7118C88.5369 50.9195 88.8863 50.5717 88.6488 50.3608ZM90.295 50.8269C90.0882 50.5854 89.7412 50.9364 89.9473 51.1755C90.7243 52.0813 91.4307 53.0453 92.0604 54.059C92.227 54.3287 92.6537 54.0807 92.4854 53.8103C91.8332 52.7609 91.1009 51.7635 90.295 50.8269ZM90.1896 55.5732C90.9041 56.5066 91.2407 57.675 91.1322 58.8455C91.1041 59.1619 91.5975 59.1595 91.6249 58.8455C91.7324 57.5442 91.3442 56.2503 90.5381 55.223C90.3449 54.9743 89.9996 55.3253 90.1896 55.5732ZM93.4522 57.8795C93.4336 58.9737 93.1724 60.0501 92.6875 61.0311C92.545 61.3145 92.9701 61.564 93.1125 61.2807C93.6446 60.2249 93.9289 59.0617 93.9441 57.8795C93.938 57.8185 93.9095 57.7619 93.8641 57.7208C93.8186 57.6796 93.7595 57.6568 93.6982 57.6568C93.6369 57.6568 93.5777 57.6796 93.5323 57.7208C93.4868 57.7619 93.4583 57.8185 93.4522 57.8795ZM89.7484 64.8621C89.0455 65.8487 88.4677 66.9187 88.0282 68.0475C87.9122 68.3429 88.388 68.4709 88.5031 68.1779C88.9324 67.0908 89.4934 66.0605 90.1735 65.11C90.3586 64.8516 89.9312 64.6053 89.7484 64.8621ZM86.6532 73.02L87.2111 75.922C87.2707 76.2327 87.7464 76.1015 87.6868 75.7908L87.1282 72.8888C87.0686 72.578 86.5936 72.7092 86.6532 73.02ZM76.4643 97.4107C76.3218 97.1265 75.9008 97.3752 76.0385 97.6594C76.4282 98.4531 76.6214 99.3289 76.602 100.213C76.1717 99.7018 75.8886 99.0831 75.7833 98.4234C75.7334 98.111 75.2584 98.2438 75.3084 98.5538C75.4469 99.4075 75.8504 100.196 76.4619 100.808C76.497 100.846 76.5444 100.871 76.5958 100.878C76.6473 100.885 76.6996 100.874 76.7437 100.846C76.781 100.859 76.8207 100.862 76.8596 100.857C76.8986 100.852 76.9359 100.838 76.9688 100.817C77.0018 100.795 77.0294 100.767 77.0498 100.733C77.0702 100.699 77.0828 100.662 77.0866 100.623C77.1775 99.5152 76.9622 98.404 76.4643 97.4107Z" fill="black"/>
<path d="M64.27 111.154C64.0852 110.903 63.9811 110.602 63.9713 110.29C63.8005 109.028 63.9961 107.744 64.5348 106.591C62.4931 105.617 60.2491 105.142 57.9878 105.206C55.7266 105.269 53.5129 105.87 51.5292 106.957C51.2984 111.271 51.7185 115.595 52.7754 119.784C53.1972 121.001 54.2292 122.394 55.708 122.07C57.1224 121.761 57.0708 120.016 56.9791 118.891C56.9573 118.618 57.3075 118.597 57.4387 118.767L59.0085 120.811C59.378 121.294 59.8433 122.12 60.5557 122.053C60.8696 121.992 61.1564 121.834 61.375 121.601C61.5937 121.368 61.7329 121.071 61.7729 120.754C61.8161 119.938 61.6411 119.124 61.2657 118.398C61.1796 118.184 61.4581 118.03 61.6279 118.119C63.502 119.327 63.1019 120.43 64.6692 121.661C64.8417 121.749 65.0308 121.799 65.224 121.808C65.4173 121.817 65.6102 121.785 65.7902 121.714C65.9702 121.643 66.1331 121.535 66.2681 121.397C66.4032 121.258 66.5074 121.093 66.5739 120.911C67.4441 118.808 66.8637 116.071 65.7487 114.161C65.7228 114.114 65.7129 114.06 65.7204 114.006C65.728 113.953 65.7526 113.904 65.7906 113.866C65.8286 113.827 65.878 113.803 65.9312 113.795C65.9845 113.787 66.0388 113.797 66.086 113.823C67.329 114.708 69.1619 115.051 69.8462 113.662C70.3646 112.38 68.5912 111.707 67.6381 111.624C66.2728 111.527 65.182 111.953 64.27 111.154ZM54.9738 116.034C54.8651 116.331 54.3886 116.202 54.4981 115.904C54.6656 115.457 54.7739 114.991 54.8201 114.516C54.849 114.202 55.3425 114.201 55.3127 114.516C55.2675 115.035 55.1535 115.545 54.9738 116.034ZM58.6503 115.378C58.6003 115.691 58.1254 115.559 58.1753 115.247L58.3363 114.236C58.387 113.924 58.8612 114.057 58.8113 114.367C58.7587 114.705 58.705 115.042 58.6503 115.378ZM62.7131 114.51C62.6583 114.822 62.1842 114.689 62.2381 114.379L62.5046 112.85C62.5585 112.537 63.0343 112.67 62.9795 112.98C62.891 113.491 62.8011 114.001 62.7099 114.51H62.7131Z" fill="#FFCEB6"/>
<path d="M101.841 137.723C101.366 136.377 101.003 134.995 100.756 133.59C99.6292 135.258 99.25 137.413 97.4557 138.017C97.1568 138.098 96.84 138.084 96.5495 137.977C96.2591 137.869 96.0094 137.674 95.8352 137.418C95.6602 136.99 95.6206 136.52 95.7217 136.069C96.0244 132.869 96.0639 132.902 95.9294 132.802C95.6517 132.595 94.28 132.963 93.4637 133.985C92.6587 134.892 92.6925 135.201 92.0952 135.849C91.9658 135.961 91.8114 136.042 91.6446 136.083C91.4779 136.124 91.3038 136.124 91.1369 136.084C90.97 136.044 90.8152 135.964 90.6852 135.852C90.5553 135.74 90.4542 135.598 90.3902 135.439C89.9877 134.623 90.3524 133.995 91.5663 130.304C89.9998 130.578 89.0563 133.135 87.5558 133.432C87.2642 133.497 86.9585 133.444 86.7061 133.284C86.4537 133.124 86.2752 132.87 86.2098 132.579C86.1626 131.744 86.3955 130.918 86.8716 130.231C88.2355 127.865 89.919 125.698 91.8746 123.791C92.2272 123.395 92.3045 123.252 93.7213 122.67C92.6193 121.905 91.5929 121.204 90.6317 120.48C90.592 120.455 90.5465 120.443 90.5001 120.443C90.4537 120.443 90.4082 120.455 90.3685 120.48C81.1689 127.457 80.5475 127.469 80.6473 127.89C81.4849 131.614 82.5544 135.281 83.8496 138.871C84.4067 140.353 84.3567 140.278 84.7351 140.487C93.3212 145.208 93.0556 144.995 93.2174 144.899C96.3068 142.903 99.1736 140.583 101.769 137.976C101.802 137.944 101.827 137.904 101.84 137.859C101.852 137.815 101.853 137.768 101.841 137.723ZM81.2406 128.224C81.2065 128.187 81.1846 128.141 81.178 128.091C81.1713 128.042 81.1803 127.991 81.2036 127.947L81.1987 127.927C81.2937 127.855 81.268 127.846 81.3501 127.813C81.3916 127.796 81.4376 127.793 81.4811 127.804C81.5247 127.815 81.5634 127.84 81.5916 127.875C82.8086 129.249 84.2002 130.458 85.7309 131.471C85.9957 131.645 85.7486 132.072 85.4829 131.896C83.9157 130.862 82.4896 129.628 81.2406 128.225V128.224ZM93.0105 144.585C92.1586 142.272 91.4378 139.913 90.8515 137.52C90.7766 137.211 91.254 137.08 91.3272 137.389C91.9136 139.782 92.6341 142.141 93.4854 144.453C93.5957 144.754 93.1192 144.881 93.0105 144.586V144.585Z" fill="#FFBB3C"/>
<path d="M101.22 132.293C105.975 128.232 112.743 129.412 118.802 128.751C118.643 127.047 118.104 125.4 117.225 123.931C116.266 122.508 114.989 121.328 113.496 120.482C112.003 119.637 110.334 119.149 108.621 119.058C107.773 119.028 107.461 119.164 105.529 119.702C96.3517 122.237 96.4556 122.102 93.9214 123.124C93.068 123.375 92.3184 123.895 91.7842 124.606C89.9479 126.437 88.3837 128.522 87.1393 130.797C86.8849 131.3 86.3899 132.242 86.8326 132.77C87.4066 133.454 88.379 132.418 88.7606 132.002C89.626 131.057 90.4921 129.766 91.9218 129.785C91.9876 129.786 92.0505 129.812 92.0965 129.86C92.1425 129.907 92.168 129.97 92.1673 130.036C92.1673 130.095 92.2116 129.946 91.219 132.956C91.0524 133.407 90.9092 133.866 90.79 134.332C90.7164 134.541 90.7065 134.768 90.7615 134.983C90.8165 135.198 90.934 135.391 91.0991 135.54C92.1456 136.272 92.5674 132.842 95.1853 132.325C95.5121 132.227 95.8625 132.242 96.1795 132.369C96.306 132.456 96.4033 132.58 96.459 132.723C96.5147 132.867 96.5261 133.024 96.4918 133.174C96.2237 136.531 96.0587 136.58 96.2503 137.146C96.3298 137.281 96.4443 137.392 96.5818 137.467C96.7192 137.543 96.8745 137.579 97.0311 137.574C98.8609 137.632 99.4341 133.819 101.22 132.293ZM93.2283 126.98C93.2283 127.045 93.2024 127.108 93.1562 127.154C93.11 127.2 93.0473 127.226 92.982 127.226C92.9167 127.226 92.854 127.2 92.8078 127.154C92.7616 127.108 92.7357 127.045 92.7357 126.98V125.822C92.7357 125.756 92.7616 125.694 92.8078 125.647C92.854 125.601 92.9167 125.575 92.982 125.575C93.0473 125.575 93.11 125.601 93.1562 125.647C93.2024 125.694 93.2283 125.756 93.2283 125.822V126.98ZM99.9622 129.087C100.094 129.728 100.143 130.384 100.107 131.037C100.089 131.353 99.5967 131.354 99.6144 131.037C99.6511 130.428 99.6083 129.816 99.4872 129.218C99.4236 128.907 99.9002 128.775 99.9622 129.086V129.087ZM96.5812 128.857L96.3984 127.548C96.3549 127.238 96.8307 127.105 96.8742 127.417L97.0561 128.726C97.0988 129.036 96.623 129.169 96.5803 128.857L96.5812 128.857Z" fill="#FFCEB6"/>
<path d="M57.364 126.56C57.3685 126.518 57.3608 126.476 57.3417 126.439C57.3227 126.401 57.2933 126.37 57.257 126.35C59.9249 125.24 62.676 124.342 65.4849 123.665C65.7634 123.495 65.6652 123.101 65.5026 122.899C65.3005 122.65 64.9624 122.976 65.1146 123.233C62.4156 123.894 59.7699 124.757 57.1998 125.813C57.21 125.781 57.2136 125.747 57.2104 125.713C57.2073 125.679 57.1974 125.647 57.1815 125.617C57.1655 125.587 57.1438 125.56 57.1175 125.539C57.0912 125.517 57.0609 125.501 57.0283 125.491C48.0759 122.662 46.8604 123.03 45.7841 122.053C45.733 122.006 45.6654 121.981 45.596 121.984C45.5265 121.987 45.461 122.017 45.4138 122.068C45.4138 122.068 45.4009 121.86 45.3961 121.756L51.7894 119.572C52.1058 119.464 51.9697 118.961 51.6509 119.069L45.3438 121.223C45.2319 121.007 44.8382 121.043 44.8519 121.335C45.021 125.067 45.3381 128.787 45.8034 132.495C45.8453 132.824 46.3669 132.828 46.3251 132.495C45.9059 129.154 45.6089 125.802 45.4339 122.438C47.0584 123.675 47.5454 123.038 56.8271 125.975C56.7901 126.004 56.7612 126.042 56.7428 126.086C56.7245 126.129 56.7175 126.176 56.7224 126.223C56.7273 126.269 56.744 126.314 56.7709 126.353C56.7978 126.391 56.834 126.422 56.8762 126.443C56.6556 128.903 56.9053 131.382 57.612 133.748C57.6303 133.815 57.6744 133.872 57.7346 133.906C57.7644 133.923 57.7972 133.934 57.8312 133.938C57.8652 133.942 57.8997 133.94 57.9328 133.931C57.9658 133.922 57.9967 133.906 58.0238 133.885C58.0508 133.864 58.0734 133.838 58.0904 133.808C58.1073 133.778 58.1182 133.745 58.1224 133.711C58.1267 133.677 58.1242 133.643 58.1151 133.61C57.4196 131.329 57.1647 128.936 57.364 126.56ZM70.5314 129.766C66.5504 131.283 62.6306 132.947 58.772 134.757C58.4685 134.9 58.7333 135.349 59.036 135.208C62.6853 133.498 66.3916 131.918 70.1547 130.469C70.1234 130.455 70.0952 130.435 70.0717 130.41C70.0481 130.386 70.0297 130.357 70.0174 130.325C70.0051 130.293 69.9993 130.259 70.0002 130.225C70.0011 130.191 70.0087 130.157 70.0227 130.126C70.1426 129.854 70.4421 130.015 70.8277 130.115C70.8985 129.927 70.7649 129.676 70.5314 129.766Z" fill="#F26722"/>
<path d="M56.2446 135.532C56.2446 135.532 49.7467 133.69 48.9554 133.459C48.2526 133.306 47.5995 132.979 47.0556 132.508C46.8141 132.273 46.447 132.641 46.6861 132.877C47.698 133.795 47.8364 133.682 56.1046 136.035C56.1697 136.049 56.2377 136.038 56.2947 136.003C56.3516 135.969 56.3933 135.914 56.4111 135.85C56.429 135.785 56.4217 135.717 56.3908 135.658C56.3598 135.599 56.3076 135.554 56.2446 135.532ZM70.3684 123.226C70.3474 122.893 69.8258 122.891 69.8467 123.226C69.9685 125.212 70.1491 127.194 70.3885 129.172C70.4279 129.501 70.952 129.505 70.9101 129.172C70.6702 127.196 70.4897 125.214 70.3684 123.226Z" fill="#F26722"/>
<path d="M67.4595 139.989C64.6259 139.175 61.7939 138.355 59.0311 137.325C58.7164 137.207 58.5803 137.711 58.8927 137.828C61.6554 138.858 64.4685 139.747 67.321 140.493C67.3878 140.511 67.459 140.502 67.5192 140.468C67.5794 140.434 67.6235 140.377 67.6418 140.31C67.6602 140.244 67.6513 140.172 67.6171 140.112C67.5829 140.052 67.5262 140.008 67.4595 139.989ZM67.2574 141.197L67.8403 151.483C67.8596 151.817 68.3812 151.82 68.3619 151.483L67.7815 141.197C67.7606 140.866 67.2389 140.864 67.2574 141.197ZM80.42 134.258C77.2962 132.315 73.8885 130.872 70.3197 129.98C70.2575 129.968 70.193 129.979 70.1383 130.011C70.0837 130.043 70.0426 130.094 70.0228 130.154C70.003 130.214 70.0059 130.28 70.0309 130.338C70.056 130.396 70.1014 130.443 70.1587 130.47C73.694 131.35 77.0692 132.78 80.1608 134.707C80.4433 134.886 80.705 134.435 80.42 134.258ZM70.4935 141.042C78.8116 137.851 78.814 138.003 79.78 137.075C80.0095 136.833 79.6416 136.46 79.4113 136.706C78.5468 137.511 78.7512 137.324 70.3551 140.539C70.0444 140.658 70.1796 141.163 70.4935 141.042ZM67.0248 150.843C60.4689 148.695 60.3191 148.75 59.4111 147.98C59.1648 147.752 58.7953 148.121 59.0424 148.349C60.0084 149.241 61.3858 149.546 62.6037 149.944L66.8863 151.346C67.2059 151.451 67.3436 150.947 67.0248 150.843ZM79.8637 147.674C77.3332 149.149 74.6669 150.378 71.9015 151.344C70.9612 151.756 69.9408 151.951 68.9149 151.917C68.5817 151.88 68.5849 152.4 68.9149 152.439C69.9333 152.481 70.9484 152.297 71.887 151.899C74.7513 150.916 77.5112 149.652 80.1262 148.125C80.1854 148.09 80.2283 148.033 80.2456 147.966C80.2629 147.899 80.2531 147.829 80.2185 147.769C80.1839 147.71 80.1272 147.666 80.0607 147.649C79.9943 147.631 79.9235 147.64 79.8637 147.674Z" fill="#F7D7CA"/>
<path d="M54.2102 137.888L46.9805 140.061C46.9168 140.044 46.8493 140.049 46.7889 140.076L46.4146 140.241C46.1119 140.374 46.3284 140.864 46.6384 140.77L54.3664 138.445C54.4361 138.421 54.494 138.371 54.5282 138.305C54.5624 138.24 54.5704 138.164 54.5504 138.093C54.5305 138.022 54.4842 137.961 54.421 137.923C54.3577 137.885 54.2824 137.872 54.2102 137.888ZM57.0559 139.889C57.0559 139.812 57.0253 139.738 56.971 139.684C56.9166 139.63 56.8429 139.599 56.7661 139.599C56.6892 139.599 56.6155 139.63 56.5611 139.684C56.5068 139.738 56.4763 139.812 56.4763 139.889C56.5559 143.119 56.8377 146.342 57.3199 149.537C57.3755 149.904 57.9341 149.749 57.8834 149.382C57.4194 146.237 57.143 143.067 57.0559 139.889ZM53.6725 149.811C45.129 153.106 45.2546 153.126 43.9835 153.36L44.0406 153.244C44.0603 153.201 44.07 153.155 44.0689 153.108C44.0679 153.061 44.0562 153.015 44.0347 152.973C44.0133 152.931 43.9825 152.895 43.9449 152.866C43.9073 152.838 43.8638 152.819 43.8176 152.81C43.3996 149.239 43.0776 145.659 42.8516 142.07C42.8283 141.699 42.2479 141.697 42.272 142.07C42.4025 144.15 43.1245 153.218 43.358 153.597C43.2815 153.775 43.358 154.016 43.6051 153.995C44.4435 153.902 45.2648 153.693 46.0451 153.373C46.9121 153.046 53.8286 150.37 53.8286 150.37C54.1715 150.24 54.0218 149.679 53.6725 149.811ZM42.7502 140.187C39.6578 138.911 36.4586 137.911 33.19 137.199C37.2687 135.823 41.2983 134.305 45.2787 132.645C45.6176 132.504 45.4687 131.942 45.1242 132.086C35.7057 136.023 32.4857 136.613 32.3657 136.989C32.2675 136.964 32.1693 136.941 32.0711 136.915C31.9977 136.897 31.92 136.908 31.8546 136.946C31.7892 136.984 31.7414 137.047 31.7213 137.12C31.7012 137.193 31.7105 137.27 31.7471 137.337C31.7838 137.403 31.8448 137.452 31.9173 137.474C35.5649 138.254 39.138 139.349 42.5965 140.746C42.9402 140.888 43.0907 140.328 42.7502 140.187Z" fill="#FF9F48"/>
<path d="M44.3044 125.534C41.0097 127.184 37.5606 128.505 34.0069 129.479C33.6849 129.581 33.9175 130.203 34.192 130.309L34.873 135.551C34.9133 135.861 35.4068 135.865 35.3657 135.551L34.7088 130.497C36.5928 131.203 38.5592 131.666 40.5604 131.874C40.8759 131.907 40.8735 131.414 40.5604 131.382C38.7998 131.196 35.5605 130.507 34.5293 129.841C37.9856 128.866 41.3418 127.566 44.5532 125.958C44.8389 125.818 44.5878 125.393 44.3044 125.534ZM67.6349 111.128C66.4033 111.031 64.4214 111.604 64.4512 110.193C64.2926 108.96 64.5065 107.708 65.0654 106.597C65.0972 106.541 65.1057 106.474 65.0892 106.411C65.0727 106.348 65.0324 106.294 64.9768 106.26H64.9688C62.8411 105.21 60.4935 104.683 58.1212 104.723C55.7489 104.764 53.4205 105.37 51.3297 106.491C51.2319 106.525 51.1488 106.592 51.0942 106.679C51.0397 106.767 51.0171 106.871 51.0302 106.974C50.8535 109.807 50.985 112.651 51.4222 115.456C51.8722 118.998 52.2272 120.483 53.4347 121.821C53.8433 122.244 54.3873 122.51 54.9719 122.573C55.5564 122.636 56.1446 122.491 56.6338 122.165C56.9615 121.844 57.2111 121.452 57.3634 121.02C57.5156 120.587 57.5665 120.125 57.5121 119.67L58.9264 121.507C59.3853 122.102 59.9488 122.689 60.7723 122.519C62.276 122.116 62.5908 120.455 62.0337 119.048C63.2968 120.462 63.1607 121.281 64.5808 122.171C64.9731 122.339 65.4124 122.361 65.8199 122.235C66.2275 122.108 66.5766 121.841 66.805 121.48C67.9883 119.795 67.4409 116.522 66.5506 114.638C67.9006 115.385 69.6901 115.272 70.3228 113.78C70.9137 112.147 68.9262 111.229 67.6349 111.128ZM69.843 113.658C69.1588 115.052 67.3137 114.705 66.0829 113.819C66.0357 113.793 65.9813 113.783 65.9281 113.791C65.8748 113.799 65.8255 113.824 65.7875 113.862C65.7495 113.9 65.7248 113.949 65.7173 114.002C65.7097 114.056 65.7197 114.11 65.7456 114.157C66.8565 116.062 67.4433 118.796 66.5707 120.907C66.5044 121.088 66.4004 121.254 66.2656 121.392C66.1308 121.53 65.9683 121.639 65.7887 121.71C65.6091 121.781 65.4165 121.813 65.2236 121.804C65.0307 121.795 64.8418 121.746 64.6693 121.659C63.0988 120.426 63.5061 119.324 61.628 118.117C61.4582 118.028 61.1804 118.181 61.2658 118.395C61.6411 119.122 61.8162 119.935 61.7729 120.752C61.7329 121.069 61.5936 121.365 61.375 121.598C61.1564 121.832 60.8696 121.99 60.5558 122.05C59.8425 122.118 59.3772 121.289 59.0086 120.809L57.4388 118.765C57.3084 118.595 56.9558 118.616 56.9791 118.889C57.0701 120.016 57.1224 121.758 55.7081 122.068C54.2293 122.39 53.1973 121 52.7754 119.782C51.7185 115.592 51.2981 111.267 51.5285 106.952C53.5127 105.867 55.7262 105.267 57.9872 105.203C60.2481 105.14 62.4919 105.614 64.5341 106.586C63.9957 107.74 63.8001 109.024 63.9706 110.285C64.0285 112.127 66.3856 111.529 67.6341 111.615C68.5864 111.703 70.3615 112.378 69.843 113.658Z" fill="black"/>
<path d="M62.5044 112.854L62.2379 114.383C62.1832 114.693 62.659 114.826 62.7129 114.515C62.8025 114.006 62.8913 113.496 62.9793 112.985C63.0317 112.674 62.5591 112.539 62.5044 112.854ZM58.3377 114.236L58.1767 115.247C58.1268 115.558 58.6018 115.692 58.6517 115.378L58.8127 114.367C58.8626 114.057 58.3876 113.924 58.3377 114.236ZM54.8207 114.516C54.7749 114.991 54.6666 115.458 54.4987 115.904C54.3892 116.202 54.8649 116.33 54.9744 116.034C55.1532 115.545 55.2668 115.035 55.3125 114.516C55.3407 114.201 54.848 114.202 54.8207 114.516ZM120.39 110.355C119.448 110.821 118.422 111.09 117.372 111.147C118.104 110.223 118.619 109.146 118.878 107.996C119.137 106.846 119.134 105.652 118.869 104.504C118.807 104.243 118.708 103.991 118.649 103.731C118.583 103.447 118.552 103.157 118.48 102.873C117.471 99.0603 114.281 96.4239 111.435 93.6651C111.206 93.4446 110.858 93.7923 111.085 94.0137C114.233 97.0639 117.471 99.6986 118.16 103.774C118.359 104.848 119.605 107.473 116.717 111.167C116.529 111.167 116.438 111.27 116.435 111.398C116.431 111.526 116.563 111.398 116.011 111.997C115.71 111.922 115.414 111.826 115.126 111.711C114.832 111.591 114.704 112.067 114.994 112.186C115.2 112.266 115.413 112.334 115.626 112.398C113.354 114.67 110.796 116.171 107.931 118.145C107.891 118.174 107.86 118.213 107.842 118.259C107.824 118.305 107.819 118.355 107.828 118.403C107.837 118.452 107.86 118.496 107.893 118.532C107.927 118.568 107.97 118.594 108.017 118.606C106.432 118.83 101.961 120.249 99.8451 120.769C97.4619 121.276 95.1391 122.034 92.9157 123.03C92.507 123.186 92.1485 123.451 91.878 123.795C89.9229 125.702 88.2394 127.869 86.875 130.235C86.4654 130.855 86.2279 131.572 86.1867 132.314C86.1811 132.613 86.2941 132.901 86.5011 133.116C86.708 133.331 86.9918 133.456 87.2903 133.462C88.8907 133.493 89.9307 130.593 91.5697 130.307C90.3687 133.968 89.9863 134.622 90.3936 135.442C90.4576 135.602 90.5587 135.743 90.6886 135.855C90.8186 135.968 90.9734 136.047 91.1403 136.087C91.3072 136.127 91.4813 136.127 91.648 136.086C91.8148 136.045 91.9692 135.965 92.0986 135.852C92.6806 135.22 92.6476 134.913 93.4671 133.988C94.2367 133.022 95.6317 132.58 95.9328 132.805C96.0632 132.902 96.0334 132.857 95.7251 136.073C95.624 136.523 95.6636 136.994 95.8386 137.421C96.0129 137.677 96.2626 137.872 96.5531 137.98C96.8435 138.087 97.1602 138.101 97.4591 138.021C98.8437 137.553 99.2534 136.396 100.244 134.459C100.97 133.021 102.181 131.885 103.662 131.254C108.401 128.95 113.619 129.864 119.073 129.219C119.138 129.218 119.2 129.192 119.246 129.146C119.292 129.1 119.319 129.038 119.32 128.972C119.183 127.104 118.612 125.293 117.653 123.684C116.676 122.209 115.371 120.98 113.841 120.094C112.31 119.208 110.596 118.688 108.831 118.575C108.128 118.541 108.071 118.639 108.182 118.575C111.199 116.494 113.778 114.994 116.191 112.543C116.917 112.702 117.663 112.744 118.401 112.668C118.714 112.634 118.717 112.142 118.401 112.175C117.796 112.239 117.186 112.22 116.586 112.119C116.721 111.967 116.856 111.813 116.988 111.655C118.257 111.647 119.507 111.35 120.644 110.786C120.923 110.64 120.674 110.215 120.39 110.355ZM108.621 119.06C110.335 119.148 112.005 119.635 113.499 120.48C114.992 121.326 116.268 122.508 117.226 123.932C118.105 125.401 118.643 127.048 118.802 128.753C112.705 129.417 105.974 128.235 101.221 132.295C99.4346 133.824 98.8614 137.633 97.0276 137.569C96.871 137.574 96.7158 137.538 96.5784 137.462C96.441 137.387 96.3264 137.276 96.2468 137.141C96.0648 136.594 96.2178 136.508 96.4883 133.169C96.5226 133.019 96.5111 132.862 96.4555 132.719C96.3998 132.575 96.3024 132.452 96.1759 132.364C95.859 132.237 95.5085 132.222 95.1818 132.32C92.5808 132.833 92.1397 136.265 91.0956 135.535C90.931 135.386 90.8139 135.192 90.7589 134.978C90.7039 134.763 90.7135 134.537 90.7864 134.327C90.9064 133.857 92.1767 130.011 92.1549 130.092C92.1645 130.055 92.1656 130.017 92.1579 129.979C92.1503 129.942 92.1342 129.907 92.1109 129.877C92.0875 129.847 92.0576 129.822 92.0234 129.805C91.9892 129.789 91.9516 129.78 91.9135 129.78C90.4838 129.762 89.6184 131.053 88.7522 131.997C88.3706 132.413 87.3982 133.446 86.8242 132.766C86.3815 132.237 86.8766 131.295 87.1309 130.793C88.3745 128.517 89.9388 126.432 91.7758 124.601C92.3098 123.89 93.0595 123.37 93.9131 123.119C97.1926 121.797 98.6529 121.633 102.119 120.656C108.161 118.951 107.855 119.034 108.621 119.06Z" fill="black"/>
<path d="M92.7362 125.822V126.981C92.7362 127.046 92.7622 127.109 92.8084 127.155C92.8546 127.201 92.9172 127.227 92.9825 127.227C93.0479 127.227 93.1105 127.201 93.1567 127.155C93.2029 127.109 93.2289 127.046 93.2289 126.981V125.822C93.2289 125.756 93.2029 125.694 93.1567 125.647C93.1105 125.601 93.0479 125.575 92.9825 125.575C92.9172 125.575 92.8546 125.601 92.8084 125.647C92.7622 125.694 92.7362 125.756 92.7362 125.822ZM96.3982 127.547L96.5809 128.856C96.6244 129.169 97.0993 129.036 97.0559 128.725L96.8739 127.416C96.8305 127.104 96.3587 127.237 96.3982 127.547ZM99.4878 129.217C99.6085 129.815 99.6513 130.427 99.615 131.036C99.5964 131.353 100.089 131.352 100.108 131.036C100.144 130.383 100.096 129.727 99.9627 129.086C99.9007 128.776 99.425 128.907 99.4878 129.217ZM107.294 82.4804C105.55 77.4894 101.169 77.8959 97.8399 76.3624C98.056 76.1859 98.232 75.9653 98.3562 75.7155C98.4805 75.4656 98.5501 75.1922 98.5604 74.9134C98.5934 73.3758 97.9422 71.4092 96.2573 71.2023C95.897 71.1869 95.5378 71.251 95.2051 71.3901C94.8725 71.5293 94.5745 71.74 94.3325 72.0073C92.8088 73.4106 91.16 74.6716 89.4067 75.7747C86.4483 77.7612 82.9423 78.7718 79.3805 78.6647C76.9139 78.717 74.9884 78.6011 72.8986 77.3678C72.2954 77.0161 71.8422 76.4553 71.6251 75.7916C71.5856 75.5461 71.2049 75.5678 71.1493 75.7916C70.0763 80.2312 73.7962 86.5336 81.3374 87.9471C83.033 88.1748 84.7487 88.2113 86.4524 88.0558C88.6573 89.7984 91.2402 90.9996 93.9935 91.5629C96.7469 92.1262 99.594 92.0358 102.306 91.2992C104.687 90.6552 107.889 89.252 108.058 86.4088C108.075 85.0608 107.815 83.7238 107.294 82.4804ZM107.431 87.1727C106.135 90.9852 95.2092 94.0635 87.168 87.9898C91.9014 87.5438 97.3859 85.4355 97.3634 80.6756C97.3634 80.6102 97.3374 80.5476 97.2912 80.5014C97.245 80.4552 97.1824 80.4292 97.117 80.4292C97.0517 80.4292 96.989 80.4552 96.9429 80.5014C96.8967 80.5476 96.8707 80.6102 96.8707 80.6756C96.8973 86.5279 88.0962 88.0816 82.0587 87.5519C75.345 86.7026 71.1228 81.3944 71.4939 76.7053C72.7086 78.4071 75.1051 78.9247 77.1595 79.0962C80.5555 79.4306 83.9812 78.9089 87.1238 77.5787C89.6281 76.3677 91.9495 74.81 94.0194 72.9516C94.6103 72.4348 95.1641 71.7344 96.0021 71.6885C97.563 71.6032 98.3197 73.9087 97.9679 75.4109C97.8176 75.7445 97.5635 76.0207 97.2434 76.1982C97.2069 76.2203 97.1768 76.2516 97.1559 76.2888C97.1349 76.326 97.1239 76.368 97.1239 76.4107C97.1239 76.4534 97.1349 76.4954 97.1559 76.5326C97.1768 76.5698 97.2069 76.601 97.2434 76.6232C101.115 78.6172 106.284 77.4467 107.492 85.1562C107.622 85.8245 107.601 86.5134 107.431 87.1727Z" fill="black"/>
<path d="M75.1418 80.5613C74.9961 80.2795 74.5702 80.5283 74.7159 80.81L75.3108 81.962C75.4565 82.2429 75.8816 81.9942 75.7359 81.7124L75.1418 80.5613ZM86.8755 82.2888C86.9865 82.5834 87.4631 82.4554 87.3504 82.1576C87.1556 81.6434 86.9613 81.1288 86.7676 80.6136C86.6565 80.3198 86.1799 80.4469 86.2918 80.7448L86.8755 82.2888ZM89.9457 83.2242C89.4378 84.0181 88.6885 84.6282 87.8081 84.9646C86.9277 85.3011 85.9625 85.3462 85.0545 85.0934C84.9916 85.076 84.9242 85.0843 84.8674 85.1166C84.8106 85.1488 84.7689 85.2023 84.7515 85.2653C84.7341 85.3283 84.7424 85.3956 84.7746 85.4524C84.8069 85.5093 84.8603 85.551 84.9233 85.5684C85.936 85.8455 87.0107 85.792 87.9907 85.4155C88.9708 85.039 89.805 84.3592 90.3716 83.4754C90.5398 83.2025 90.1156 82.9561 89.9457 83.2242ZM80.2318 83.6919C80.0024 83.7779 79.7489 83.7735 79.5226 83.6796C79.2964 83.5858 79.1142 83.4095 79.013 83.1864C78.7824 82.5911 78.7469 81.9379 78.9116 81.3212C78.9583 81.0113 78.4833 80.8776 78.4366 81.1908C78.3201 81.5941 78.2844 82.0166 78.3316 82.4338C78.3789 82.851 78.5081 83.2548 78.7119 83.6219C78.8998 83.9018 79.1814 84.1055 79.5061 84.1963C79.8307 84.287 80.1772 84.2589 80.4829 84.1169C80.7607 83.968 80.5119 83.5414 80.2318 83.6919ZM96.1128 73.6849C95.7341 74.3253 95.3064 74.9354 94.8337 75.5099C94.6308 75.7514 94.9778 76.1016 95.1822 75.8585C95.6888 75.257 96.1426 74.613 96.5387 73.9337C96.5666 73.8776 96.5722 73.8129 96.5543 73.7529C96.5363 73.6928 96.4962 73.6418 96.4421 73.6101C96.388 73.5785 96.3238 73.5687 96.2627 73.5825C96.2016 73.5964 96.148 73.633 96.1128 73.6849ZM96.7126 24.0857C96.4119 23.8252 96.0404 23.6602 95.6455 23.6117C95.2507 23.5633 94.8503 23.6335 94.4956 23.8136C93.3485 24.9615 94.0601 26.9161 95.5147 26.9281C97.1448 26.9209 98.0054 24.9849 96.7126 24.0857ZM98.3242 43.528C97.6685 43.5546 97.0117 43.5264 96.3608 43.4435C96.7633 42.8913 97.1545 42.3246 97.5119 41.7385C97.6777 41.4672 97.2511 41.2193 97.0861 41.4898C96.7464 42.0468 96.3785 42.5846 95.9953 43.1102C95.5061 42.4778 95.114 41.7759 94.8321 41.0277C94.7226 40.7331 94.246 40.8603 94.3563 41.1589C94.6448 41.9251 95.0399 42.6468 95.53 43.3026C95.1224 43.2234 94.7193 43.1224 94.3225 43C94.019 42.905 93.8894 43.3807 94.1913 43.4749C94.6144 43.6058 95.0444 43.7133 95.4793 43.7969C95.0532 44.3429 94.6036 44.8701 94.1317 45.3771C93.9144 45.609 94.2621 45.9583 94.4795 45.7265C95.0237 45.1453 95.5375 44.5389 96.0211 43.9072C96.5345 44.4848 97.1234 44.9906 97.7719 45.4109C98.0392 45.5832 98.2871 45.1566 98.0207 44.9851C97.5696 44.6921 97.1491 44.3545 96.7657 43.9772C97.2839 44.0259 97.8048 44.0413 98.325 44.0231C98.6405 44.007 98.6421 43.5152 98.3242 43.528ZM84.5876 60.6906C83.9476 60.2174 83.363 59.6736 82.8448 59.0694C83.3036 59.0447 83.7636 59.0562 84.2206 59.104C84.5353 59.1394 84.5321 58.6467 84.2206 58.6113C83.8169 58.5688 83.4107 58.554 83.005 58.5671C83.2634 58.0446 83.521 57.5206 83.7979 57.0062C83.9477 56.7268 83.5226 56.4781 83.3721 56.7574C83.0501 57.3531 82.7506 57.9577 82.4536 58.5638C82.1135 58.1245 81.8073 57.66 81.5375 57.1744C81.387 56.8959 80.9611 57.1438 81.1125 57.4231C81.3498 57.854 81.6158 58.2684 81.9086 58.6637C81.4252 58.7321 80.9481 58.8398 80.4821 58.9857C80.1811 59.0814 80.3091 59.5572 80.6126 59.4606C81.1251 59.3002 81.6514 59.1879 82.1847 59.1249C81.8845 59.7609 81.5914 60.4 81.3161 61.0473C81.1938 61.3363 81.618 61.5874 81.742 61.2968C82.0004 60.6874 82.2773 60.0893 82.559 59.4888C83.0929 60.0939 83.6896 60.6406 84.3389 61.1197C84.5949 61.3049 84.8412 60.8774 84.5876 60.6906ZM61.551 65.4925C61.0422 65.7758 60.5407 66.0761 60.0359 66.3675C60.1865 65.9417 60.3314 65.5134 60.4594 65.0795C60.4768 65.0165 60.4684 64.9492 60.4362 64.8924C60.404 64.8355 60.3505 64.7938 60.2875 64.7764C60.2245 64.759 60.1572 64.7673 60.1004 64.7996C60.0435 64.8318 60.0018 64.8853 59.9844 64.9483C59.8953 65.2504 59.8004 65.5502 59.6995 65.8475C59.458 65.3645 59.2165 64.8766 58.9951 64.3808C58.8671 64.091 58.4412 64.3421 58.5692 64.6295C58.8494 65.2614 59.1512 65.8829 59.466 66.4979C59.342 66.8352 59.627 66.6018 57.4213 67.8777C57.3668 67.9116 57.3277 67.9654 57.3123 68.0277C57.2969 68.09 57.3065 68.1558 57.3389 68.2112C57.3713 68.2666 57.424 68.3072 57.4859 68.3242C57.5477 68.3413 57.6138 68.3336 57.67 68.3027L59.0772 67.4897C58.9162 67.8664 58.7552 68.2399 58.5821 68.6086C58.4461 68.8936 58.8703 69.1439 59.0072 68.8574C59.2841 68.2778 59.5382 67.6874 59.7695 67.0864L59.7808 67.0799C60.0577 67.5992 60.337 68.1168 60.6381 68.6215C60.6732 68.6734 60.7268 68.71 60.7879 68.7239C60.8491 68.7378 60.9132 68.7279 60.9673 68.6963C61.0215 68.6647 61.0616 68.6137 61.0795 68.5536C61.0974 68.4935 61.0919 68.4289 61.0639 68.3728C60.7665 67.8664 60.4809 67.3532 60.2074 66.8336L61.7997 65.9135C61.8474 65.8768 61.88 65.824 61.8914 65.7649C61.9028 65.7059 61.8922 65.6447 61.8616 65.5929C61.831 65.5411 61.7826 65.5023 61.7253 65.4838C61.6681 65.4653 61.6061 65.4684 61.551 65.4925ZM38.536 42.6522C37.8654 42.4445 37.1997 42.2248 36.5356 42.0002C36.9727 41.7989 37.4034 41.5832 37.8196 41.3392C37.8726 41.3047 37.9103 41.2512 37.9249 41.1896C37.9395 41.1281 37.9298 41.0633 37.898 41.0087C37.8661 40.9541 37.8144 40.9138 37.7537 40.8962C37.6929 40.8786 37.6277 40.8851 37.5716 40.9142C37.0133 41.2346 36.434 41.517 35.8376 41.7595C35.7088 41.7144 35.5792 41.6717 35.4512 41.6258C35.6568 40.805 35.8069 39.9713 35.9004 39.1303C35.9334 38.8156 35.44 38.818 35.4078 39.1303C35.3197 39.9141 35.1804 40.6912 34.9908 41.4568C34.0725 41.1246 33.1602 40.7757 32.2538 40.4103C31.96 40.2903 31.8328 40.7669 32.1234 40.8852C35.258 42.1555 34.9103 41.8078 34.8177 42.1346C34.212 42.3366 33.5934 42.498 32.9662 42.6176C32.6547 42.6755 32.7867 43.1505 33.0966 43.0925C33.6152 42.9924 34.1279 42.8642 34.6326 42.7086C34.4232 43.3744 34.1754 44.0276 33.8903 44.6647C33.7599 44.9513 34.185 45.2016 34.3162 44.9143C35.6114 42.034 34.7018 42.7408 35.8529 42.2811C36.6982 42.5741 37.5434 42.8575 38.4016 43.1215C38.7091 43.2213 38.8379 42.7456 38.536 42.6522ZM53.7932 12.6909C53.5823 12.8342 53.3633 12.9598 53.1435 13.0862L53.6475 12.3617C53.8286 12.1008 53.406 11.8545 53.2224 12.1129L52.5615 13.0636C52.3508 12.504 52.2071 11.9214 52.1333 11.328C52.0954 11.0173 51.602 11.0133 51.6406 11.328C51.734 12.0895 51.932 12.8345 52.2291 13.5418C51.5686 13.8446 50.8736 14.0652 50.1594 14.1987C49.8487 14.2582 49.9799 14.734 50.2906 14.6736C50.776 14.5751 51.2533 14.4406 51.7187 14.2711L50.6199 15.8586C50.4387 16.1194 50.8614 16.3657 51.0457 16.1065L52.4673 14.0618C52.7646 14.6545 53.1319 15.2093 53.5613 15.7145C53.7674 15.956 54.1144 15.6058 53.9099 15.3659C53.5015 14.8853 53.1543 14.3558 52.8763 13.7897C53.2791 13.5923 53.6685 13.3686 54.0419 13.12C54.3027 12.9388 54.0564 12.5122 53.7932 12.6909ZM79.7818 29.4333C79.6804 29.1338 79.2046 29.2626 79.306 29.5645C79.4131 29.8809 80.4081 32.8296 80.4588 33.0155C80.4929 33.1584 80.47 33.3089 80.3948 33.435C80.3196 33.5612 80.1982 33.653 80.0563 33.6909C78.5832 33.9745 77.0644 33.9114 75.6199 33.5066C75.4517 33.4639 75.2464 33.6257 75.3165 33.8093C76.4531 36.791 77.589 39.7733 78.724 42.756C77.2348 42.5306 75.7544 42.2489 74.2893 41.8955C74.0655 41.8416 73.853 42.137 74.0478 42.3069C75.8912 43.8911 77.7038 45.5102 79.4855 47.1642L75.4791 48.0739C75.1708 48.1439 75.3012 48.6197 75.6103 48.5488L80.0652 47.5378C80.0965 47.5288 80.1258 47.5137 80.1514 47.4933C80.1769 47.473 80.1982 47.4478 80.2139 47.4193C80.2297 47.3907 80.2397 47.3593 80.2433 47.3269C80.2469 47.2944 80.2441 47.2616 80.235 47.2302C80.1642 46.9887 75.2891 42.7383 75.0983 42.5741C76.4032 42.8639 77.7154 43.1167 79.0388 43.3059C79.1998 43.3292 79.4171 43.1996 79.3423 43.0032L75.9452 34.0846C76.6963 34.2485 77.4612 34.3409 78.2298 34.3607C78.9801 34.454 79.7417 34.3468 80.4371 34.05C80.6663 33.9306 80.841 33.7276 80.9247 33.4831C81.0085 33.2385 80.995 32.9711 80.8871 32.7362C80.7711 32.2943 80.4701 31.4804 79.7818 29.4333ZM45.6321 31.7976C45.649 31.4804 45.1563 31.482 45.1394 31.7976C45.065 33.2457 45.2243 34.6964 45.6112 36.0939C45.6285 36.1569 45.6703 36.2103 45.7271 36.2426C45.7839 36.2748 45.8512 36.2831 45.9142 36.2657C45.9772 36.2483 46.0307 36.2066 46.0629 36.1498C46.0952 36.093 46.1035 36.0256 46.0861 35.9627C45.7123 34.6076 45.559 33.2013 45.6321 31.7976ZM48.1638 29.2884C48.1936 28.972 47.7001 28.9744 47.6711 29.2884C47.5747 30.3442 47.6267 31.4083 47.8257 32.4496C47.8845 32.7604 48.3594 32.6283 48.3015 32.3184C48.1149 31.3197 48.0686 30.2999 48.1638 29.2884ZM51.9851 37.0792C51.0528 35.6287 50.6572 33.8978 50.867 32.1864C50.9056 31.8724 50.4122 31.8749 50.3743 32.1864C50.16 33.9856 50.579 35.8033 51.5593 37.3271C51.7308 37.5936 52.1574 37.3464 51.9851 37.0792ZM51.7074 42.2457C51.7692 42.2591 51.8337 42.2484 51.8878 42.2157C51.9418 42.183 51.9813 42.1308 51.9981 42.0699C52.0149 42.009 52.0078 41.9439 51.9781 41.8882C51.9484 41.8324 51.8985 41.7901 51.8386 41.7699C51.2999 41.6349 50.8 41.3764 50.3785 41.0148C49.957 40.6532 49.6254 40.1985 49.4099 39.6866C49.2908 39.3968 48.8142 39.5256 48.935 39.8178C49.173 40.4124 49.5482 40.9423 50.03 41.3642C50.5118 41.7862 51.0866 42.0882 51.7074 42.2457ZM53.5074 45.621C52.1802 45.5061 50.9289 44.9533 49.9501 44.0497C49.7166 43.8348 49.3673 44.1833 49.6015 44.3991C50.6766 45.3891 52.051 45.9927 53.5074 46.1145C53.823 46.1411 53.8213 45.6484 53.5074 45.621ZM59.8234 43.5627C58.6265 44.0237 57.3131 44.0878 56.077 43.7454C56.0154 43.7326 55.9513 43.7437 55.8977 43.7766C55.844 43.8094 55.8049 43.8614 55.7883 43.922C55.7717 43.9827 55.7788 44.0473 55.8082 44.1029C55.8376 44.1585 55.8871 44.2008 55.9465 44.2211C57.2682 44.5894 58.673 44.5251 59.9554 44.0376C60.2477 43.9257 60.1205 43.4483 59.8234 43.5627ZM66.265 41.6749C65.0656 41.8252 63.8728 42.0184 62.6868 42.2545C62.3761 42.3157 62.5073 42.7915 62.818 42.7295C63.96 42.5025 65.1091 42.3146 66.265 42.166C66.5742 42.129 66.5798 41.6355 66.265 41.6749ZM68.5142 44.8998C67.5907 44.3301 66.487 44.1276 65.4214 44.3322C65.1091 44.3902 65.2411 44.8651 65.5518 44.8072C66.4894 44.635 67.4574 44.82 68.2655 45.3256C68.5359 45.493 68.7839 45.0672 68.5142 44.8998ZM48.0117 51.8896C47.7541 51.7052 47.5069 52.1311 47.7637 52.3154C48.4903 52.8327 49.3012 53.22 50.1602 53.4601C50.2226 53.4757 50.2887 53.4663 50.3442 53.4338C50.3998 53.4013 50.4404 53.3484 50.4575 53.2864C50.4745 53.2243 50.4666 53.1581 50.4354 53.1018C50.4042 53.0455 50.3523 53.0037 50.2906 52.9852C49.4735 52.7541 48.7024 52.3835 48.0117 51.8896ZM67.0354 61.8579C67.2315 61.5787 67.3609 61.2583 67.4137 60.9212C67.4665 60.5842 67.4411 60.2395 67.3397 59.9138C67.2479 59.6111 66.7762 59.7399 66.8656 60.0442C66.9479 60.307 66.9677 60.5853 66.9233 60.8571C66.8788 61.1288 66.7714 61.3864 66.6096 61.6091C66.4268 61.8692 66.8543 62.1155 67.0354 61.8579ZM58.9138 25.4896C59.2301 25.5041 59.2293 25.0114 58.9138 24.9961C58.1137 24.9594 57.3529 24.6389 56.7676 24.0921C56.535 23.8764 56.1856 24.2241 56.4183 24.4399C57.0988 25.0754 57.9836 25.4476 58.9138 25.4896ZM64.9054 11.3755L65.5236 8.6804C65.5945 8.37128 65.1211 8.24006 65.0487 8.54918L64.4296 11.2451C64.3588 11.5534 64.8337 11.6855 64.9054 11.3755ZM37.0307 11.8449C37.3406 11.8988 37.4742 11.4238 37.1619 11.3699C36.0192 11.1763 34.9786 10.5936 34.2164 9.72046C34.0063 9.47896 33.6593 9.83155 33.8678 10.0698C34.6885 11.0053 35.8046 11.6317 37.0307 11.8449ZM100.203 58.2652V61.1632C100.207 61.2262 100.234 61.2854 100.28 61.3287C100.326 61.3721 100.387 61.3962 100.45 61.3962C100.513 61.3962 100.574 61.3721 100.619 61.3287C100.665 61.2854 100.693 61.2262 100.696 61.1632V58.2652C100.693 58.2022 100.665 58.1429 100.619 58.0996C100.574 58.0563 100.513 58.0321 100.45 58.0321C100.387 58.0321 100.326 58.0563 100.28 58.0996C100.234 58.1429 100.207 58.2022 100.203 58.2652ZM122.032 78.1591C121.716 78.1342 121.717 78.6276 122.032 78.6518C129.364 79.2234 133.846 86.156 137.281 91.783C137.446 92.0526 137.873 91.8055 137.706 91.5334C133.932 85.3542 129.547 78.7822 122.032 78.1591ZM140.169 87.9793C138.901 85.1743 137.05 82.6716 134.739 80.638C132.428 78.6043 129.71 77.0864 126.766 76.1853C126.705 76.1719 126.64 76.1826 126.586 76.2153C126.532 76.248 126.493 76.3002 126.476 76.3611C126.459 76.422 126.466 76.487 126.496 76.5428C126.525 76.5986 126.575 76.6409 126.635 76.661C129.517 77.5465 132.177 79.0363 134.437 81.0309C136.697 83.0255 138.507 85.4791 139.744 88.2281C139.872 88.5171 140.298 88.2659 140.169 87.9793ZM35.6847 112.166C33.3344 109.101 31.1913 105.882 29.2697 102.531C29.2357 102.477 29.1819 102.438 29.1196 102.422C29.0573 102.407 28.9915 102.416 28.9361 102.449C28.8807 102.481 28.8402 102.534 28.8231 102.596C28.806 102.658 28.8137 102.724 28.8446 102.78C30.7655 106.131 32.9083 109.351 35.2588 112.416C35.4488 112.664 35.8779 112.418 35.6847 112.166ZM34.738 114.048C30.4256 112.602 26.2321 110.823 22.1953 108.727C21.9152 108.582 21.6648 109.007 21.9474 109.153C26.0215 111.269 30.2541 113.064 34.6068 114.523C34.9087 114.625 35.0383 114.149 34.738 114.048ZM31.7338 116.52C28.746 117.471 25.6514 118.047 22.5213 118.234C22.2058 118.253 22.2034 118.746 22.5213 118.728C25.6956 118.539 28.8341 117.957 31.865 116.995C32.166 116.899 32.0397 116.423 31.7338 116.52ZM94.8715 148.555C94.8047 148.244 94.3289 148.375 94.3958 148.685C94.9748 151.39 95.5528 154.095 96.1297 156.8C96.1957 157.11 96.6715 156.979 96.6055 156.669L94.8715 148.555ZM96.9524 147.859C96.7504 147.618 96.4042 147.965 96.6031 148.209L102.794 155.735C102.996 155.977 103.343 155.63 103.144 155.387L96.9524 147.859ZM106.744 149.763C104.212 148.371 101.553 147.224 98.8039 146.336C98.5005 146.239 98.3717 146.714 98.6719 146.811C101.381 147.685 104.001 148.816 106.495 150.188C106.777 150.341 107.026 149.916 106.744 149.763Z" fill="black"/>
<path d="M76.3994 62.1075C76.09 62.0993 75.7853 62.1852 75.5258 62.3538C75.2662 62.5224 75.0639 62.7658 74.9455 63.0518C74.9142 63.4478 75.0111 63.8434 75.2218 64.1802C75.4326 64.5169 75.7461 64.7769 76.116 64.9218C76.3124 64.9547 76.5133 64.9485 76.7073 64.9036C76.9013 64.8587 77.0845 64.7761 77.2465 64.6603C77.4085 64.5446 77.5462 64.3981 77.6515 64.2291C77.7568 64.0601 77.8278 63.8721 77.8605 63.6757C77.8747 63.4751 77.8475 63.2737 77.7805 63.0841C77.7136 62.8945 77.6083 62.7208 77.4712 62.5736C77.3341 62.4265 77.1682 62.3092 76.9838 62.229C76.7994 62.1488 76.6005 62.1075 76.3994 62.1075ZM26.7558 19.746C28.9992 20.1934 31.3065 20.218 33.5589 19.8185C28.8673 27.4491 29.3995 26.5 29.1797 27.0522C29.0243 27.6101 29.2199 28.1156 30.0032 27.796C30.6472 27.5336 32.2282 26.8622 36.2146 25.1967C34.0966 31.3026 33.6458 32.2171 33.7569 33.7844C33.7577 33.8299 33.7703 33.8743 33.7934 33.9135C33.8165 33.9527 33.8493 33.9852 33.8887 34.0079C33.9281 34.0306 33.9727 34.0427 34.0182 34.043C34.0636 34.0434 34.1084 34.0319 34.1481 34.0098C35.3258 33.3246 36.3636 32.4233 37.2071 31.3533C37.4116 31.0925 37.0461 30.7206 36.8377 30.9854C36.1188 31.8962 35.2534 32.6811 34.2769 33.3078C34.3124 32.0287 34.5426 31.6173 36.9061 24.8046C36.9665 24.6299 36.7676 24.4078 36.5841 24.4826L29.6611 27.3806C29.6112 27.2084 29.8325 26.8799 29.8969 26.7761C30.1062 26.4339 34.3148 19.5914 34.3148 19.5914C34.3484 19.5301 34.3562 19.4578 34.3366 19.3907C34.317 19.3235 34.2715 19.2669 34.2101 19.2332C33.8495 19.0352 31.5536 20.0744 27.2823 19.3137C28.4419 17.7847 29.4082 16.1184 30.1594 14.3525C30.289 14.0474 29.8374 13.781 29.7094 14.0901C27.7564 18.7237 25.9275 19.494 26.7558 19.746ZM107.906 68.946L103.628 70.6124C103.284 70.7468 103.434 71.3071 103.781 71.1759L108.06 69.5087C108.403 69.371 108.254 68.81 107.906 68.946ZM108.288 51.1305L109.069 56.3461C109.124 56.7132 109.682 56.557 109.628 56.1916C109.367 54.4539 109.107 52.7156 108.847 50.9768C108.792 50.6089 108.233 50.7659 108.288 51.1305ZM34.7141 64.3792L35.2389 68.6361C35.2832 69.0015 35.8636 69.0056 35.8185 68.6361L35.2937 64.3792C35.2486 64.0138 34.669 64.0089 34.7141 64.3792ZM40.2621 78.2075C43.1199 75.7402 44.1261 75.811 43.8041 75.3095C43.7648 75.2474 43.7034 75.2025 43.6323 75.1838C43.5612 75.1651 43.4857 75.1741 43.4209 75.2089C42.1603 75.9696 40.9665 76.8359 39.8524 77.7986C39.5698 78.0417 39.9812 78.4498 40.2621 78.2075ZM51.2914 61.4861C51.3699 62.2403 51.6307 62.9642 52.0513 63.5952C52.259 63.9027 52.7614 63.6129 52.5521 63.303C52.1814 62.7625 51.9477 62.1401 51.871 61.4893C51.83 61.1198 51.2512 61.115 51.2914 61.4861ZM20.5163 57.0006L18.2156 58.0061C17.8743 58.155 18.1697 58.6549 18.5078 58.5068L20.8085 57.5013C21.1498 57.3516 20.8552 56.8533 20.5163 57.0006ZM18.9175 33.9365C17.2953 34.0502 15.667 33.826 14.1358 33.2781C13.7849 33.1517 13.6327 33.712 13.9821 33.8367C15.5627 34.4017 17.2431 34.633 18.9175 34.5161C19.287 34.4904 19.2895 33.91 18.9175 33.9365ZM72.6263 25.7481C71.8545 25.08 71.3372 24.1657 71.162 23.16C71.0952 22.7929 70.5374 22.9483 70.5985 23.3138C70.797 24.4185 71.3674 25.4221 72.215 26.1578C72.4967 26.4042 72.9089 25.9928 72.6263 25.7481ZM82.8394 13.0887C84.0533 12.3014 85.2678 11.5146 86.4828 10.7284C86.7951 10.5263 86.5053 10.0248 86.1906 10.2285L82.5464 12.5879C82.2348 12.79 82.5254 13.2923 82.8394 13.0887ZM118.916 58.4697L122.957 59.1475C123.321 59.2079 123.478 58.65 123.11 58.5889L119.07 57.9111C118.705 57.8499 118.548 58.4077 118.916 58.4697ZM125.685 37.6412C125.431 36.0958 125.423 34.5201 125.661 32.9722C125.717 32.6075 125.158 32.4497 125.101 32.8184C124.847 34.4676 124.855 36.1467 125.126 37.7933C125.186 38.1628 125.745 38.0074 125.685 37.6412ZM116.33 84.2209C115.22 84.7699 114.11 85.3184 112.999 85.8663C112.665 86.0321 112.958 86.532 113.293 86.367L116.623 84.7216C116.957 84.5566 116.663 84.0559 116.33 84.2209ZM125.244 94.0499L124.159 98.1273C124.141 98.2007 124.152 98.2784 124.19 98.3437C124.228 98.4091 124.29 98.4569 124.363 98.477C124.436 98.4971 124.514 98.4878 124.581 98.4512C124.647 98.4146 124.696 98.3535 124.718 98.281L125.803 94.2045C125.819 94.1318 125.807 94.0557 125.768 93.9919C125.73 93.928 125.668 93.8814 125.597 93.8616C125.525 93.8418 125.448 93.8502 125.383 93.8853C125.317 93.9203 125.267 93.9793 125.244 94.0499ZM85.8815 109.665C86.2437 109.751 86.3991 109.192 86.0352 109.107C85.041 108.874 84.0828 108.509 83.1863 108.02C82.8587 107.842 82.5657 108.342 82.8941 108.521C83.8341 109.034 84.8389 109.419 85.8815 109.665ZM97.0114 95.9288C96.8504 95.5915 96.3505 95.8853 96.5115 96.221L98.0772 99.4949C98.2382 99.8314 98.7381 99.5384 98.5779 99.2027L97.0114 95.9288ZM144.989 102.241L146.675 105.281C146.712 105.349 146.775 105.398 146.849 105.419C146.923 105.441 147.002 105.432 147.069 105.394C147.136 105.357 147.186 105.295 147.207 105.221C147.228 105.147 147.219 105.068 147.182 105L145.492 101.96C145.45 101.902 145.389 101.861 145.319 101.845C145.25 101.829 145.176 101.84 145.114 101.874C145.052 101.909 145.004 101.966 144.981 102.034C144.958 102.101 144.961 102.175 144.989 102.241ZM139.924 56.4532L137.59 57.585C137.254 57.746 137.547 58.2475 137.881 58.0857L140.216 56.9539C140.553 56.7913 140.258 56.2914 139.924 56.4532Z" fill="#F26722"/>
</svg>
