<svg width="162" height="162" viewBox="0 0 162 162" fill="none" xmlns="http://www.w3.org/2000/svg">
<path d="M117.551 29.6686C116.345 25.1229 120.242 24.8532 120.864 26.3039C120.751 24.9617 121.115 23.6227 121.89 22.5212C121.653 21.6768 121.343 20.8548 120.963 20.0645C121.363 20.0953 121.768 20.1301 122.168 20.1601C122.698 17.956 121.811 15.6864 120.941 13.5991C120.415 12.3233 119.894 12.0179 118.498 12.4991C117.555 12.8231 116.626 13.1949 115.713 13.5901C115.731 13.612 115.758 13.6242 115.776 13.6501C115.989 13.9758 116.087 14.3636 116.054 14.7515C116.021 15.1394 115.859 15.5051 115.594 15.7901C115.049 16.347 114.384 16.7711 113.65 17.0294C114.707 17.1598 115.059 18.6818 114.477 19.5688C113.786 20.391 112.84 20.9576 111.789 21.1774C112.685 21.0033 113.215 22.356 112.716 23.1166C112.105 23.8069 111.251 24.2339 110.333 24.3081C111.016 24.8338 110.637 26.0342 109.872 26.4141C109.294 26.6742 108.66 26.7856 108.028 26.7381C108.893 27.5536 109.903 28.1996 111.007 28.6424C111.367 27.9296 111.72 27.2127 112.06 26.4862C112.234 26.099 112.805 26.4343 112.627 26.8207C112.303 27.5181 111.966 28.2034 111.618 28.8902C113.405 29.5642 115.083 29.791 115.288 29.3908C115.247 29.5018 115.23 29.6198 115.237 29.7376C115.244 29.8554 115.275 29.9706 115.328 30.076C115.381 30.1814 115.455 30.2749 115.546 30.3507C115.636 30.4265 115.741 30.483 115.855 30.5167C115.976 30.186 116.219 29.9142 116.535 29.7566C116.85 29.5991 117.213 29.5676 117.551 29.6686Z" fill="#F7D7CA"/>
<path d="M80.8382 22.2296C81.1249 21.9121 81.5947 22.3819 81.3079 22.6994C80.3775 23.7297 79.6936 24.9582 79.3081 26.2918C79.1517 26.7916 79.0552 27.3082 79.0205 27.8308C79.0254 27.8607 79.0472 28.0738 79.0902 28.0738C79.0642 28.0697 79.2773 27.813 79.2943 27.7959L79.999 26.9349C80.0459 26.8896 80.105 26.859 80.169 26.8468C80.2331 26.8346 80.2993 26.8414 80.3595 26.8664C80.4198 26.8913 80.4714 26.9333 80.5081 26.9873C80.5448 27.0412 80.5649 27.1046 80.566 27.1698C80.566 27.4177 80.647 29.2872 81.052 29.1786C81.4708 29.0595 81.1913 28.0892 81.93 27.6048C81.9807 27.5764 82.0379 27.5615 82.096 27.5618C82.1541 27.5621 82.2112 27.5774 82.2616 27.6063C82.312 27.6351 82.3541 27.6766 82.3837 27.7266C82.4133 27.7766 82.4295 27.8334 82.4306 27.8915C82.4543 28.222 82.5555 28.5423 82.7263 28.8263C83.1342 26.9751 83.403 25.0961 83.5306 23.2049C83.5565 22.7788 84.211 22.7772 84.1737 23.196C84.1097 23.9193 84.0862 24.3381 84.0012 25.097C84.9256 25.0365 85.8515 25.0014 86.7779 24.9917C86.6938 24.3052 86.6287 23.6164 86.5827 22.9262C86.5519 22.5002 87.2169 22.505 87.2436 22.9262C87.3676 24.8181 87.6365 26.6977 88.048 28.5484C88.2184 28.2643 88.3196 27.9441 88.3436 27.6137C88.3447 27.5556 88.3607 27.4988 88.3902 27.4489C88.4198 27.3989 88.4617 27.3574 88.5121 27.3284C88.5624 27.2994 88.6194 27.284 88.6774 27.2836C88.7355 27.2832 88.7927 27.2979 88.8434 27.3261C89.5497 27.7976 89.3253 28.7906 89.7214 28.9C90.1175 29.0093 90.2131 27.139 90.2074 26.8912C90.2087 26.8261 90.2289 26.7627 90.2656 26.7089C90.3024 26.6551 90.354 26.6132 90.4142 26.5884C90.4744 26.5635 90.5406 26.5568 90.6046 26.569C90.6686 26.5812 90.7276 26.6118 90.7744 26.6571C91.0223 26.9568 91.2661 27.2565 91.514 27.557C91.535 27.587 91.7092 27.787 91.6832 27.7919C91.7399 27.783 91.7521 27.5489 91.7529 27.5133C91.7028 26.94 91.5867 26.3744 91.407 25.8276C91.0144 24.562 90.3511 23.397 89.463 22.4135C89.1803 22.096 89.6461 21.6262 89.9328 21.9437C90.5171 22.5922 91.0141 23.3144 91.4111 24.0918C91.2045 19.8186 90.0252 15.6489 87.9629 11.9005L85.4155 15.8655L82.5805 12.7478C80.9605 14.7655 80.1942 20.4007 79.8856 23.4738C80.1744 23.0378 80.4926 22.6221 80.8382 22.2296Z" fill="#FFBB3C"/>
<path d="M85.2374 90.8163C79.8979 86.4172 74.1509 81.8382 67.2813 81.029C65.3203 80.799 63.3123 80.8857 61.4112 80.364C59.5102 79.8424 57.6464 78.5156 57.2551 76.5862C56.8858 74.7726 57.8157 72.6293 56.6768 71.173C56.0685 70.3994 54.9758 70.0122 54.6202 69.0945C54.1293 67.8212 55.4375 66.5211 56.7554 66.1599C58.0732 65.7986 59.5248 65.9169 60.7551 65.3256C63.9069 63.7947 63.3941 59.0886 65.3592 56.1815C67.4506 53.0865 71.8157 52.7082 74.9593 50.6905C76.1602 49.9534 77.1561 48.9258 77.8551 47.7024C78.5541 46.479 78.9338 45.0993 78.9591 43.6905C78.8894 40.8822 76.781 38.1339 74.0027 37.7297C73.0794 37.6172 72.1428 37.6913 71.2487 37.9476C71.4658 38.4603 72.1008 40.069 71.5006 40.069C70.9612 39.9945 70.4614 39.7439 70.0791 39.3562C70.0791 39.3562 70.5529 41.2556 69.8361 41.4905C69.1192 41.7254 67.9358 40.3039 67.9358 40.3039C67.9358 40.3039 68.1788 41.7254 67.223 41.7254C66.6884 41.7254 66.0574 40.6724 65.603 39.7385C65.1256 39.8257 64.6406 39.8636 64.1555 39.8519C62.5509 39.7952 60.6903 38.4077 61.2987 36.9254C61.6907 35.9647 62.4011 35.7962 69.2553 32.199C70.0201 31.8741 70.6957 31.3702 71.2252 30.7297C71.4887 30.3536 71.6449 29.913 71.677 29.4549C71.7091 28.9969 71.6159 28.5387 71.4075 28.1296C60.3363 31.6437 50.7204 38.6864 44.0295 48.1811C41.7615 53.4413 38.9815 58.9339 40.0297 64.2515C40.6129 67.2226 42.2353 66.6977 43.5256 68.0253C45.1643 69.7028 44.0384 72.9809 45.8163 74.5166C46.4393 74.9609 47.1466 75.273 47.8948 75.4336C53.8539 77.2966 57.7695 82.4919 58.134 85.3966C58.3559 87.1397 57.6253 88.8439 57.324 90.57C57.0273 92.3667 57.1811 94.2088 57.7716 95.9314C58.3621 97.654 59.3708 99.2031 60.7074 100.44C61.9685 101.584 63.4946 102.422 64.6553 103.666C67.0286 106.214 67.4684 109.931 68.438 113.274C69.7586 117.806 72.2071 121.929 75.5547 125.257C75.8282 125.584 76.1959 125.819 76.6077 125.931C77.9377 126.153 78.3289 124.196 78.2463 122.853C78.0743 119.958 78.4536 117.057 79.3641 114.305C80.2194 111.701 81.0327 111.444 82.5595 110.405C86.0336 108.04 87.9809 103.961 88.9075 99.8615C89.9168 95.4422 88.7763 93.7282 85.2374 90.8163ZM137.052 64.4945C136.922 63.981 136.847 63.4318 136.739 62.8421C135.914 58.3628 132.764 52.0691 127.961 45.9941C125.458 42.8262 111.9 27.0984 108.856 38.2675C108.497 39.6187 108.556 41.047 109.026 42.3637C109.787 44.5288 108.443 48.3634 105.887 48.1285C104.843 48.0329 103.965 47.2545 102.926 47.1071C101.063 46.8414 99.5436 48.655 98.9045 50.4281C98.2654 52.2012 98.0354 54.2019 96.805 55.6323C96.5044 55.9191 96.2517 56.2522 96.0566 56.6189C95.4086 58.2016 97.9617 59.2708 99.5307 58.5969C101.1 57.923 102.439 56.4715 104.148 56.5233C105.057 56.6276 105.928 56.953 106.683 57.471L109.805 59.2627C109.966 59.3551 110.153 59.3918 110.338 59.3671C110.522 59.3424 110.693 59.2578 110.825 59.1262C110.956 58.9947 111.041 58.8235 111.065 58.6391C111.09 58.4547 111.053 58.2674 110.961 58.1061C110.233 56.7976 109.194 55.6893 107.934 54.8798C108.569 53.8365 110.222 54.0974 111.157 54.8798C112.091 55.6623 112.717 56.806 113.765 57.441C115.531 58.5102 118.417 58.1579 119.069 60.1497C119.223 60.6661 119.193 61.2198 118.983 61.7162C118.774 62.2126 118.399 62.6209 117.922 62.8713C116.03 63.9105 114.091 63.171 112.218 62.6583C108.263 61.4716 104.023 61.6554 100.185 63.1799C96.4332 64.8145 93.3763 68.2829 92.8287 72.341C92.2812 76.3991 94.6164 80.8322 98.4898 82.1663C99.7769 82.6102 101.163 82.7187 102.425 83.2274C106.998 85.0904 107.947 91.0706 107.933 96.0059C107.919 100.941 108.037 106.762 112.089 109.584C114.315 111.129 116.032 109.945 117.728 107.823C125.52 98.0706 133.874 81.5734 128.987 69.8494C128.535 68.7584 127.957 67.6495 128.279 66.4409C128.345 66.1649 128.477 65.9089 128.663 65.6947C128.849 65.4804 129.084 65.3144 129.348 65.2106C130.37 64.8436 130.877 65.5078 132.683 67.123C133.109 67.4995 133.644 67.7305 134.21 67.7822C134.776 67.834 135.344 67.7039 135.832 67.4108C136.319 67.1177 136.7 66.6769 136.919 66.1525C137.139 65.628 137.185 65.0473 137.052 64.4945Z" fill="#F7D7CA"/>
<path d="M36.2609 47.061C35.9742 46.7484 36.4391 46.2786 36.7307 46.592C37.5044 47.3636 38.4043 47.9973 39.3916 48.4656C41.2238 49.4513 40.7427 49.5024 41.0245 49.1897C41.8678 48.2501 44.9765 44.4917 44.0936 43.2419C43.8761 42.9449 43.5604 42.7346 43.2026 42.6481C42.8341 42.8079 42.4367 42.89 42.035 42.8893C41.6334 42.8886 41.2362 42.8051 40.8682 42.6441C40.5375 42.4751 40.2555 42.2243 40.0492 41.9155C39.8429 41.6066 39.7191 41.2501 39.6897 40.8799C38.5881 40.8069 37.4824 40.9284 36.4229 41.2387L37.2054 40.1946C34.1667 39.5114 31.0074 39.5787 28.0006 40.3907C26.8666 40.7009 26.4462 41.2452 27.0618 42.7121C28.1375 45.2561 29.5545 47.6419 31.2738 49.8037C31.4967 49.6976 31.6762 49.5178 31.7819 49.2946C31.8876 49.0715 31.913 48.8187 31.8537 48.579C31.823 48.498 31.7938 48.4234 31.763 48.3489C32.1461 48.9969 32.7796 52.2426 34.1217 53.473C34.344 53.6992 34.6375 53.8418 34.9528 53.8766C35.268 53.9114 35.5856 53.8364 35.8519 53.6641C36.1846 53.3153 36.3819 52.8592 36.4084 52.3779C36.4309 52.7036 36.515 53.0222 36.6562 53.3166C37.5302 54.8556 39.5042 51.5274 40.5175 49.9187C39.13 48.924 37.5837 48.4963 36.2609 47.061Z" fill="#F7D7CA"/>
<path d="M53.3672 28.9979C54.2898 30.2429 55.1843 31.5084 56.0499 32.7936C57.5752 32.2373 58.831 31.1203 59.5613 29.6702C57.6983 28.9048 55.9868 27.7044 55.9001 26.448C55.8434 25.6437 56.7044 24.8175 57.4391 25.1569C56.1901 24.3469 54.5393 22.5495 55.048 21.1442C55.3177 20.3876 56.4873 20.0102 56.9482 20.6703C56.5473 19.9362 56.1731 19.1878 55.8264 18.4266C55.5316 18.5301 55.283 18.7348 55.1249 19.0043C54.9668 19.2738 54.9094 19.5906 54.9629 19.8984C54.6691 18.9479 54.1345 18.0896 53.411 17.4068C53.1808 17.1426 52.8563 16.9789 52.507 16.9508C52.2879 16.9784 52.0835 17.0757 51.9238 17.2282C51.7642 17.3807 51.6577 17.5805 51.62 17.7981C51.5558 18.2364 51.5898 18.6835 51.7197 19.107C51.1341 17.8897 50.351 16.7776 49.4023 15.816C49.1051 15.4488 48.685 15.2017 48.2197 15.1202C47.4202 15.0675 46.8289 15.9764 46.8977 16.7766C47.0478 17.57 47.4203 18.3043 47.9718 18.894C46.8548 17.4797 43.7209 14.8756 42.3285 15.9853C42.104 16.203 41.9507 16.4835 41.8886 16.79C41.8266 17.0965 41.8588 17.4146 41.981 17.7025C42.2483 18.2654 42.6199 18.7725 43.0762 19.1969C43.0243 19.1402 42.9717 19.0884 42.9198 19.0349C42.4338 18.7109 40.9094 19.1969 42.1374 21.2219C43.0806 22.7619 44.2485 24.1524 45.6026 25.3473C45.4446 25.3224 45.2832 25.3329 45.1298 25.378C44.9764 25.4231 44.8349 25.5017 44.7156 25.6081C44.9724 26.3027 45.3784 26.9325 45.905 27.4532C46.4317 27.9738 47.0661 28.3725 47.7636 28.6213C47.0201 28.4082 46.3502 29.33 46.5065 30.0866C46.7503 30.8281 47.2768 31.4435 47.9718 31.7989C49.442 32.7799 51.1481 33.3491 52.9128 33.4473C53.7672 33.4537 54.6165 33.314 55.4238 33.0342C54.5796 31.7811 53.707 30.5474 52.8067 29.3341C52.537 28.9866 53.1153 28.6561 53.3672 28.9979ZM115.775 13.646C115.279 13.0328 114.328 13.0223 113.556 13.066C113.852 12.9173 114.112 12.7067 114.319 12.4485C114.526 12.1904 114.675 11.8906 114.756 11.5698C114.837 11.2489 114.847 10.9143 114.788 10.5888C114.728 10.2634 114.599 9.95459 114.409 9.68348C113.543 8.65721 111.535 9.00065 111.2 10.3007C111.51 9.384 111.578 8.40296 111.4 7.45193C111.294 6.98106 111.018 6.56594 110.624 6.28656C110.231 6.00719 109.748 5.88333 109.269 5.93885C108.272 6.18833 106.766 8.11127 106.839 10.4659C106.469 9.11567 103.502 8.83136 103.259 12.4269C103.178 13.651 103.381 14.8772 103.85 16.0104C103.155 15.3146 101.846 16.0015 101.611 16.954C101.493 17.9394 101.724 18.9347 102.263 19.768C102.047 19.6309 101.787 19.5832 101.537 19.6351C101.287 19.687 101.067 19.8343 100.924 20.0458C100.282 20.9319 100.694 23.4162 103.011 25.0297C104.648 26.1694 108.04 27.3212 109.852 26.4067C110.621 26.0196 110.995 24.8191 110.313 24.3007C111.231 24.2274 112.086 23.8002 112.696 23.1092C113.2 22.3478 112.665 20.9959 111.77 21.1693C112.821 20.9496 113.767 20.383 114.457 19.5606C115.04 18.6696 114.692 17.1468 113.63 17.0213C114.365 16.7623 115.03 16.338 115.574 15.7812C115.844 15.5001 116.01 15.1362 116.047 14.7486C116.083 14.3609 115.988 13.9724 115.775 13.646Z" fill="#F7D7CA"/>
<path d="M47.8982 35.0778C48.0742 34.2256 47.9753 33.3396 47.6155 32.5473C47.4201 32.1626 47.082 31.8695 46.6734 31.7305C46.2648 31.5916 45.818 31.6179 45.4285 31.8038C45.2701 30.7705 44.7089 29.842 43.8677 29.2215C43.4406 28.9287 42.9262 28.7907 42.4099 28.8301C41.8936 28.8696 41.4063 29.0843 41.0286 29.4386C41.0635 28.7468 40.4616 28.2171 39.9116 27.7951C39.1682 27.1552 38.3212 26.6466 37.4071 26.2909C36.9478 26.117 36.4523 26.0605 35.9655 26.1266C35.4788 26.1926 35.0163 26.3791 34.6199 26.6692C33.5669 27.5513 33.6115 29.2822 34.3769 30.4251C35.232 31.5122 36.3864 32.3254 37.6979 32.7644C37.4691 32.7274 37.2347 32.7454 37.0142 32.8171C36.7938 32.8888 36.5936 33.012 36.4303 33.1765C36.2669 33.341 36.1452 33.5421 36.0751 33.7631C36.0051 33.9841 35.9887 34.2186 36.0274 34.4471C36.0661 34.6757 36.1588 34.8917 36.2977 35.0773C36.4366 35.2629 36.6178 35.4127 36.8261 35.5143C37.0345 35.6159 37.2641 35.6663 37.4959 35.6614C37.7277 35.6564 37.9549 35.5963 38.1588 35.486C37.5564 35.7771 37.075 36.2702 36.7986 36.8795C36.5221 37.4888 36.468 38.1757 36.6457 38.8208C36.7608 39.129 36.9413 39.4086 37.1748 39.6404C37.4083 39.8722 37.6892 40.0507 37.9983 40.1635C38.3074 40.2764 38.6372 40.3209 38.9651 40.2941C39.293 40.2673 39.6112 40.1698 39.8979 40.0083C39.6793 40.4865 39.6588 41.0317 39.8409 41.525C40.0231 42.0182 40.393 42.4193 40.8699 42.6408C41.2378 42.8018 41.635 42.8852 42.0367 42.8859C42.4383 42.8866 42.8358 42.8045 43.2043 42.6448C45.0673 42.0713 46.0393 42.2398 47.2632 41.6598C46.0676 40.2731 44.8227 38.9283 43.5283 37.6252C43.466 37.5629 43.431 37.4784 43.431 37.3903C43.431 37.3022 43.466 37.2177 43.5283 37.1554C43.5906 37.0931 43.6751 37.0581 43.7632 37.0581C43.8513 37.0581 43.9358 37.0931 43.9981 37.1554C45.333 38.4952 46.6171 39.8851 47.8504 41.3253C48.4641 40.9419 48.982 40.4233 49.3645 39.8091C49.7471 39.1949 49.9842 38.5014 50.0577 37.7816C50.0848 37.1461 49.8811 36.5223 49.4842 36.0254C49.0873 35.5284 48.524 35.1918 47.8982 35.0778ZM135.897 34.4735C136.733 33.9646 137.447 33.2789 137.989 32.4647C138.251 32.0518 138.375 31.5661 138.342 31.0781C138.309 30.5902 138.122 30.1254 137.807 29.7512C136.458 28.4423 133.377 29.5455 133.011 32.0468C131.976 31.9296 130.938 32.2265 130.121 32.8726C129.305 33.5186 128.778 34.4614 128.654 35.4949C127.371 35.1709 126.332 36.5949 126.611 37.7556C123.998 37.6341 124.545 40.3776 125.858 41.5626C126.472 40.7235 127.085 39.883 127.699 39.0411C127.748 38.974 127.819 38.9274 127.9 38.9104C127.981 38.8933 128.065 38.9072 128.136 38.9491C128.207 38.9911 128.26 39.0581 128.284 39.137C128.308 39.216 128.302 39.3011 128.266 39.3756L126.391 41.9458C127.354 42.5819 128.414 43.0561 129.529 43.3495C130.704 43.5885 132.404 42.6804 130.621 42.0713C131.072 42.2431 131.562 42.284 132.035 42.1895C132.508 42.0949 132.944 41.8686 133.294 41.5367C133.456 41.3624 133.58 41.1567 133.658 40.9324C133.737 40.7081 133.768 40.47 133.751 40.233C133.733 39.996 133.667 39.7651 133.556 39.5548C133.446 39.3444 133.293 39.1591 133.108 39.0103C134.315 39.2098 135.554 39.0695 136.686 38.6053C137.759 38.0383 138.455 36.5706 137.777 35.5614C137.291 34.9973 136.629 34.614 135.897 34.4735ZM67.7586 22.782C67.7726 22.1606 67.5433 21.5584 67.1195 21.1037C66.6457 20.7084 65.7328 20.8777 65.6615 21.4908C65.6089 19.1556 64.4312 16.9905 63.0525 15.108C62.5919 14.3252 61.8678 13.7317 61.0097 13.4338C60.1309 13.2345 59.0357 13.9198 59.1832 14.8108C58.5615 13.6782 57.736 12.6701 56.7483 11.8373C56.3959 11.5368 55.8962 11.2541 55.496 11.4849C55.2924 11.6314 55.1452 11.8432 55.0789 12.0851C54.0259 14.9201 55.5171 17.9981 56.9467 20.6655C56.268 19.6983 53.7877 20.8469 55.5989 23.3871C56.0968 24.0846 56.7203 24.6831 57.4376 25.152C56.7029 24.8175 55.8468 25.638 55.8986 26.4432C56.0549 28.6982 61.6156 30.9201 63.8658 30.4195C62.5946 27.7154 61.469 24.9453 60.4937 22.121C60.3544 21.716 60.9935 21.5427 61.1328 21.9428C62.1034 24.7451 63.2222 27.4938 64.4846 30.1773C67.2548 28.9169 68.0154 25.8341 67.7586 22.782Z" fill="#F7D7CA"/>
<path d="M88.2453 61.0602C88.2453 62.136 87.8179 63.1678 87.0571 63.9286C86.2964 64.6893 85.2646 65.1167 84.1888 65.1167C83.1129 65.1167 82.0812 64.6893 81.3204 63.9286C80.5597 63.1678 80.1323 62.136 80.1323 61.0602C80.1281 60.9755 80.0915 60.8956 80.0301 60.8372C79.9686 60.7787 79.887 60.7461 79.8022 60.7461C79.7174 60.7461 79.6358 60.7787 79.5744 60.8372C79.513 60.8956 79.4763 60.9755 79.4721 61.0602C79.4804 62.0242 79.7801 62.9631 80.3317 63.7537C80.8834 64.5443 81.6612 65.1496 82.5631 65.4901C83.2765 65.7507 84.0421 65.8355 84.7952 65.7374C85.5483 65.6393 86.2667 65.3612 86.8895 64.9265C87.5123 64.4919 88.0212 63.9136 88.3731 63.2406C88.725 62.5676 88.9095 61.8197 88.9111 61.0602C88.9111 60.9719 88.876 60.8872 88.8136 60.8248C88.7511 60.7624 88.6665 60.7273 88.5782 60.7273C88.4899 60.7273 88.4052 60.7624 88.3428 60.8248C88.2803 60.8872 88.2453 60.9719 88.2453 61.0602ZM98.184 51.0818C98.6999 50.0944 99.5431 49.5161 100.066 49.7899C100.59 50.0636 100.595 51.0859 100.079 52.0732C99.5634 53.0606 98.7202 53.639 98.1969 53.3652C97.6737 53.0914 97.668 52.0692 98.184 51.0818ZM72.5458 49.073C72.0242 48.7992 71.181 49.3776 70.6634 50.3641C70.1458 51.3507 70.1499 52.3729 70.6764 52.6467C71.2029 52.9205 72.0412 52.343 72.5588 51.3556C73.0764 50.3682 73.0675 49.3468 72.5458 49.073Z" fill="black"/>
<path d="M85.3321 11.7733C85.3321 11.7733 80.0671 7.45194 80.9282 4.8648C81.7892 2.27766 85.7323 6.67758 85.7412 6.68244C85.5938 6.52044 87.3231 4.76517 87.4843 4.6299C89.2501 3.16056 90.602 5.0349 89.9281 6.78207C89.1238 8.85567 87.0323 10.4732 85.3321 11.7733Z" fill="#FF606C"/>
<path d="M26.9974 29.2475C26.8041 29.478 26.6692 29.7518 26.6042 30.0456C26.5392 30.3394 26.546 30.6445 26.6241 30.9351C26.7021 31.2257 26.8491 31.4932 27.0525 31.7149C27.256 31.9366 27.5099 32.1059 27.7927 32.2086C28.0755 32.3112 28.379 32.3442 28.6772 32.3046C28.9755 32.265 29.2598 32.1541 29.5061 31.9812C29.7524 31.8084 29.9534 31.5787 30.0919 31.3116C30.2305 31.0445 30.3027 30.748 30.3022 30.4471C30.3012 30.0635 30.1824 29.6895 29.9618 29.3756C29.7413 29.0618 29.4296 28.8233 29.069 28.6924C28.7085 28.5615 28.3164 28.5446 27.9459 28.6439C27.5753 28.7431 27.2443 28.9538 26.9974 29.2475ZM28.854 31.59C28.6115 31.6812 28.3461 31.6925 28.0968 31.6222C27.8474 31.552 27.627 31.4038 27.4678 31.1994C27.3086 30.995 27.2189 30.7451 27.2117 30.4861C27.2046 30.2271 27.2805 29.9726 27.4282 29.7598C27.576 29.547 27.7879 29.387 28.0331 29.3031C28.2782 29.2193 28.5437 29.216 28.7909 29.2937C29.038 29.3715 29.2538 29.5262 29.4068 29.7353C29.5598 29.9444 29.642 30.1969 29.6413 30.456C29.6392 30.7022 29.5629 30.9421 29.4225 31.1444C29.282 31.3467 29.0839 31.5019 28.854 31.59ZM20.7199 40.5389C20.8611 40.5389 20.999 40.497 21.1164 40.4186C21.2338 40.3402 21.3252 40.2287 21.3792 40.0983C21.4332 39.9679 21.4474 39.8245 21.4198 39.686C21.3923 39.5476 21.3243 39.4205 21.2245 39.3207C21.1247 39.2209 20.9976 39.1529 20.8592 39.1254C20.7207 39.0978 20.5772 39.112 20.4469 39.166C20.3165 39.22 20.205 39.3114 20.1266 39.4288C20.0482 39.5462 20.0063 39.6841 20.0063 39.8253C20.0063 40.0145 20.0815 40.196 20.2153 40.3299C20.3492 40.4637 20.5307 40.5389 20.7199 40.5389ZM99.2543 5.18399C99.1131 5.18383 98.9751 5.22555 98.8576 5.30386C98.7402 5.38218 98.6486 5.49357 98.5944 5.62395C98.5403 5.75433 98.526 5.89784 98.5535 6.03632C98.5809 6.1748 98.6488 6.30203 98.7486 6.40191C98.8484 6.50179 98.9755 6.56984 99.114 6.59744C99.2524 6.62504 99.3959 6.61095 99.5264 6.55697C99.6568 6.50298 99.7683 6.41152 99.8468 6.29415C99.9252 6.17678 99.9671 6.03877 99.9671 5.8976C99.9671 5.70848 99.892 5.52709 99.7584 5.39329C99.6247 5.25948 99.4434 5.18421 99.2543 5.18399ZM20.2331 53.8034C20.0396 54.0339 19.9045 54.3076 19.8393 54.6015C19.7742 54.8953 19.7808 55.2005 19.8587 55.4911C19.9366 55.7818 20.0835 56.0494 20.2869 56.2712C20.4903 56.4931 20.7442 56.6625 21.0271 56.7653C21.3099 56.8681 21.6134 56.9011 21.9117 56.8616C22.2101 56.8221 22.4945 56.7112 22.7408 56.5383C22.9872 56.3654 23.1882 56.1357 23.3268 55.8685C23.4654 55.6014 23.5376 55.3048 23.5371 55.0038C23.5365 54.6202 23.418 54.2459 23.1976 53.9319C22.9772 53.6178 22.6656 53.3791 22.305 53.2481C21.9444 53.117 21.5522 53.1001 21.1816 53.1994C20.811 53.2987 20.4799 53.5096 20.2331 53.8034ZM22.0961 56.1468C21.8537 56.2381 21.5883 56.2496 21.3389 56.1795C21.0895 56.1094 20.869 55.9614 20.7096 55.7571C20.5502 55.5528 20.4604 55.3029 20.4531 55.0438C20.4459 54.7848 20.5216 54.5303 20.6693 54.3174C20.8169 54.1045 21.0288 53.9443 21.2739 53.8604C21.5191 53.7764 21.7846 53.773 22.0318 53.8507C22.279 53.9283 22.4949 54.083 22.648 54.2921C22.801 54.5011 22.8833 54.7537 22.8826 55.0128C22.8798 55.2591 22.8031 55.4988 22.6625 55.701C22.5218 55.9032 22.3237 56.0585 22.0937 56.1468H22.0961ZM137.68 49.295C137.486 49.5255 137.351 49.7992 137.286 50.0931C137.221 50.3869 137.228 50.6922 137.306 50.9829C137.383 51.2736 137.53 51.5412 137.734 51.763C137.937 51.9848 138.191 52.1543 138.474 52.257C138.757 52.3597 139.061 52.3927 139.359 52.3531C139.657 52.3134 139.942 52.2024 140.188 52.0295C140.434 51.8565 140.635 51.6267 140.774 51.3595C140.912 51.0922 140.984 50.7956 140.984 50.4946C140.983 50.111 140.864 49.7369 140.644 49.4229C140.424 49.109 140.112 48.8704 139.751 48.7395C139.391 48.6085 138.999 48.5916 138.628 48.691C138.258 48.7903 137.927 49.0012 137.68 49.295ZM139.543 51.6383C139.3 51.7295 139.035 51.7408 138.786 51.6705C138.536 51.6003 138.316 51.4521 138.157 51.2477C137.997 51.0433 137.908 50.7934 137.901 50.5344C137.894 50.2754 137.969 50.021 138.117 49.8081C138.265 49.5953 138.477 49.4353 138.722 49.3514C138.967 49.2676 139.233 49.2643 139.48 49.3421C139.727 49.4198 139.943 49.5745 140.096 49.7836C140.249 49.9927 140.331 50.2452 140.33 50.5043C140.326 50.7504 140.249 50.9896 140.108 51.1916C139.967 51.3936 139.77 51.5491 139.54 51.6383H139.543ZM130.085 18.6907C129.892 18.9212 129.757 19.195 129.692 19.4888C129.626 19.7826 129.633 20.0878 129.711 20.3785C129.789 20.6691 129.936 20.9367 130.139 21.1586C130.342 21.3804 130.596 21.5499 130.879 21.6526C131.162 21.7554 131.466 21.7884 131.764 21.7489C132.062 21.7094 132.347 21.5985 132.593 21.4256C132.839 21.2527 133.04 21.023 133.179 20.7559C133.318 20.4887 133.39 20.1921 133.389 19.8912C133.389 19.5075 133.27 19.1332 133.05 18.8192C132.829 18.5051 132.518 18.2664 132.157 18.1354C131.797 18.0044 131.404 17.9874 131.034 18.0867C130.663 18.186 130.332 18.3969 130.085 18.6907ZM131.942 21.03C131.699 21.1212 131.434 21.1325 131.185 21.0622C130.935 20.992 130.715 20.8438 130.556 20.6395C130.396 20.4351 130.307 20.1851 130.3 19.9261C130.293 19.6672 130.368 19.4127 130.516 19.1999C130.664 18.987 130.876 18.827 131.121 18.7432C131.366 18.6593 131.632 18.656 131.879 18.7338C132.126 18.8115 132.342 18.9662 132.495 19.1753C132.648 19.3844 132.73 19.6369 132.729 19.896C132.728 20.1415 132.652 20.3808 132.513 20.583C132.374 20.7852 132.177 20.9409 131.948 21.03H131.942Z" fill="#F7D7CA"/>
<path d="M74.2116 21.6601C74.2116 21.7628 74.1708 21.8612 74.0982 21.9338C74.0256 22.0065 73.9271 22.0472 73.8244 22.0472C73.7217 22.0472 73.6232 22.0065 73.5506 21.9338C73.478 21.8612 73.4372 21.7628 73.4372 21.6601C73.4372 21.5574 73.478 21.4589 73.5506 21.3863C73.6232 21.3137 73.7217 21.2729 73.8244 21.2729C73.9271 21.2729 74.0256 21.3137 74.0982 21.3863C74.1708 21.4589 74.2116 21.5574 74.2116 21.6601ZM76.1596 22.3081C76.083 22.3079 76.0081 22.3305 75.9443 22.3729C75.8805 22.4154 75.8308 22.4758 75.8013 22.5465C75.7719 22.6173 75.7641 22.6951 75.779 22.7703C75.7938 22.8454 75.8306 22.9145 75.8847 22.9687C75.9389 23.023 76.0079 23.0599 76.083 23.0749C76.1581 23.0899 76.236 23.0823 76.3068 23.053C76.3776 23.0238 76.4381 22.9741 76.4807 22.9104C76.5233 22.8468 76.546 22.7719 76.546 22.6952C76.5458 22.5928 76.505 22.4945 76.4326 22.422C76.3603 22.3495 76.2621 22.3085 76.1596 22.3081ZM74.7632 20.2126C74.8259 20.2741 74.9102 20.3086 74.9981 20.3086C75.0859 20.3086 75.1703 20.2741 75.233 20.2126C75.2936 20.1494 75.3274 20.0652 75.3274 19.9777C75.3274 19.8902 75.2936 19.806 75.233 19.7428C74.9427 19.4665 74.5731 19.2882 74.1761 19.2328C73.7792 19.1775 73.3749 19.2479 73.0201 19.4342C72.9821 19.4555 72.9487 19.4844 72.9221 19.5189C72.8955 19.5534 72.8761 19.593 72.8652 19.6352C72.8542 19.6774 72.8519 19.7214 72.8583 19.7645C72.8647 19.8076 72.8798 19.849 72.9026 19.8862C73.0257 20.0879 73.1918 20.053 73.3935 19.9866C73.8622 19.888 74.351 19.9686 74.7632 20.2126ZM75.5546 23.9345C75.0085 24.0155 74.4511 23.9709 73.9248 23.8041C73.5582 23.6841 73.2224 23.4849 72.9413 23.2206C72.6603 22.9563 72.4408 22.6334 72.2984 22.2749C72.2538 22.1995 72.1812 22.145 72.0965 22.1231C72.0118 22.1012 71.9218 22.1139 71.8464 22.1582C71.772 22.2037 71.7183 22.2762 71.6964 22.3605C71.6744 22.4448 71.6861 22.5343 71.7289 22.6102C72.0729 23.3453 72.6575 23.941 73.3859 24.2987C74.1144 24.6565 74.9432 24.7549 75.7352 24.5777C76.1459 24.491 75.9677 23.8519 75.5546 23.9345ZM96.5457 20.5601C96.4692 20.5602 96.3944 20.5831 96.3308 20.6257C96.2673 20.6684 96.2178 20.7289 96.1886 20.7997C96.1594 20.8704 96.1518 20.9482 96.1669 21.0233C96.1819 21.0984 96.2188 21.1673 96.273 21.2213C96.3272 21.2754 96.3962 21.3122 96.4713 21.3271C96.5464 21.3419 96.6242 21.3342 96.6949 21.3049C96.7656 21.2756 96.826 21.2259 96.8685 21.1623C96.911 21.0986 96.9337 21.0238 96.9337 20.9473C96.9335 20.8445 96.8925 20.746 96.8198 20.6734C96.747 20.6009 96.6485 20.5601 96.5457 20.5601ZM94.5985 21.9865C94.5986 21.9099 94.5761 21.835 94.5336 21.7712C94.4912 21.7074 94.4307 21.6576 94.36 21.6282C94.2893 21.5988 94.2114 21.591 94.1362 21.6059C94.0611 21.6207 93.992 21.6575 93.9378 21.7116C93.8836 21.7657 93.8466 21.8347 93.8316 21.9099C93.8166 21.985 93.8242 22.0629 93.8535 22.1337C93.8828 22.2045 93.9324 22.265 93.9961 22.3076C94.0598 22.3501 94.1347 22.3729 94.2113 22.3729C94.3138 22.3727 94.412 22.3319 94.4845 22.2595C94.5571 22.1871 94.598 22.089 94.5985 21.9865ZM95.611 19.499C96.421 18.706 97.2237 19.661 97.474 19.175C97.517 19.0992 97.5288 19.0096 97.5068 18.9252C97.4849 18.8408 97.431 18.7683 97.3565 18.723C97.0015 18.5373 96.5974 18.4672 96.2006 18.5226C95.8038 18.5779 95.4342 18.7559 95.1436 19.0316C95.1118 19.0619 95.0864 19.0982 95.0689 19.1384C95.0514 19.1786 95.0421 19.2219 95.0416 19.2657C95.041 19.3096 95.0493 19.3531 95.0658 19.3938C95.0823 19.4344 95.1068 19.4713 95.1379 19.5023C95.1689 19.5333 95.2058 19.5578 95.2464 19.5743C95.287 19.5909 95.3305 19.5991 95.3744 19.5986C95.4183 19.5981 95.4616 19.5888 95.5018 19.5712C95.542 19.5537 95.5783 19.5283 95.6085 19.4966L95.611 19.499ZM98.5237 21.4381C98.448 21.3952 98.3585 21.3834 98.2743 21.4053C98.1901 21.4272 98.1177 21.4812 98.0726 21.5556C97.8034 22.1654 97.3317 22.6634 96.7374 22.9653C96.1431 23.2672 95.4627 23.3544 94.8115 23.212C94.3935 23.131 94.2161 23.7685 94.6333 23.8511C95.4248 24.0281 96.253 23.9298 96.9811 23.5726C97.7092 23.2153 98.2936 22.6204 98.6379 21.8861C98.6602 21.8493 98.675 21.8084 98.6813 21.7658C98.6876 21.7232 98.6854 21.6798 98.6748 21.6381C98.6641 21.5964 98.6453 21.5573 98.6194 21.5229C98.5934 21.4886 98.5609 21.4598 98.5237 21.4381ZM83.5679 19.6294C83.5679 19.1636 82.5764 19.1636 82.5764 19.6294C82.5764 20.0951 83.5679 20.096 83.5679 19.6294ZM88.6676 19.3475C88.6676 18.881 87.6762 18.881 87.6762 19.3475C87.6762 19.8141 88.6676 19.8133 88.6676 19.3475ZM87.0152 19.6991C87.0175 19.6543 87.0106 19.6096 86.995 19.5677C86.9794 19.5257 86.9554 19.4873 86.9246 19.4549C86.8937 19.4224 86.8566 19.3966 86.8154 19.379C86.7743 19.3613 86.7299 19.3522 86.6852 19.3522C86.6404 19.3522 86.5961 19.3613 86.5549 19.379C86.5138 19.3966 86.4766 19.4224 86.4458 19.4549C86.4149 19.4873 86.3909 19.5257 86.3754 19.5677C86.3598 19.6096 86.3529 19.6543 86.3551 19.6991C86.3551 20.8825 85.2349 20.6646 85.0243 19.6124C84.9975 19.5313 84.9405 19.4637 84.8652 19.4235C84.7899 19.3833 84.702 19.3737 84.6197 19.3966C84.5375 19.4195 84.4672 19.4733 84.4235 19.5466C84.3799 19.62 84.3661 19.7074 84.3852 19.7906C84.8574 21.6803 87.0152 21.6082 87.0152 19.6991Z" fill="black"/>
<path d="M141.78 94.2677C141.079 92.2875 139.887 90.5177 138.315 89.1242C141.767 73.4912 137.414 55.9887 125.794 42.7776C125.994 42.499 127.643 40.2342 128.269 39.3756C128.313 39.3001 128.326 39.2103 128.304 39.1257C128.282 39.0411 128.228 38.9685 128.153 38.9236C128.077 38.8808 127.987 38.8691 127.903 38.891C127.818 38.9129 127.746 38.9667 127.7 39.0411C127.088 39.8802 125.513 42.0381 125.341 42.2762C123.382 40.0946 121.244 38.0801 118.95 36.2539C120.195 34.3088 121.324 32.2925 122.333 30.2153C122.515 29.8322 121.946 29.4977 121.759 29.88C120.764 31.931 119.65 33.9219 118.422 35.8424C115.974 33.9351 113.361 32.2488 110.614 30.8034C111.322 29.4923 111.993 28.1615 112.627 26.8125C112.805 26.4302 112.235 26.0908 112.053 26.478C111.414 27.8365 110.739 29.1775 110.028 30.4996C104.376 27.5923 98.2203 25.7915 91.8923 25.1941C91.4529 23.9951 90.7878 22.8915 89.9329 21.9428C89.6462 21.6253 89.1805 22.0951 89.4631 22.4126C90.3512 23.3961 91.0146 24.5611 91.4071 25.8267C91.5868 26.3734 91.7029 26.9391 91.753 27.5124C91.753 27.5512 91.7401 27.7821 91.6834 27.791C91.7093 27.7861 91.5351 27.5861 91.5141 27.5561C91.2662 27.2556 91.0224 26.9559 90.7745 26.6562C90.7277 26.6109 90.6687 26.5803 90.6047 26.5681C90.5407 26.5559 90.4745 26.5626 90.4143 26.5875C90.3541 26.6123 90.3025 26.6542 90.2657 26.708C90.229 26.7618 90.2088 26.8251 90.2075 26.8903C90.2124 27.1381 90.1265 29.0125 89.7215 28.8991C89.3165 28.7857 89.5701 27.8096 88.8435 27.3252C88.7928 27.297 88.7356 27.2823 88.6775 27.2827C88.6195 27.2831 88.5625 27.2985 88.5122 27.3275C88.4618 27.3564 88.4199 27.3979 88.3904 27.4479C88.3608 27.4979 88.3448 27.5547 88.3437 27.6128C88.3197 27.9432 88.2185 28.2634 88.0481 28.5475C87.6368 26.6967 87.3679 24.8172 87.2437 22.9253C87.217 22.5041 86.552 22.4993 86.5828 22.9253C86.6257 23.6041 86.6954 24.278 86.7739 24.956C86.7837 25.037 86.9254 24.9285 84.4249 25.0702C83.93 25.0986 84.0021 25.1188 84.0118 25.0338C84.0815 24.4214 84.122 23.8115 84.1738 23.1951C84.2111 22.7763 83.5566 22.7779 83.5307 23.204C83.4035 25.0952 83.1347 26.9743 82.7264 28.8254C82.5557 28.5414 82.4544 28.2211 82.4307 27.8906C82.4296 27.8325 82.4135 27.7757 82.3838 27.7257C82.3542 27.6757 82.3121 27.6342 82.2617 27.6054C82.2113 27.5765 82.1542 27.5611 82.0961 27.5609C82.038 27.5606 81.9808 27.5754 81.9301 27.6039C81.189 28.0899 81.4749 29.0619 81.0521 29.1777C80.6471 29.2863 80.5661 27.4168 80.5661 27.1689C80.565 27.1037 80.5449 27.0403 80.5082 26.9864C80.4715 26.9324 80.4199 26.8904 80.3597 26.8655C80.2994 26.8405 80.2332 26.8337 80.1691 26.8459C80.1051 26.8581 80.046 26.8887 79.9991 26.934L79.2944 27.795C79.2774 27.812 79.0644 28.0688 79.0903 28.0729C79.0474 28.0688 79.0255 27.8598 79.0206 27.8299C79.0564 27.3074 79.1529 26.791 79.3082 26.2909C79.6917 24.9564 80.3758 23.7275 81.3081 22.6985C81.5948 22.381 81.125 21.9112 80.8383 22.2287C79.9351 23.2363 79.2422 24.4141 78.8003 25.6931C75.5427 26.224 72.3437 27.0665 69.2472 28.209C69.2747 26.8239 69.8498 26.103 70.2597 24.095C72.7383 28.294 79.3138 25.9531 78.4893 21.034C78.4755 20.3341 78.3321 16.421 76.7494 14.959C76.6233 14.8427 76.4691 14.7612 76.302 14.7225C76.1349 14.6838 75.9606 14.6892 75.7962 14.7382C75.6318 14.7872 75.483 14.8782 75.3644 15.0021C75.2458 15.126 75.1615 15.2786 75.1197 15.445C74.9845 15.142 74.7891 14.8697 74.5454 14.6447C74.4396 14.5472 74.3077 14.4826 74.1658 14.4588C74.0239 14.435 73.8781 14.453 73.7463 14.5107C73.6145 14.5683 73.5023 14.663 73.4234 14.7833C73.3445 14.9037 73.3023 15.0443 73.302 15.1882C73.0582 14.9954 72.7942 14.8294 72.5147 14.6933C72.3248 14.6034 72.1133 14.5693 71.9048 14.5951C71.6962 14.621 71.4994 14.7056 71.3371 14.8391C71.1749 14.9726 71.054 15.1495 70.9886 15.3492C70.9232 15.5488 70.9159 15.763 70.9676 15.9666C70.746 15.9208 70.5185 15.9107 70.2937 15.9366C70.1158 15.9549 69.9451 16.0161 69.796 16.1148C69.647 16.2135 69.5241 16.347 69.438 16.5036C69.3518 16.6603 69.3049 16.8355 69.3013 17.0142C69.2977 17.193 69.3375 17.3699 69.4173 17.5299L69.6514 17.9997C69.3692 18.1146 69.1212 18.3 68.931 18.5381C68.7409 18.7762 68.615 19.0591 68.5653 19.3597C68.5157 19.6604 68.544 19.9687 68.6475 20.2553C68.7509 20.5419 68.9262 20.7972 69.1564 20.9967C67.4149 20.5212 64.166 22.2676 62.5849 25.8105C62.0681 24.5291 61.5821 23.2361 61.1269 21.9315C60.9876 21.5321 60.3485 21.7014 60.4878 22.1105C61.0257 23.6554 61.6086 25.1842 62.2358 26.6951C61.7208 28.2601 61.5519 29.9183 61.7409 31.5551C60.1463 32.4065 58.6 33.3457 57.1093 34.3682C56.4613 33.3711 54.6631 30.7289 53.3574 28.9817C53.1055 28.6423 52.5312 28.9728 52.7839 29.3162C54.2038 31.2213 56.0239 33.9089 56.5618 34.7432C53.5764 36.8333 50.8114 39.2216 48.3095 41.8712C46.9317 40.2371 45.4871 38.6606 43.9792 37.1457C43.6795 36.8411 43.2097 37.3077 43.5094 37.6147C45.1829 39.2938 46.4635 40.7316 47.8575 42.3629C45.6206 44.7835 43.623 47.4148 41.8927 50.2199C40.3277 48.6112 38.2096 48.1949 36.7249 46.583C36.4333 46.2695 35.9683 46.7393 36.2551 47.052C37.8678 48.8048 40.0175 49.1628 41.5403 50.7934C35.6449 60.5607 33.1284 71.9969 34.3791 83.3367C33.0568 84.5224 31.983 85.9587 31.2201 87.5625C30.6734 88.6604 30.3839 89.8684 30.3733 91.0948C30.3628 92.3212 30.6316 93.534 31.1593 94.6411C31.4543 95.3112 31.8598 95.9271 32.359 96.4628C33.8639 97.9848 36.004 97.7539 37.8289 97.0298C45.2161 115.423 62.478 128.276 81.2805 130.441L81.2765 130.455C81.2765 155.799 81.2141 155.533 81.2198 155.703L75.3068 157.295C75.2257 157.321 75.158 157.378 75.1179 157.454C75.0777 157.529 75.068 157.617 75.091 157.699C75.1139 157.781 75.1676 157.852 75.241 157.895C75.3144 157.939 75.4017 157.953 75.485 157.934C77.2848 157.448 81.398 156.342 81.6547 156.272C81.7236 156.252 81.7843 156.21 81.828 156.153C81.8716 156.096 81.8961 156.027 81.8977 155.955C81.8977 155.108 81.9787 131.533 81.9374 130.507C85.0028 130.83 88.092 130.857 91.1625 130.588C91.1625 131.392 91.2022 155.949 91.2022 155.949C91.2032 156.021 91.2273 156.091 91.2711 156.148C91.3149 156.205 91.376 156.246 91.4452 156.266C93.2442 156.752 97.3534 157.858 97.6142 157.926C97.6988 157.95 97.7894 157.939 97.8659 157.896C97.9425 157.853 97.9988 157.781 98.0224 157.696C98.046 157.612 98.0351 157.521 97.9919 157.445C97.9488 157.368 97.877 157.312 97.7924 157.288C95.9926 156.802 92.0414 155.74 91.8664 155.692C91.8664 154.927 91.8664 131.536 91.8275 130.514C109.081 128.715 125.09 117.729 133.501 102.123C135.323 103.115 137.766 103.945 139.639 102.65C141.55 101.337 142.95 97.728 141.78 94.2677ZM69.329 19.1078C69.4159 18.9502 69.5385 18.8152 69.6869 18.7135C69.8354 18.6118 70.0056 18.5463 70.1839 18.5222C70.3623 18.4981 70.5437 18.5161 70.7139 18.5748C70.884 18.6334 71.038 18.7311 71.1636 18.8599C71.2267 18.9207 71.3109 18.9547 71.3985 18.9547C71.4861 18.9547 71.5703 18.9207 71.6334 18.8599C72.3196 18.284 73.1865 17.9678 74.0824 17.9664C74.9782 17.9651 75.846 18.2788 76.5339 18.8527C77.2219 19.4265 77.6861 20.224 77.8455 21.1056C78.0048 21.9871 77.8491 22.8967 77.4056 23.6751C76.9621 24.4534 76.2591 25.0511 75.4194 25.3635C74.5798 25.6758 73.6571 25.6831 72.8127 25.3838C71.9683 25.0846 71.256 24.498 70.8004 23.7267C70.3447 22.9553 70.1749 22.0483 70.3204 21.1644C70.3405 21.0802 70.3279 20.9915 70.285 20.9163C70.2421 20.8411 70.1723 20.785 70.0896 20.7594C69.9191 20.7189 69.7601 20.6402 69.6246 20.5292C69.489 20.4182 69.3805 20.2778 69.3073 20.1187C69.234 19.9596 69.1978 19.7859 69.2016 19.6108C69.2054 19.4356 69.2489 19.2636 69.329 19.1078ZM69.6684 22.3478C69.6854 22.4782 69.7024 22.6086 69.7291 22.735C69.6258 24.0789 69.3256 25.4004 68.8381 26.657C68.0597 29.0271 69.2917 32.7814 70.2556 35.0867C70.1746 35.1312 67.8637 36.5447 64.6083 38.1954C63.1171 35.3564 62.0382 32.1391 62.4083 28.8999C63.0887 22.9391 69.0268 20.0879 69.6684 22.347V22.3478ZM70.7335 37.622C71.0801 38.2793 71.3095 38.9919 71.4115 39.728C70.988 39.6415 70.601 39.4275 70.3026 39.1148C70.2502 39.0651 70.1831 39.0338 70.1114 39.0256C70.0396 39.0174 69.9672 39.0327 69.9049 39.0693C69.8427 39.1059 69.794 39.1617 69.7662 39.2283C69.7385 39.295 69.7331 39.3688 69.751 39.4388C69.81 39.6785 69.8519 39.9221 69.8765 40.1678C69.9762 41.2581 69.7882 41.5553 68.8073 40.7113C68.5782 40.5136 68.3645 40.2986 68.1682 40.0682C67.9431 39.7968 67.6012 40.0754 67.6142 40.3557C67.6029 40.5704 67.7438 41.2913 67.2813 41.3941C67.2429 41.4 67.2036 41.3961 67.1671 41.3828C66.4956 41.0272 65.7018 39.2144 65.4248 38.5203C67.0713 37.6748 68.692 36.7802 70.2848 35.8375C70.6637 35.9621 71.0111 36.1672 71.303 36.4389C71.595 36.7106 71.8246 37.0424 71.9761 37.4114C71.6914 37.43 71.4098 37.3435 71.1847 37.1684C70.8858 36.9691 70.6072 37.3474 70.7335 37.6211V37.622ZM33.3925 96.4644C32.3404 95.6108 31.6019 94.4318 31.293 93.1126C30.3963 89.8451 32.0512 86.4706 34.4884 84.1516C35.0086 88.3586 36.0498 92.4845 37.5883 96.4344C36.2073 97.0071 34.6683 97.2728 33.3941 96.4636L33.3925 96.4644ZM133.245 101.225C129.045 98.7413 124.319 93.2511 121.915 89.0246C121.687 88.6236 121.793 88.895 121.845 88.0372C123.234 85.8891 123.043 82.9107 122.433 80.4288C122.332 80.0165 121.694 80.1858 121.793 80.6078C122.341 82.4707 122.381 84.4459 121.911 86.3297C121.845 83.877 121.291 81.1254 119.785 79.1636C119.737 79.0959 119.665 79.0487 119.584 79.0314C119.503 79.014 119.418 79.0279 119.347 79.0701C119.275 79.1124 119.222 79.1799 119.198 79.2593C119.175 79.3388 119.181 79.4243 119.218 79.499C120.732 81.4648 121.275 84.3249 121.253 86.7679C120.64 85.0517 119.481 83.5841 117.953 82.5899C117.593 82.3599 117.262 82.9334 117.619 83.1634C118.397 83.6815 119.079 84.3304 119.636 85.0815C120.019 85.5902 121.083 89.5243 121.384 89.4377C123.806 93.7015 128.577 99.2103 132.94 101.803C126.06 114.487 114.453 123.943 100.64 128.116C75.0443 135.685 48.1013 120.836 38.4453 96.7771C42.3819 94.9084 46.4521 90.57 49.1673 86.8295C50.1976 85.4055 51.6604 83.9426 51.7933 82.2384C51.9579 81.2625 52.3283 80.3329 52.88 79.5113C53.4316 78.6897 54.1518 77.9949 54.9928 77.4732C55.3492 77.2423 55.0187 76.6729 54.6583 76.8989C53.1285 77.8945 51.9689 79.3658 51.3583 81.0857C51.3316 78.6298 51.871 75.7811 53.389 73.8079C53.4252 73.7333 53.4321 73.6477 53.4082 73.5683C53.3843 73.4888 53.3314 73.4213 53.26 73.3791C53.1885 73.3368 53.1039 73.323 53.0227 73.3403C52.9416 73.3576 52.8699 73.4048 52.822 73.4726C51.3097 75.4376 50.7597 78.1876 50.7095 80.6459C50.2377 78.7603 50.2752 76.7832 50.818 74.9168C50.8379 74.8333 50.8247 74.7454 50.7812 74.6714C50.7377 74.5974 50.6672 74.5432 50.5846 74.5201C50.5019 74.4969 50.4135 74.5067 50.3379 74.5472C50.2623 74.5878 50.2053 74.6561 50.179 74.7378C49.5739 77.1969 49.3811 80.2093 50.7573 82.2983C50.7739 82.5538 50.8058 82.8081 50.8529 83.0597C48.2989 87.7099 42.8412 93.9485 38.1966 96.1688C33.6939 84.4618 33.6128 71.5149 37.9686 59.7525C42.3244 47.99 50.8184 38.2186 61.86 32.2679C62.26 34.5673 63.0486 36.7819 64.192 38.8167C64.2227 38.8818 64.277 38.9328 64.3439 38.9594C64.4108 38.986 64.4853 38.9863 64.5524 38.9601C64.6334 38.9487 64.6334 38.9439 64.844 38.8297C65.1802 39.664 65.9942 41.4857 66.7961 41.9344C66.9426 42.0113 67.106 42.0506 67.2714 42.0486C67.4369 42.0467 67.5992 42.0036 67.7439 41.9232C67.8885 41.8429 68.0109 41.7278 68.1 41.5883C68.1891 41.4489 68.242 41.2894 68.2541 41.1244C69.6773 42.4658 70.7611 41.8809 70.5545 40.133C71.3993 40.6028 72.1688 40.478 72.0676 39.5198C72.0007 39.0165 71.8615 38.5254 71.6545 38.0618C72.4159 38.1922 72.7666 37.7572 72.6192 37.2137C72.3053 36.428 71.7126 35.7858 70.9546 35.4099C71.0761 35.2098 70.9441 35.034 70.8939 34.8923C70.7319 34.4468 69.3695 31.2035 69.2739 28.9047C72.3003 27.7961 75.4203 26.962 78.5962 26.4124C78.4147 27.1227 78.1256 28.1045 78.665 28.5791C78.7934 28.6791 78.9544 28.7276 79.1166 28.7152C79.2789 28.7027 79.4306 28.6303 79.5423 28.5119C79.6885 28.3714 79.8238 28.22 79.9473 28.0591C79.9776 28.3096 80.0239 28.558 80.0858 28.8027C80.1903 29.2028 80.3466 29.6856 80.7905 29.82C80.9911 29.8609 81.1997 29.8318 81.3816 29.7376C81.5634 29.6435 81.7076 29.4899 81.79 29.3025C81.8717 29.1432 81.9319 28.9737 81.969 28.7986C82.1194 29.1825 82.3506 29.5295 82.647 29.816C82.6883 29.8562 82.7394 29.8849 82.7952 29.8995C82.851 29.914 82.9096 29.9138 82.9653 29.8988C83.021 29.8839 83.0719 29.8547 83.1129 29.8142C83.1539 29.7737 83.1837 29.7232 83.1994 29.6678C83.5065 28.3833 83.7463 27.0836 83.9179 25.7741C84.8985 25.7082 85.8805 25.6707 86.8638 25.6615C87.0334 26.9195 87.2662 28.1683 87.5613 29.4029C87.5774 29.458 87.6075 29.508 87.6486 29.5482C87.6898 29.5883 87.7405 29.6171 87.796 29.632C87.8515 29.6468 87.9099 29.647 87.9655 29.6327C88.0212 29.6184 88.0722 29.59 88.1137 29.5503C88.4219 29.257 88.6586 28.8967 88.8054 28.4973C88.8351 28.6719 88.8845 28.8426 88.9528 29.006C89.0324 29.2015 89.1773 29.3634 89.3628 29.4641C89.5482 29.5648 89.7629 29.5981 89.9702 29.5584C90.3963 29.4321 90.5575 28.9801 90.6619 28.5864C90.7315 28.3247 90.7838 28.0587 90.8183 27.7902C90.9427 27.95 91.0781 28.101 91.2233 28.2422C91.3356 28.363 91.4894 28.4369 91.6539 28.4491C91.8184 28.4612 91.9814 28.4108 92.1102 28.3078C92.6724 27.7999 92.3427 26.6951 92.1175 25.8948C127.022 29.2571 149.959 69.1504 133.245 101.225ZM141.541 97.647C141.383 99.1685 140.752 100.602 139.737 101.746C138.139 103.308 135.806 102.593 133.833 101.542C135.753 97.8425 137.207 93.9182 138.159 89.8597C140.189 91.7777 141.816 94.7375 141.537 97.647H141.541Z" fill="black"/>
<path d="M107.298 24.1468C111.502 20.13 107.676 18.3561 107.676 18.3561C107.676 16.2209 106.015 16.2209 106.015 16.2209C103.642 12.8999 99.8453 14.7994 99.8453 14.7994C99.4397 14.2645 98.9282 13.819 98.3427 13.4908C97.7571 13.1626 97.1102 12.9586 96.4423 12.8917C95.7744 12.8248 95.0999 12.8964 94.4609 13.102C93.8219 13.3076 93.2322 13.6428 92.7286 14.0866C90.8195 15.8038 91.8676 18.1082 92.3503 18.9466C91.792 19.9744 91.6591 21.1803 91.9803 22.3051C92.3015 23.4298 93.0512 24.3837 94.0681 24.9616C95.0851 25.5396 96.2882 25.6955 97.4189 25.396C98.5496 25.0964 99.5177 24.3652 100.115 23.3595C100.726 26.5833 101.871 26.6051 100.475 31.3898C99.6565 34.1883 99.2167 34.3746 99.4225 34.6946C98.6644 35.0704 98.0717 35.7127 97.7579 36.4985C97.6121 37.0396 97.9572 37.4778 98.7226 37.3465C98.5155 37.8101 98.3766 38.3012 98.3103 38.8045C98.2091 39.7531 98.9672 39.8932 99.8226 39.4177C99.6193 41.1438 100.688 41.7667 102.123 40.4132C102.136 40.5623 102.182 40.7066 102.258 40.8359C102.333 40.9651 102.436 41.0761 102.56 41.1608C102.683 41.2456 102.824 41.302 102.971 41.3261C103.119 41.3502 103.27 41.3413 103.414 41.3001C104.313 40.9923 105.171 38.986 105.527 38.1136C105.597 38.1484 105.667 38.1873 105.736 38.2221C105.766 38.2346 105.796 38.2433 105.828 38.2481C105.895 38.2743 105.97 38.274 106.036 38.2474C106.103 38.2208 106.158 38.1698 106.188 38.1047C108.598 33.6149 109.845 28.5062 107.298 24.1468ZM92.8104 22.6556C92.4521 21.8682 92.3721 20.9824 92.5834 20.1435C92.7947 19.3046 93.2849 18.5624 93.9734 18.0388C94.662 17.5151 95.5081 17.241 96.373 17.2614C97.2378 17.2818 98.0701 17.5956 98.7331 18.1512C98.7966 18.211 98.8805 18.2443 98.9676 18.2443C99.0548 18.2443 99.1387 18.211 99.2021 18.1512C99.3247 18.0219 99.4758 17.9231 99.6434 17.8628C99.811 17.8025 99.9904 17.7823 100.167 17.8038C100.344 17.8254 100.513 17.8881 100.662 17.9869C100.81 18.0857 100.933 18.2179 101.021 18.3728C101.109 18.5277 101.159 18.7011 101.168 18.879C101.176 19.0569 101.143 19.2344 101.071 19.3972C100.999 19.56 100.89 19.7037 100.752 19.8166C100.614 19.9295 100.452 20.0085 100.278 20.0474C100.195 20.0721 100.124 20.128 100.081 20.2035C100.038 20.279 100.026 20.3681 100.047 20.4524C100.769 24.8183 94.6669 26.6877 92.8104 22.6556ZM103.472 40.4642C103.386 40.561 103.279 40.6355 103.158 40.6813C103.106 40.6832 103.053 40.6775 103.003 40.6643C102.659 40.5355 102.755 39.7595 102.755 39.634C102.752 39.6468 102.751 39.6598 102.75 39.6729C102.793 39.3861 102.432 39.0727 102.198 39.3553C101.928 39.6793 100.97 40.6773 100.616 40.4513C100.325 40.2658 100.535 39.0694 100.616 38.7341C100.634 38.664 100.629 38.5899 100.601 38.523C100.573 38.4561 100.524 38.4001 100.462 38.3635C100.399 38.3268 100.327 38.3116 100.255 38.32C100.183 38.3284 100.115 38.36 100.063 38.4101C99.7693 38.7251 99.3825 38.9382 98.9591 39.0184C99.0616 38.2824 99.291 37.5699 99.6371 36.9124C99.7635 36.6386 99.4856 36.2644 99.1851 36.4596C98.9629 36.6338 98.6845 36.7202 98.4027 36.7026C98.5519 36.334 98.7792 36.0021 99.0689 35.7297C99.3586 35.4574 99.7039 35.251 100.081 35.1247C101.674 36.0669 103.295 36.9613 104.941 37.8066C104.593 38.7637 104.097 39.6604 103.472 40.4642ZM106.333 36.3429C106.154 36.7293 105.959 37.1035 105.759 37.4818C103.139 36.1566 100.332 34.5172 100.115 34.373C101.017 32.2719 102.027 29.0003 101.735 26.84C101.558 25.4825 100.433 23.4996 100.7 21.6358C101.008 20.3714 102.759 20.876 103.877 21.5491C107.617 23.8139 109.699 29.0683 106.333 36.3429Z" fill="black"/>
<path d="M69.6682 22.3469C69.6852 22.4773 69.7023 22.6077 69.729 22.7341C69.6257 24.078 69.3255 25.3995 68.838 26.6561C68.0596 29.0262 69.2916 32.7805 70.2555 35.0858C70.1745 35.1303 67.8636 36.5438 64.6082 38.1946C63.117 35.3555 62.038 32.1382 62.4082 28.899C63.0886 22.939 69.0267 20.0878 69.6682 22.3469Z" fill="#FF606C"/>
<path d="M106.333 36.343C106.154 36.7294 105.959 37.1036 105.759 37.4819C103.139 36.1567 100.332 34.5173 100.115 34.3731C101.017 32.272 102.027 29.0004 101.735 26.8401C101.559 25.4826 100.434 23.4997 100.7 21.6359C101.008 20.3715 102.759 20.8761 103.878 21.5492C107.617 23.814 109.699 29.0684 106.333 36.343Z" fill="#F26722"/>
<path d="M130.032 28.4309C129.897 27.2005 128.463 26.6303 127.263 26.3176C127.994 25.8946 128.549 25.2236 128.828 24.4262C128.909 23.99 128.824 23.5393 128.59 23.1622C128.357 22.7852 127.991 22.5088 127.564 22.3873C127.137 22.2658 126.681 22.3078 126.283 22.5051C125.886 22.7024 125.577 23.0409 125.415 23.4542C125.668 22.0934 123.574 20.6273 121.89 22.5236C120.706 23.8536 120.849 26.3832 120.863 26.3063C120.241 24.8555 116.344 25.1253 117.55 29.671C116.666 29.3033 115.744 30.2161 115.707 31.0796C115.638 32.672 117.626 34.2143 119.002 34.9101C120.004 33.2853 120.923 31.6107 121.756 29.8929C121.943 29.5106 122.512 29.8451 122.329 30.2275C121.509 31.9255 120.603 33.5813 119.617 35.1887C120.144 35.4054 120.694 35.563 121.256 35.6585C122.434 35.8626 124.565 36.7318 125.549 35.797C125.672 35.6841 125.767 35.5437 125.825 35.3872C125.884 35.2308 125.904 35.0627 125.885 34.8968C125.866 34.7308 125.808 34.5718 125.716 34.4326C125.623 34.2934 125.499 34.1781 125.354 34.096C125.554 34.1956 125.772 34.2548 125.995 34.2702C126.218 34.2855 126.442 34.2569 126.654 34.1858C126.866 34.1146 127.061 34.0025 127.23 33.8557C127.399 33.7089 127.537 33.5303 127.636 33.3302C127.736 33.13 127.795 32.9122 127.81 32.6892C127.826 32.4662 127.797 32.2424 127.726 32.0305C127.655 31.8185 127.543 31.6227 127.396 31.4541C127.249 31.2856 127.07 31.1476 126.87 31.048C127.616 30.9339 128.335 30.685 128.992 30.3133C129.319 30.122 129.588 29.8461 129.771 29.5149C129.954 29.1836 130.044 28.8092 130.032 28.4309Z" fill="#F7D7CA"/>
</svg>
