<svg width="114" height="70" viewBox="0 0 114 70" fill="none" xmlns="http://www.w3.org/2000/svg">
<path d="M29.1606 51.8209C29.3851 52.3916 29.4899 52.5418 29.5011 52.7032C29.8653 56.7782 28.0456 58.8169 24.042 58.8194C20.5959 58.8194 17.146 58.7256 13.7074 58.8833C11.7206 58.9734 10.9311 58.1962 10.7178 56.3039C10.2314 52.0049 10.3811 51.8059 14.7102 51.8209C19.522 51.8397 24.3301 51.8247 29.1606 51.8247V51.8209Z" fill="black"/>
<path d="M13.5952 63.3061H29.546C29.546 65.1346 29.6545 66.918 29.4786 68.6676C29.4262 69.167 28.5619 69.9555 28.0418 69.978C22.3732 70.2295 17.6137 68.3448 13.5989 63.3061H13.5952Z" fill="black"/>
<path d="M48.0449 32.6201C46.1404 31.8617 42.4062 30.5213 39.3006 35.1582C39.3006 28.3361 39.3342 22.1299 39.2819 15.9273C39.2631 13.8548 39.2145 11.7522 38.8553 9.71727C37.8638 4.06665 32.891 0.0567815 27.0428 0.000463074C21.883 -0.0483462 16.727 3.76629 15.9225 9.09026C15.4623 12.1315 16.3678 15.3829 16.6895 18.8709C16.9589 18.7658 16.5773 18.931 16.1844 19.0699C11.8291 20.5905 9.47183 24.2061 10.1004 28.4112C10.729 32.6239 14.0442 35.4473 18.6203 35.5862C20.8503 35.6538 23.0878 35.5975 25.4002 35.5975C24.8689 37.3884 24.4124 38.9203 23.9559 40.4559C17.8532 40.2794 13.6962 42.7124 12.555 47.3718C18.3022 47.3718 23.9821 47.2742 29.662 47.4056C33.3475 47.4919 36.4756 46.6584 38.6345 43.1779C40.9357 47.0939 44.5052 47.5182 48.4003 47.383C53.6237 47.2028 52.7669 48.0739 52.9764 42.825C53.1485 38.541 52.4638 34.8465 48.0449 32.6201ZM18.291 32.3348C15.9225 32.2822 14.1564 31.0056 13.5428 28.6515C12.9591 26.4025 13.4305 24.33 15.4997 22.9446C17.5576 21.5667 19.7764 21.3639 21.7408 22.9333C25.4339 25.8807 28.9885 29.0045 32.9696 32.3648C27.7163 32.3648 23.0018 32.4399 18.291 32.3348ZM35.948 29.669C35.948 29.7554 35.9181 29.838 35.7572 30.6414C30.8107 26.2524 25.8193 22.4903 21.6548 17.9585C16.6072 12.4694 18.5641 5.36198 25.0672 3.55979C29.6133 2.30201 34.6309 5.24183 35.5215 9.96507C35.9817 12.4018 35.9031 14.9549 35.9405 17.4554C36.0004 21.5254 35.9517 25.5953 35.948 29.6653V29.669Z" fill="black"/>
<path d="M46.4352 56.9682C46.4352 58.3419 46.14 59.5611 45.5497 60.6258C44.9593 61.6732 44.1581 62.4975 43.146 63.0985C42.1339 63.6995 40.9954 64 39.7303 64C38.4652 64 37.3266 63.6995 36.3145 63.0985C35.3025 62.4975 34.4928 61.6732 33.8856 60.6258C33.2952 59.5611 33 58.3419 33 56.9682C33 55.5773 33.2952 54.3581 33.8856 53.3106C34.4928 52.246 35.3025 51.4131 36.3145 50.8121C37.3266 50.1939 38.4652 49.8848 39.7303 49.8848C40.9954 49.8848 42.1339 50.1939 43.146 50.8121C44.1581 51.4131 44.9593 52.246 45.5497 53.3106C46.14 54.3581 46.4352 55.5773 46.4352 56.9682ZM43.9051 56.9682C43.9051 56.0237 43.7195 55.2081 43.3484 54.5212C42.9773 53.8172 42.4713 53.2677 41.8303 52.8727C41.2062 52.4606 40.5062 52.2545 39.7303 52.2545C38.9543 52.2545 38.2459 52.4606 37.6049 52.8727C36.9639 53.2677 36.4579 53.8172 36.0868 54.5212C35.7157 55.2081 35.5302 56.0237 35.5302 56.9682C35.5302 57.8783 35.7157 58.6854 36.0868 59.3894C36.4579 60.0934 36.9639 60.6429 37.6049 61.0379C38.2459 61.4328 38.9543 61.6303 39.7303 61.6303C40.5062 61.6303 41.2062 61.4328 41.8303 61.0379C42.4713 60.6429 42.9773 60.0934 43.3484 59.3894C43.7195 58.6854 43.9051 57.8783 43.9051 56.9682Z" fill="black"/>
<path d="M56.1558 49.8848C57.3535 49.8848 58.2812 50.1424 58.939 50.6576C59.5969 51.1556 60.0523 51.8338 60.3053 52.6924C60.5752 53.5338 60.7102 54.4783 60.7102 55.5258V62.4288C60.7102 62.8066 60.5837 63.1242 60.3306 63.3818C60.0945 63.6222 59.7993 63.7424 59.4451 63.7424C59.074 63.7424 58.7704 63.6222 58.5342 63.3818C58.2981 63.1242 58.18 62.8066 58.18 62.4288V55.5515C58.18 54.9333 58.0956 54.3838 57.927 53.903C57.7583 53.4051 57.4631 53.0101 57.0414 52.7182C56.6366 52.4091 56.0631 52.2545 55.3209 52.2545C54.6293 52.2545 54.0221 52.4091 53.4992 52.7182C52.9763 53.0101 52.563 53.4051 52.2594 53.903C51.9726 54.3838 51.8292 54.9333 51.8292 55.5515V62.4288C51.8292 62.8066 51.7027 63.1242 51.4497 63.3818C51.2136 63.6222 50.9184 63.7424 50.5642 63.7424C50.1931 63.7424 49.8894 63.6222 49.6533 63.3818C49.4171 63.1242 49.2991 62.8066 49.2991 62.4288V51.5076C49.2991 51.1298 49.4171 50.8207 49.6533 50.5803C49.8894 50.3227 50.1931 50.1939 50.5642 50.1939C50.9184 50.1939 51.2136 50.3227 51.4497 50.5803C51.7027 50.8207 51.8292 51.1298 51.8292 51.5076V52.95L51.3738 53.2076C51.4919 52.8298 51.6943 52.452 51.9811 52.0742C52.2847 51.6793 52.6473 51.3187 53.069 50.9924C53.4907 50.649 53.963 50.3828 54.4859 50.1939C55.0088 49.9879 55.5655 49.8848 56.1558 49.8848Z" fill="black"/>
<path d="M70.4221 64C69.0221 64 67.8076 63.7081 66.7786 63.1242C65.7497 62.5232 64.9485 61.7076 64.375 60.6773C63.8183 59.6298 63.54 58.4364 63.54 57.097C63.54 55.5859 63.8352 54.298 64.4256 53.2333C65.0328 52.1515 65.8172 51.3273 66.7786 50.7606C67.7401 50.1768 68.7606 49.8848 69.8401 49.8848C70.6667 49.8848 71.451 50.0566 72.1932 50.4C72.9354 50.7263 73.5932 51.1899 74.1667 51.7909C74.7571 52.3747 75.221 53.0702 75.5583 53.8773C75.8957 54.6672 76.0728 55.5343 76.0897 56.4788C76.0728 56.8222 75.9379 57.1056 75.6848 57.3288C75.4318 57.552 75.1366 57.6636 74.7993 57.6636H64.9569L64.3497 55.4742H73.8631L73.3824 55.9379V55.2939C73.3487 54.6929 73.1547 54.1692 72.8004 53.7227C72.4462 53.2591 72.0077 52.9071 71.4848 52.6667C70.9619 52.4091 70.4136 52.2803 69.8401 52.2803C69.3341 52.2803 68.8449 52.3662 68.3726 52.5379C67.9172 52.6924 67.5039 52.95 67.1329 53.3106C66.7786 53.6712 66.4919 54.152 66.2726 54.753C66.0702 55.3369 65.969 56.0667 65.969 56.9424C65.969 57.8869 66.163 58.7111 66.5509 59.4152C66.9389 60.1192 67.4618 60.6687 68.1196 61.0636C68.7775 61.4414 69.5028 61.6303 70.2956 61.6303C70.9197 61.6303 71.4342 61.5702 71.839 61.45C72.2438 61.3126 72.5812 61.1495 72.8511 60.9606C73.1209 60.7717 73.3571 60.5914 73.5595 60.4197C73.8125 60.2652 74.0655 60.1879 74.3186 60.1879C74.6222 60.1879 74.8752 60.2995 75.0776 60.5227C75.28 60.7288 75.3812 60.9778 75.3812 61.2697C75.3812 61.6475 75.1957 61.9909 74.8246 62.3C74.3692 62.7465 73.7366 63.1414 72.927 63.4848C72.1342 63.8283 71.2992 64 70.4221 64Z" fill="black"/>
<path d="M84.8449 49.8848C85.7557 49.8848 86.5654 49.9879 87.2738 50.1939C87.9823 50.3828 88.5305 50.6576 88.9185 51.0182C89.3233 51.3616 89.5257 51.7652 89.5257 52.2288C89.5257 52.5207 89.4414 52.7955 89.2727 53.053C89.104 53.2934 88.851 53.4136 88.5136 53.4136C88.2775 53.4136 88.0751 53.3707 87.9064 53.2848C87.7546 53.199 87.6112 53.096 87.4763 52.9758C87.3413 52.8556 87.1726 52.7354 86.9702 52.6152C86.7847 52.5121 86.5064 52.4263 86.1353 52.3576C85.781 52.2889 85.4605 52.2545 85.1738 52.2545C84.2798 52.2545 83.5039 52.4606 82.846 52.8727C82.2051 53.2848 81.699 53.8429 81.3279 54.547C80.9737 55.251 80.7966 56.0495 80.7966 56.9424C80.7966 57.8354 80.9737 58.6338 81.3279 59.3379C81.699 60.0419 82.1966 60.6 82.8207 61.0121C83.4617 61.4242 84.2039 61.6303 85.0473 61.6303C85.5533 61.6303 85.9666 61.596 86.2871 61.5273C86.6076 61.4414 86.8859 61.3384 87.122 61.2182C87.375 61.0636 87.5859 60.9091 87.7546 60.7545C87.9401 60.5828 88.1931 60.497 88.5136 60.497C88.8847 60.497 89.163 60.6172 89.3486 60.8576C89.551 61.0808 89.6522 61.3641 89.6522 61.7076C89.6522 62.0854 89.4245 62.4545 88.9691 62.8152C88.5305 63.1586 87.9401 63.4419 87.1979 63.6652C86.4557 63.8884 85.6377 64 84.7437 64C83.428 64 82.281 63.6909 81.3026 63.0727C80.3412 62.4545 79.5905 61.6131 79.0508 60.5485C78.5279 59.4838 78.2664 58.2818 78.2664 56.9424C78.2664 55.5859 78.5447 54.3838 79.1014 53.3364C79.658 52.2717 80.4339 51.4303 81.4291 50.8121C82.4243 50.1939 83.5629 49.8848 84.8449 49.8848Z" fill="black"/>
<path d="M91.8928 50.3485H97.8387C98.1761 50.3485 98.4544 50.4687 98.6737 50.7091C98.9098 50.9323 99.0279 51.2157 99.0279 51.5591C99.0279 51.8854 98.9098 52.1601 98.6737 52.3833C98.4544 52.6066 98.1761 52.7182 97.8387 52.7182H91.8928C91.5554 52.7182 91.2687 52.6066 91.0325 52.3833C90.8133 52.1429 90.7036 51.8596 90.7036 51.5333C90.7036 51.1899 90.8133 50.9066 91.0325 50.6833C91.2687 50.4601 91.5554 50.3485 91.8928 50.3485ZM94.5495 47C94.9206 47 95.2242 47.1288 95.4603 47.3864C95.6965 47.6268 95.8146 47.9359 95.8146 48.3136V60.2652C95.8146 60.5742 95.8652 60.8232 95.9664 61.0121C96.0676 61.201 96.2025 61.3298 96.3712 61.3985C96.5567 61.4672 96.7423 61.5015 96.9278 61.5015C97.1134 61.5015 97.2736 61.4672 97.4086 61.3985C97.5604 61.3298 97.7375 61.2955 97.9399 61.2955C98.1423 61.2955 98.3279 61.3899 98.4966 61.5788C98.6652 61.7677 98.7496 62.0253 98.7496 62.3515C98.7496 62.7636 98.5303 63.0985 98.0917 63.3561C97.6532 63.6136 97.1809 63.7424 96.6748 63.7424C96.3881 63.7424 96.0507 63.7167 95.6628 63.6652C95.2748 63.6136 94.8953 63.4848 94.5242 63.2788C94.17 63.0727 93.8748 62.7465 93.6386 62.3C93.4025 61.8364 93.2844 61.1924 93.2844 60.3682V48.3136C93.2844 47.9359 93.4025 47.6268 93.6386 47.3864C93.8916 47.1288 94.1953 47 94.5495 47Z" fill="black"/>
<path d="M112.735 49.9879C113.106 49.9879 113.41 50.1167 113.646 50.3742C113.882 50.6146 114 50.9237 114 51.3015V62.4288C114 62.8066 113.882 63.1242 113.646 63.3818C113.41 63.6222 113.106 63.7424 112.735 63.7424C112.381 63.7424 112.077 63.6222 111.824 63.3818C111.588 63.1242 111.47 62.8066 111.47 62.4288V60.5742L112.001 60.6515C112.001 60.9606 111.875 61.304 111.622 61.6818C111.385 62.0596 111.057 62.4288 110.635 62.7894C110.213 63.1328 109.716 63.4247 109.142 63.6652C108.569 63.8884 107.953 64 107.295 64C106.131 64 105.085 63.6995 104.158 63.0985C103.23 62.4803 102.496 61.6389 101.956 60.5742C101.417 59.5096 101.147 58.299 101.147 56.9424C101.147 55.5515 101.417 54.3323 101.956 53.2848C102.496 52.2202 103.221 51.3874 104.132 50.7864C105.06 50.1854 106.089 49.8848 107.219 49.8848C107.944 49.8848 108.611 50.0051 109.218 50.2455C109.842 50.4859 110.382 50.7949 110.837 51.1727C111.293 51.5505 111.639 51.954 111.875 52.3833C112.128 52.7955 112.254 53.1904 112.254 53.5682L111.47 53.6455V51.3015C111.47 50.9409 111.588 50.6318 111.824 50.3742C112.077 50.1167 112.381 49.9879 112.735 49.9879ZM107.573 61.6303C108.366 61.6303 109.066 61.4242 109.673 61.0121C110.281 60.6 110.753 60.0419 111.09 59.3379C111.428 58.6167 111.596 57.8182 111.596 56.9424C111.596 56.0495 111.428 55.251 111.09 54.547C110.753 53.8429 110.281 53.2848 109.673 52.8727C109.066 52.4606 108.366 52.2545 107.573 52.2545C106.797 52.2545 106.106 52.4606 105.499 52.8727C104.908 53.2848 104.436 53.8429 104.082 54.547C103.744 55.251 103.576 56.0495 103.576 56.9424C103.576 57.8182 103.744 58.6167 104.082 59.3379C104.436 60.0419 104.908 60.6 105.499 61.0121C106.106 61.4242 106.797 61.6303 107.573 61.6303Z" fill="black"/>
<path d="M10.3609 33.8182C10.703 34 10.9003 34.2867 10.9529 34.6783C11.0187 35.0699 10.9266 35.4266 10.6766 35.7483C10.5056 36 10.2819 36.1399 10.0057 36.1678C9.74252 36.1958 9.47281 36.1399 9.19652 36C8.88076 35.8462 8.54527 35.7273 8.19004 35.6434C7.84796 35.5594 7.48615 35.5175 7.10461 35.5175C6.39415 35.5175 5.75605 35.6364 5.19031 35.8741C4.63773 36.1119 4.16409 36.4545 3.76939 36.9021C3.37469 37.3357 3.07209 37.8531 2.86158 38.4545C2.66423 39.0559 2.56555 39.7203 2.56555 40.4476C2.56555 41.3007 2.67739 42.042 2.90105 42.6713C3.13787 43.3007 3.46021 43.8252 3.86807 44.2448C4.27592 44.6643 4.75614 44.979 5.30872 45.1888C5.8613 45.3846 6.45993 45.4825 7.10461 45.4825C7.45984 45.4825 7.81507 45.4476 8.1703 45.3776C8.52553 45.3077 8.86761 45.1818 9.19652 45C9.47281 44.8601 9.74252 44.8112 10.0057 44.8531C10.2819 44.8951 10.5122 45.042 10.6964 45.2937C10.9595 45.6434 11.0516 46.007 10.9727 46.3846C10.9069 46.7483 10.7095 47.014 10.3806 47.1818C10.0386 47.3636 9.68332 47.5175 9.31493 47.6434C8.9597 47.7552 8.59789 47.8392 8.22951 47.8951C7.86112 47.965 7.48615 48 7.10461 48C6.15733 48 5.25609 47.8392 4.40091 47.5175C3.55888 47.1958 2.80237 46.7203 2.13138 46.0909C1.47355 45.4615 0.95386 44.6783 0.572316 43.7413C0.190772 42.7902 0 41.6923 0 40.4476C0 39.3706 0.171037 38.3776 0.513111 37.4685C0.868341 36.5594 1.36172 35.7762 1.99324 35.1189C2.63792 34.4476 3.39442 33.9301 4.26277 33.5664C5.13111 33.1888 6.07839 33 7.10461 33C7.6835 33 8.24924 33.0699 8.80182 33.2098C9.3544 33.3496 9.87409 33.5524 10.3609 33.8182Z" fill="black"/>
</svg>
